STARTFONT 2.1
COMMENT
COMMENT Converted from OpenType font "RuthlessSketch_Regular.ttf" by "otf2bdf 3.0".
COMMENT
FONT -FreeType-Ruthless Sketch-Medium-R-Normal--66-480-100-100-P-329-ISO10646-1
SIZE 48 100 100
FONTBOUNDINGBOX 78 74 -30 -13
STARTPROPERTIES 19
FOUNDRY "FreeType"
FAMILY_NAME "Ruthless Sketch"
WEIGHT_NAME "Medium"
SLANT "R"
SETWIDTH_NAME "Normal"
ADD_STYLE_NAME ""
PIXEL_SIZE 66
POINT_SIZE 480
RESOLUTION_X 100
RESOLUTION_Y 100
SPACING "P"
AVERAGE_WIDTH 329
CHARSET_REGISTRY "ISO10646"
CHARSET_ENCODING "1"
FONT_ASCENT 62
FONT_DESCENT 13
COPYRIGHT "© 2024 GGBotNet. All Rights Reserved."
_OTF_FONTFILE "RuthlessSketch_Regular.ttf"
_OTF_PSNAME "RuthlessSketch-Regular"
ENDPROPERTIES
CHARS 1105
STARTCHAR 0020
ENCODING 32
SWIDTH 300 0
DWIDTH 20 0
BBX 0 0 0 0
BITMAP
ENDCHAR
STARTCHAR 0021
ENCODING 33
SWIDTH 285 0
DWIDTH 19 0
BBX 18 50 1 -1
BITMAP
7FFF80
FFFFC0
FFFF80
FFFF80
FFFF80
FFFF80
FFFF00
FFFF00
FFFF00
7FFF00
7FFF00
7FFE00
7FFE00
7FFE00
7FFE00
7FFE00
7FFE00
3FFE00
3FFC00
3FFC00
3FFC00
3FFC00
3FFC00
3FFC00
1FFC00
1FFC00
1FFC00
1FFC00
1FFC00
1FFC00
1FFC00
0FF800
0FE000
000000
000000
000000
000000
002000
03F800
0FFC00
1FFC00
1FFE00
1FFE00
1FFE00
1FFE00
1FFE00
0FFE00
0FFE00
07FC00
01E000
ENDCHAR
STARTCHAR 0022
ENCODING 34
SWIDTH 390 0
DWIDTH 26 0
BBX 25 25 1 24
BITMAP
00001000
7F81FE00
7FC1FF00
FFC1FF00
FFC3FF80
FFC3FF80
FFC3FF00
FFC3FF00
FFC1FF00
FFC1FF00
FFC1FF00
FFC1FF00
7FC1FF00
7F81FE00
7F81FE00
7F80FE00
3F80FE00
3F80FE00
3F007C00
3F007C00
1F007C00
1F007C00
1E007C00
1E003800
0E003000
ENDCHAR
STARTCHAR 0023
ENCODING 35
SWIDTH 510 0
DWIDTH 34 0
BBX 33 47 1 0
BITMAP
0000001000
001FE03A00
001FE03F00
001FE07E00
001FC07E00
003FC07E00
003FC0FC00
003FC0FC00
003FC0FC00
007FC1FC00
007F81F800
007F81F800
1FFFFFFF00
FFFFFFFF00
FFFFFFFF00
FFFFFFFF80
7FFFFFFF80
7FFFFFFF80
FFFFFFFF80
FFFFFFFF80
7FFFFFE000
01FC0FE000
01FC1FC000
03FC1FC000
03F81FC000
03F83FFC00
7FFFFFFF00
FFFFFFFF00
FFFFFFFF00
FFFFFFFF00
FFFFFFFF00
FFFFFFFF00
FFFFFFFF00
FFFFFFFF00
7FFFFF0000
0FC0FF0000
1FC1FE0000
1F81FE0000
1F81FE0000
3F81FE0000
3F03FC0000
3F03FC0000
3F03FC0000
7E03FC0000
7E03F80000
4C03F80000
0400000000
ENDCHAR
STARTCHAR 0024
ENCODING 36
SWIDTH 495 0
DWIDTH 33 0
BBX 32 61 1 -7
BITMAP
001FF000
001FF000
001FF000
001FF000
001FF000
001FF000
001FF000
001FF000
001FFE00
003FFF80
00FFFFE0
01FFFFF8
07FFFFFC
1FFFFFFE
1FFFFFFF
3FFFFFFF
3FFFFFFF
3FFFFFFF
3FFFFFFE
3FFFFDFE
7FFFF07E
7FFFF01C
7FFFF000
3FFFF000
3FFFF000
1FFFF000
1FFFF000
0FFFFC00
0FFFFF80
07FFFFC0
00FFFFE0
003FFFF0
001FFFF0
001FFFF0
001FFFF8
001FFFF8
001FFFF8
381FFFFC
3FFFFFFC
3FFFFFF8
3FFFFFF8
3FFFFFF8
7FFFFFF0
7FFFFFF0
7FFFFFF0
7FFFFFE0
7FFFFFE0
7FFFFFC0
FFFFFFC0
FFFFFFC0
FFFFFF80
FFFFFE00
1FFFF800
001FF800
001FF000
001FF000
001FF000
001FF000
001FF000
001FF000
000FF000
ENDCHAR
STARTCHAR 0025
ENCODING 37
SWIDTH 555 0
DWIDTH 37 0
BBX 36 45 1 2
BITMAP
0000003C00
00C0003F00
07F0007F80
0FF8007F00
1FFC00FF00
3FFC00FE00
7FFE01FE00
7E7F01FC00
FC3F03FC00
F81F03F800
F81F07F800
F81F07F000
F81F0FF000
FC1F1FE000
FC3F1FE000
7E7E3FC000
7FFE3F8000
3FFC7F8000
1FFCFF0000
0FF0FF0000
07C1FE0000
0001FE0000
0003FC0000
0007F87C00
0007F9FF00
000FF3FF80
000FE3FFC0
001FE7FFC0
003FCFE7E0
003FCFC3E0
007F8F83F0
007F0F83F0
00FF0F83F0
01FE0F83F0
01FE0F83F0
03FC0F83E0
03F80FC7E0
07F807FFE0
07F007FFC0
0FE003FFC0
1FE001FF00
1FC000FE00
3FC0000000
1F80000000
0F00000000
ENDCHAR
STARTCHAR 0026
ENCODING 38
SWIDTH 510 0
DWIDTH 34 0
BBX 32 45 1 1
BITMAP
007F0000
03FFC000
07FFE000
1FFFF000
1FFFF000
3FFFF800
3FFFF800
3FE7F800
3FC3F800
3F83F800
1F83F800
1FC7F000
1FEFF000
1FFFF000
0FFFE000
0FFFE000
07FFC000
07FFC1FE
0FFFE1FE
1FFFF1FC
1FFFF9FC
3FFFF9FC
3FFFFFFC
7FF7FFF8
7FC3FFF8
7FC3FFF8
7FC1FFF8
FF80FFF8
FF807FF0
FF803FF0
FF801FF0
FFC00FF8
FFC01FFC
FFE03FFE
FFFFFFFF
7FFFFFFF
7FFFFFFF
7FFFFFFF
3FFFFFFF
1FFFFF9F
1FFFFF8F
07FFFF07
01FFFE07
007FF803
00078001
ENDCHAR
STARTCHAR 0027
ENCODING 39
SWIDTH 210 0
DWIDTH 14 0
BBX 12 25 1 24
BITMAP
0600
7FE0
FFE0
FFF0
FFF0
FFF0
FFF0
FFF0
FFF0
FFF0
FFF0
FFF0
FFF0
7FE0
7FE0
7FE0
3FC0
3FC0
3FC0
1FC0
1F80
1F80
1F80
0F00
0F00
ENDCHAR
STARTCHAR 0028
ENCODING 40
SWIDTH 345 0
DWIDTH 23 0
BBX 22 64 1 -10
BITMAP
000600
000780
000FE0
001FF8
003FFC
007FF8
007FE0
00FFE0
01FFC0
01FF80
03FF00
07FC00
07FC00
0FF800
1FF800
1FF000
3FF000
3FE000
3FC000
7FC000
7F8000
7F8000
FF8000
FF8000
FF8000
FF8000
FF8000
FF8000
FF8000
FF8000
FF8000
FF8000
FF8000
FF8000
FF8000
FF8000
FF8000
FF8000
FF8000
FF8000
FF8000
7F8000
7F8000
7F8000
3FC000
3FC000
1FE000
1FE000
0FF000
0FF800
07F800
07FC00
03FC00
03FE00
01FF00
00FFC0
00FFC0
007FF0
003FF8
001FF8
000FF0
0007C0
000780
000200
ENDCHAR
STARTCHAR 0029
ENCODING 41
SWIDTH 345 0
DWIDTH 23 0
BBX 21 64 1 -10
BITMAP
060000
0F0000
1F8000
7FC000
FFE000
7FF000
3FF800
1FF800
0FFC00
03FE00
01FE00
00FF00
00FF00
00FF80
007F80
007FC0
003FC0
001FE0
000FE0
000FF0
000FF0
000FF0
000FF8
000FF8
000FF8
000FF8
000FF8
000FF8
000FF8
0007F8
0007F8
0007F8
0007F8
0007F8
0007F8
0007F8
0007F8
0007F8
0007F8
0007F8
0007F8
0007F8
000FF0
000FF0
000FF0
001FE0
003FE0
007FE0
007FC0
007FC0
00FF80
00FF00
01FF00
03FE00
0FFC00
1FFC00
3FF800
3FF000
7FF000
FFE000
7FC000
1F8000
070000
010000
ENDCHAR
STARTCHAR 002A
ENCODING 42
SWIDTH 315 0
DWIDTH 21 0
BBX 18 20 2 29
BITMAP
01C000
01C000
01E000
61E380
F9C7C0
FDCFC0
7FFF80
3FFE00
0FFC00
07F000
07F800
0FFC00
3FFE00
7FFF80
FDCFC0
F9C7C0
61C100
01C000
01C000
01C000
ENDCHAR
STARTCHAR 002B
ENCODING 43
SWIDTH 465 0
DWIDTH 31 0
BBX 30 29 1 9
BITMAP
001FF000
001FF000
001FF000
001FF000
001FF000
001FF000
001FF000
001FF000
003FF000
043FF000
FFFFFFFC
FFFFFFFC
FFFFFFFC
FFFFFFFC
FFFFFFFC
FFFFFFFC
FFFFFFFC
FFFFFFFC
FFFFFFFC
083FF000
003FF000
003FF000
003FF000
003FF000
003FF000
003FF000
003FF000
003FF000
003FF000
ENDCHAR
STARTCHAR 002C
ENCODING 44
SWIDTH 210 0
DWIDTH 14 0
BBX 15 23 -2 -11
BITMAP
00E0
07F8
0FFC
0FFC
0FFE
1FFE
1FFE
0FFE
0FFE
0FFE
07FC
03F8
03F0
03F0
1FE0
3FE0
FFE0
FFC0
7FC0
3F80
1F80
0F00
0600
ENDCHAR
STARTCHAR 002D
ENCODING 45
SWIDTH 390 0
DWIDTH 26 0
BBX 24 11 1 18
BITMAP
06FCF8
FFFFFF
FFFFFF
FFFFFF
FFFFFF
FFFFFF
FFFFFF
FFFFFF
FFFFFF
FFFFFF
00001C
ENDCHAR
STARTCHAR 002E
ENCODING 46
SWIDTH 210 0
DWIDTH 14 0
BBX 12 12 1 0
BITMAP
0F00
1FC0
3FF0
7FF0
7FF0
FFF0
FFF0
FFF0
FFF0
7FE0
3FE0
1FC0
ENDCHAR
STARTCHAR 002F
ENCODING 47
SWIDTH 450 0
DWIDTH 30 0
BBX 28 54 1 -4
BITMAP
00000400
00000E10
00001FF0
00001FF0
00003FF0
00003FE0
00007FE0
00007FC0
0000FFC0
0000FFC0
0001FF80
0001FF80
0003FF80
0003FF00
0003FF00
0007FE00
0007FE00
000FFE00
000FFC00
000FFC00
001FFC00
001FF800
003FF800
003FF800
007FF000
007FF000
007FF000
00FFF000
00FFE000
01FFE000
01FFE000
03FFC000
03FFC000
03FFC000
07FF8000
07FF8000
07FF8000
0FFF8000
0FFF0000
1FFF0000
1FFF0000
1FFE0000
3FFE0000
3FFE0000
3FFC0000
7FFC0000
7FFC0000
7FF80000
7FF80000
FFF80000
FFF00000
FFF00000
FFF00000
40200000
ENDCHAR
STARTCHAR 0030
ENCODING 48
SWIDTH 390 0
DWIDTH 26 0
BBX 25 47 1 0
BITMAP
00700000
01FC0000
07FE0000
0FFF0000
0FFF0000
1FFF8000
1FFFC000
3FFFE000
3FFFF000
3FFFF800
3FFFFC00
3FFFFC00
3FFFFE00
7FFFFE00
7FFFFE00
7FF3FE00
7FE1FF00
7FC1FF00
FFC1FF00
FFC0FF80
FFC0FF80
FFC0FF80
FFC0FF80
FFC0FF00
FFC0FF00
FFC0FF00
FFC0FF80
FFE1FF80
FFE1FF80
7FFBFF00
7FFFFF00
7FFFFF00
3FFFFF00
3FFFFF00
3FFFFF00
1FFFFE00
1FFFFE00
0FFFFE00
0FFFFE00
0FFFFC00
07FFFC00
07FFFC00
03FFF800
01FFF800
00FFF000
003FE000
000FC000
ENDCHAR
STARTCHAR 0031
ENCODING 49
SWIDTH 420 0
DWIDTH 28 0
BBX 26 44 1 2
BITMAP
00008000
0007F000
001FFC00
003FFC00
007FFE00
01FFFE00
07FFFE00
0FFFFE00
3FFFFE00
7FFFFE00
FFFFFE00
7FEFFE00
3FEFFE00
1FCFFE00
0FDFFE00
079FFE00
039FFE00
011FFE00
001FFF00
001FFF00
003FFE00
003FFE00
003FFE00
003FFF00
003FFF00
003FFF00
003FFF00
007FFF00
007FFF00
007FFF00
007FFF00
007FFF00
007FFF00
007FFF00
007FFF80
00FFFF80
00FFFF80
00FFFF80
00FFFF80
00FFFF80
00FFFF80
00FFFFC0
003FFFC0
0000FFC0
ENDCHAR
STARTCHAR 0032
ENCODING 50
SWIDTH 510 0
DWIDTH 34 0
BBX 32 45 1 1
BITMAP
007E0000
01FFC000
03FFF000
07FFFC00
0FFFFF00
1FFFFF00
3FFFFF80
7FFFFF80
FFFFFF80
FFFFFF80
7FFFFF80
3FE7FF80
3FC0FF80
1F00FF80
0E00FF80
0400FF80
0000FF80
0001FF00
0001FF00
0001FE00
0003FE00
0003FE00
0007FC00
0007FC00
0007F800
000FF800
000FF007
001FFFFF
003FFFFF
003FFFFF
007FFFFF
007FFFFE
00FFFFFE
00FFFFFE
01FFFFFE
03FFFFFE
03FFFFFC
07FFFFFC
0FFFFFFC
3FFFFFFC
3FFFFFF8
3FFFFFF0
1FFFFF80
07FFFC00
003FC000
ENDCHAR
STARTCHAR 0033
ENCODING 51
SWIDTH 465 0
DWIDTH 31 0
BBX 29 45 1 0
BITMAP
03FFC000
1FFFE000
3FFFF000
3FFFF000
3FFFF000
3FFFF000
1FFFE000
0F9FE000
001FE000
003FC000
007FC000
007F8000
00FF8000
01FF8000
01FF8000
03FFF800
07FFFE00
07FFFF80
0FFFFFC0
0FFFFFC0
0FFFFFE0
0FFFFFE0
07FFFFF0
00807FF0
00001FF0
00000FF0
00000FF8
000007F8
000007F8
000007F8
000007F8
000007F8
00000FF8
00001FF8
40003FF8
F800FFF8
FFFFFFF0
FFFFFFF0
7FFFFFE0
7FFFFFC0
1FFFFF80
07FFFF00
01FFFE00
00FFF800
000FE000
ENDCHAR
STARTCHAR 0034
ENCODING 52
SWIDTH 435 0
DWIDTH 29 0
BBX 28 46 1 -1
BITMAP
007F0000
01FF0000
03FF0000
03FF0000
03FE0000
03FE0000
03FE0000
07FC0000
07FC0000
07FC0000
07FC0000
0FF80000
0FF80000
0FF80000
1FF80000
1FF00000
1FF01FC0
1FFFFFE0
3FFFFFE0
3FFFFFE0
3FFFFFE0
3FFFFFE0
7FFFFFF0
7FFFFFF0
7FFFFFE0
7FFFFF80
FFFFFC00
FC07F800
0007F800
000FF800
000FF800
000FF800
001FF800
001FF800
001FF800
003FF800
003FF800
003FF800
007FFC00
007FFC00
007FFC00
00FFFC00
00FFFC00
00FFFC00
00FFFC00
00C00000
ENDCHAR
STARTCHAR 0035
ENCODING 53
SWIDTH 480 0
DWIDTH 32 0
BBX 30 46 1 0
BITMAP
000007E0
00FFFFE0
03FFFFF0
03FFFFF0
01FFFFF0
01FFFFE0
03FFFFC0
03FFFE00
03FF0000
03FF0000
03FE0000
03FE0000
07FE0000
07FFE000
07FFF800
07FFFC00
07FFFE00
0FFFFF00
0FFFFF80
0FFFFFC0
1FFFFFE0
1C07FFE0
0001FFF0
0000FFF0
0000FFF8
00007FF8
00003FFC
00003FFC
00003FFC
00001FFC
00001FFC
00001FFC
00001FFC
C0003FFC
E0003FFC
F0007FFC
FC00FFF8
7F81FFF8
7FFFFFF0
7FFFFFF0
7FFFFFE0
7FFFFFC0
1FFFFFC0
07FFFF80
00FFFE00
001FFC00
ENDCHAR
STARTCHAR 0036
ENCODING 54
SWIDTH 495 0
DWIDTH 33 0
BBX 31 48 1 -2
BITMAP
00001F00
0001FF80
0003FFC0
000FFFE0
001FFFF0
003FFFF0
00FFFFF0
01FFFFF0
03FFFFC0
03FF0000
07FE0000
0FFC0000
0FF80000
1FF80000
3FF00000
3FF00000
7FF80000
7FFD8000
7FFFFC00
7FFFFE00
7FFFFF80
7FFFFFC0
FFFFFFE0
FFFFFFF0
FFFFFFF0
FFFFFFFC
FFF83FFC
FFF01FFC
FFF00FFE
FFE00FFE
FFE007FE
7FE007FE
7FE007FE
7FE007FE
7FE007FE
3FE00FFE
3FE00FFE
3FF01FFE
3FF81FFC
3FFC7FFC
1FFFFFF8
0FFFFFF0
0FFFFFF0
03FFFFE0
01FFFFC0
00FFFF00
003FF800
0003C000
ENDCHAR
STARTCHAR 0037
ENCODING 55
SWIDTH 420 0
DWIDTH 28 0
BBX 26 44 1 1
BITMAP
05FFFFC0
7FFFFFC0
FFFFFFC0
7FFFFFC0
7FFFFFC0
7FFFFFC0
FFFFFFC0
FFFFFF80
FFFFFF80
FFFFFF80
FFFFFF80
FC03FF80
E001FF80
C001FF80
0003FF80
0007FF80
0007FF80
000FFF00
001FFF00
001FFF00
003FFE00
003FFE00
007FFE00
007FFE00
00FFFC00
00FFFC00
01FFFC00
01FFFC00
03FFF800
03FFF800
07FFF800
0FFFF800
0FFFF000
1FFFF000
1FFFF000
1FFFE000
3FFFE000
3FFFE000
7FFFE000
7FFFE000
7FFFE000
FFFC0000
FF000000
40000000
ENDCHAR
STARTCHAR 0038
ENCODING 56
SWIDTH 495 0
DWIDTH 33 0
BBX 31 47 1 0
BITMAP
0007E000
003FF800
00FFFE00
01FFFE00
03FFFF00
07FFFF00
07FFFF00
07FFFF80
0FF83F80
0FF83F80
0FF83F80
07F87F80
07FCFF00
03FFFE00
01FFFE00
01FFFC00
03FFFE00
07FFFE00
07FFFF00
0FFFFF80
0FFFFFC0
1FFFFFE0
1FFFFFE0
3FFFFFF0
3FF8FFF8
7FF07FF8
7FF01FFC
7FE00FFC
7FE00FFE
FFE007FE
FFE007FE
FFE007FE
FFF007FE
FFF807FE
7FF80FFE
7FFE1FFE
7FFFFFFE
7FFFFFFE
3FFFFFFC
3FFFFFFC
1FFFFFF8
0FFFFFF8
07FFFFF0
01FFFFE0
007FFFC0
001FFF00
0003F800
ENDCHAR
STARTCHAR 0039
ENCODING 57
SWIDTH 465 0
DWIDTH 31 0
BBX 29 44 1 1
BITMAP
007FE000
0FFFFC00
1FFFFF00
3FFFFFC0
3FFFFFE0
3FFFFFE0
7FFFFFE0
7FFFFFF0
7FC0FFF0
7FC03FF0
7FC03FF0
7FC01FF0
FFC01FF8
FFC01FF8
FFC01FF8
FFC03FF8
FFE03FF8
FFF0FFF8
7FFFFFF8
7FFFFFF8
7FFFFFF8
3FFFFFF8
1FFFFFF8
07FFFFF8
01FFFFF8
0000FFF8
00001FF0
00000FF0
00000FF0
00000FF0
00001FF0
20001FF0
3C003FF0
3F007FF0
3F81FFF0
3FFFFFF0
3FFFFFE0
1FFFFFE0
1FFFFFE0
1FFFFFC0
1FFFFFC0
0FFFFF80
03FFFF00
00FFFE00
ENDCHAR
STARTCHAR 003A
ENCODING 58
SWIDTH 210 0
DWIDTH 14 0
BBX 12 33 1 0
BITMAP
0700
3FC0
7FC0
FFE0
FFF0
FFF0
FFF0
FFF0
FFF0
7FE0
7FC0
1F80
0000
0000
0000
0000
0000
0000
0000
0000
0000
0700
1FC0
7FE0
FFF0
FFF0
FFF0
FFF0
FFF0
7FF0
7FF0
3FE0
1FC0
ENDCHAR
STARTCHAR 003B
ENCODING 59
SWIDTH 210 0
DWIDTH 14 0
BBX 15 44 -2 -11
BITMAP
01E0
03F8
07FE
0FFE
0FFE
1FFE
1FFE
1FFE
1FFE
0FFC
07FC
03F8
0000
0000
0000
0000
0000
0000
0000
0000
0000
00E0
07F8
0FFC
0FFC
0FFE
1FFE
1FFE
0FFE
0FFE
0FFE
07FC
03F8
03F0
03F0
1FE0
3FE0
FFE0
FFC0
7FC0
3F80
1F80
0F00
0600
ENDCHAR
STARTCHAR 003C
ENCODING 60
SWIDTH 465 0
DWIDTH 31 0
BBX 30 37 1 5
BITMAP
00000018
00000078
000001F8
000007FC
00001FFC
00003FFC
0000FFFC
0003FFFC
000FFFFC
003FFFFC
00FFFFFC
03FFFFFC
1FFFFFF8
FFFFFFF8
FFFFFFE0
FFFFFC00
FFFF8000
FFFC0000
FFF00000
FFFF0000
FFFFE000
7FFFFC00
3FFFFFC0
0FFFFFF0
07FFFFF8
01FFFFF8
00FFFFF8
007FFFF8
001FFFF8
000FFFF8
0003FFF8
0001FFF8
00007FF8
00001FF8
00000FFC
000003FC
0000007C
ENDCHAR
STARTCHAR 003D
ENCODING 61
SWIDTH 480 0
DWIDTH 32 0
BBX 30 24 1 11
BITMAP
7FFFFFFC
FFFFFFFC
FFFFFFFC
FFFFFFFC
7FFFFFFC
7FFFFFFC
FFFFFFFC
FFFFFFFC
FFFFFE00
00000000
00000000
00000000
00000000
00000000
001FFFFC
FFFFFFFC
FFFFFFFC
FFFFFFFC
FFFFFFFC
FFFFFFFC
FFFFFFFC
FFFFFFFC
FFFFFFFC
07B80000
ENDCHAR
STARTCHAR 003E
ENCODING 62
SWIDTH 465 0
DWIDTH 31 0
BBX 30 37 1 4
BITMAP
C0000000
FC000000
FF800000
FFC00000
7FF00000
7FFC0000
7FFE0000
7FFF8000
7FFFC000
7FFFF000
7FFFF800
7FFFFE00
7FFFFF00
7FFFFF80
1FFFFFE0
03FFFFF0
007FFFFC
0007FFFC
0000FFFC
00007FFC
0003FFFC
003FFFFC
07FFFFFC
7FFFFFFC
FFFFFFF0
FFFFFF80
FFFFFE00
FFFFF800
FFFFE000
FFFF8000
FFFE0000
FFF80000
FFE00000
FF800000
FF000000
7C000000
70000000
ENDCHAR
STARTCHAR 003F
ENCODING 63
SWIDTH 465 0
DWIDTH 31 0
BBX 29 49 1 -1
BITMAP
00FE0000
07FFFC00
0FFFFFC0
1FFFFFE0
3FFFFFE0
3FFFFFF0
7FFFFFF0
7FFFFFF8
7FFFFFF8
FFFFFFF8
FFF1FFF8
FF807FF8
7F003FF8
1C003FF8
00003FF8
00003FF8
00003FF8
00003FF8
00007FF0
0000FFF0
0007FFF0
003FFFE0
007FFFE0
00FFFF80
00FFFF00
01FFFC00
01FFF800
01FFE000
01FFC000
01FFC000
01FFC000
01FF8000
00FF8000
00300000
00000000
00000000
00000000
00000000
003F0000
00FF8000
01FFC000
01FFC000
01FFE000
01FFE000
01FFE000
01FFC000
00FF8000
003F0000
00180000
ENDCHAR
STARTCHAR 0040
ENCODING 64
SWIDTH 660 0
DWIDTH 44 0
BBX 42 58 1 -10
BITMAP
00007FF00000
0003FFFE0000
001FFFFF8000
007FFFFFC000
01FFFFFFF000
03FFFFFFF800
07FFFFFFF800
07FFFFFFFC00
0FFFFFFFFC00
0FFFFFFFFE00
1FFFFFFFFE00
1FFFFFFFFF00
3FFFFFFFFF00
3FFFC00FFF00
3FFF0007FF00
7FFC0007FF80
7FF8000FFF80
7FF800FFFF80
7FF007FFFF80
FFE00FFFFFC0
FFE01FFFFFC0
FFE03FFFFFC0
FFE07FFFFFC0
FFE0FFC1FFC0
FFE0FF80FFC0
FFE0FF00FFC0
FFE0FF00FFC0
FFE1FF007FC0
FFE1FF007FC0
FFE1FF007FC0
FFE1FF00FFC0
FFE1FF01FFC0
FFE1FF83FFC0
FFE0FFCFFF80
FFE0FFFFFF80
FFE07FFFFF00
7FF07FFFFE00
7FF03FFFFC00
7FF01FFFF000
7FF80FFFE000
7FF803FF0000
7FF800300000
3FFC00000000
3FFC00000000
3FFE0000E000
3FFF000FF000
1FFFFFFFF800
1FFFFFFFFC00
1FFFFFFFFE00
0FFFFFFFFE00
0FFFFFFFFC00
07FFFFFFFC00
03FFFFFFF000
03FFFFFFE000
00FFFFFF8000
003FFFFF0000
0007FFFC0000
00003FE00000
ENDCHAR
STARTCHAR 0041
ENCODING 65
SWIDTH 630 0
DWIDTH 42 0
BBX 40 47 1 -2
BITMAP
00000F8000
00003F8000
00003FC000
00007FC000
00007FC000
00007FE000
0000FFE000
0000FFE000
0000FFE000
0001FFE000
0001FFF000
0003FFF000
0003FFF000
0003FFF000
0007FFF800
0007FFF800
0007FFF800
000FFFFC00
000FFFFC00
001FFFFC00
001FFFFE00
003FFFFE00
003FFFFE00
003FFFFE00
007F9FFF00
007F0FFF00
00FE0FFF00
00FE07FF80
01FC07FF80
01FC07FF80
03F83FFFC0
03FFFFFFC0
03FFFFFFE0
07FFFFFFE0
07FFFFFFE0
0FFFFFFFF0
0FFF87FFF0
1FFC07FFF8
1FFC03FFF8
3FF803FFFC
3FF803FFFC
3FF803FFFC
7FF801FFFE
7FF801FFFE
FFF800FFFF
FFE000E000
C000000000
ENDCHAR
STARTCHAR 0042
ENCODING 66
SWIDTH 510 0
DWIDTH 34 0
BBX 33 46 1 0
BITMAP
03F4000000
1FFFE00000
7FFFFC0000
FFFFFE0000
FFFFFF0000
FFFFFF8000
FFFFFF8000
FFFFFFC000
FFFFFFC000
7FFFFFE000
7FFBFFE000
7FF07FE000
7FF03FE000
3FF01FE000
3FF01FE000
3FF81FE000
3FF83FC000
3FF83FC000
3FFC7FC000
3FFFFF8000
1FFFFF0000
1FFFFE0000
1FFFFF8000
1FFFFFF000
1FFFFFF800
1FFFFFF800
1FFFFFFC00
1FFFBFFE00
1FFF07FF00
1FFF03FF00
0FFF03FF00
0FFF07FF80
0FFF07FF80
0FFF0FFF80
0FFF1FFF00
0FFF3FFF00
0FFFFFFF00
0FFFFFFF00
0FFFFFFE00
07FFFFFC00
07FFFFF800
07FFFFF000
07FFFFE000
07FFFF0000
03FFE00000
0020000000
ENDCHAR
STARTCHAR 0043
ENCODING 67
SWIDTH 480 0
DWIDTH 32 0
BBX 31 44 1 1
BITMAP
0003FF00
000FFFC0
007FFFF0
01FFFFF8
03FFFFFC
07FFFFFE
0FFFFFFE
1FFFFFFE
3FFFFFFE
3FFFFFFC
3FFFFFFC
7FFFFFFC
7FFFFC68
7FFFC000
FFFF0000
FFFE0000
FFFC0000
FFFC0000
FFFC0000
FFF80000
FFF80000
FFF80000
FFFC0000
FFFC0000
FFFE0008
FFFF83FC
FFFFFFFC
FFFFFFFC
7FFFFFFC
7FFFFFFC
7FFFFFFC
7FFFFFFC
3FFFFFFC
3FFFFFFC
1FFFFFFC
1FFFFFFC
1FFFFFFC
0FFFFFFC
0FFFFFF0
07FFFFE0
03FFFFE0
03FFFFC0
003FFF00
0003FC00
ENDCHAR
STARTCHAR 0044
ENCODING 68
SWIDTH 450 0
DWIDTH 30 0
BBX 29 46 1 0
BITMAP
07000000
3FFC0000
FFFF0000
FFFFE000
FFFFF800
FFFFFC00
FFFFFE00
FFFFFE00
FFFFFF00
FFFFFF80
FFFFFFC0
FFFFFFC0
FFFFFFE0
FFF8FFE0
FFF83FF0
FFF00FF0
7FF00FF0
7FF00FF8
7FF00FF8
7FF80FF8
7FF80FF8
7FF81FF8
7FF81FF0
7FF83FF0
3FF83FF0
3FF87FE0
3FF8FFE0
3FFDFFC0
3FFFFFC0
3FFFFF80
1FFFFF80
1FFFFF00
1FFFFF00
1FFFFE00
0FFFFE00
0FFFFC00
0FFFF800
0FFFF000
0FFFF000
07FFE000
07FFC000
07FF0000
07FC0000
03F00000
03C00000
03000000
ENDCHAR
STARTCHAR 0045
ENCODING 69
SWIDTH 495 0
DWIDTH 33 0
BBX 31 47 1 0
BITMAP
00700000
07FFFC00
3FFFFF00
7FFFFF00
FFFFFF00
FFFFFF00
7FFFFE00
7FFFFE00
7FFFFE00
3FFFFE00
3FFFFE00
3FFFFE00
3FFFFE00
3FFFFC00
1FFFF800
1FFC0000
1FFC0000
1FFC0000
1FFC0000
1FFE1C00
0FFFFE00
0FFFFC00
0FFFFC00
0FFFFC00
0FFFFE00
07FFFE00
07FFE000
07FF0000
07FF0000
07FF0030
07FFFFF0
07FFFFF8
07FFFFF8
03FFFFF8
03FFFFFC
03FFFFFC
03FFFFFC
03FFFFFC
03FFFFFC
03FFFFFE
03FFFFFE
03FFFFFE
01FFFFF8
01FFFFC0
01FFF800
01FF8000
00D00000
ENDCHAR
STARTCHAR 0046
ENCODING 70
SWIDTH 495 0
DWIDTH 33 0
BBX 32 47 1 0
BITMAP
00003FE0
007FFFFC
1FFFFFFC
7FFFFFFE
FFFFFFFE
FFFFFFFE
FFFFFFFE
FFFFFFFE
FFFFFFFE
FFFFFFFF
FFFFFE16
FFFE0000
FFF80000
FFF80000
FFF80000
FFF00000
FFF00000
FFF04000
FFFBF000
FFFFF000
FFFFF000
FFFFF000
FFFFE000
FFFFF000
FFFFF000
FFFFF000
FFFFF000
FFF82000
FFF00000
FFF00000
FFF00000
FFF00000
FFF00000
FFF00000
FFF00000
FFF00000
FFF00000
FFF00000
7FF00000
7FF00000
7FF80000
7FF80000
7FF80000
7FF80000
7FFC0000
3FF40000
3E000000
ENDCHAR
STARTCHAR 0047
ENCODING 71
SWIDTH 495 0
DWIDTH 33 0
BBX 32 45 1 1
BITMAP
00077800
000FFF80
001FFFC0
003FFFF0
007FFFF8
00FFFFFC
01FFFFFC
01FFFFFC
03FFFFFC
03FFFFFC
07FFEFF8
07FF0140
0FFC0000
0FF80000
0FF00000
1FF00000
1FF00000
1FE00000
3FE00000
3FE0007E
3FE00FFF
3FC07FFE
3FC0FFFE
7FC07FFE
7FC07FFE
7FC07FFE
7FE03FFE
7FE03FFE
FFE03FFE
FFE03FFE
FFF03FFE
FFFCFFFE
FFFFFFFE
FFFFFFFE
FFFFFFFE
FFFFFFFE
FFFFFFFE
7FFFFFF8
7FFFFFF0
3FFFFFC0
1FFFFF80
0FFFFE00
07FFF800
03FFE000
01FE0000
ENDCHAR
STARTCHAR 0048
ENCODING 72
SWIDTH 555 0
DWIDTH 37 0
BBX 35 44 1 1
BITMAP
003FC00000
07FFE00060
0FFFC07FE0
0FFFC0FFE0
0FFF80FFE0
0FFFC0FFE0
07FFC0FFE0
07FFC1FFE0
07FFC0FFE0
0FFFC1FFE0
0FFF81FFE0
0FFF81FFE0
0FFFC1FFE0
0FFFC1FFE0
0FFFC1FFE0
0FFFC1FFE0
0FFFC3FFE0
0FFFFFFFC0
1FFFFFFFC0
1FFFFFFFC0
1FFFFFFFC0
1FFFFFFFC0
1FFFFFFFC0
1FFFFFFFC0
1FFFFFFFE0
1FFFFFFFE0
1FFFFFFFE0
1FFFFFFFE0
3FFFFFFFE0
3FFFBFFFE0
3FFF07FFE0
3FFF07FFC0
3FFF07FFC0
3FFF07FFC0
3FFF07FFC0
3FFF07FFC0
3FFF07FFC0
3FFF07FFC0
3FFF07FFC0
7FFF07FFC0
7FFF07FFC0
7FFF07FF80
FFFE07F800
4FFE0F8000
ENDCHAR
STARTCHAR 0049
ENCODING 73
SWIDTH 330 0
DWIDTH 22 0
BBX 20 45 1 0
BITMAP
03FF80
07FFF0
07FFF0
07FFF0
03FFE0
07FFE0
07FFE0
07FFE0
07FFE0
07FFE0
0FFFC0
0FFFC0
0FFFC0
0FFFC0
0FFFC0
0FFFC0
0FFFC0
0FFFC0
0FFFC0
0FFFC0
1FFFC0
1FFFC0
1FFFC0
1FFFC0
1FFFC0
1FFFC0
1FFFC0
1FFFC0
1FFFC0
1FFFC0
1FFFC0
1FFFC0
1FFFC0
1FFFC0
1FFFC0
1FFFC0
1FFFC0
1FFF80
3FFF80
3FFF80
3FFF80
3FFF80
7FFF00
7FF000
FE0000
ENDCHAR
STARTCHAR 004A
ENCODING 74
SWIDTH 450 0
DWIDTH 30 0
BBX 29 45 1 0
BITMAP
0003F9E0
0007FFE0
0007FFE0
0007FFF0
0007FFF0
000FFFF0
000FFFF0
000FFFF0
000FFFF0
000FFFF0
001FFFF0
001FFFF0
001FFFF0
001FFFF0
001FFFF0
001FFFF0
001FFFF0
001FFFF0
001FFFF8
001FFFF8
001FFFF8
000FFFF8
000FFFF8
000FFFF8
0007FFF8
0007FFF8
0007FFF0
0003FFF0
0003FFF0
0003FFF0
1FC3FFF0
FFC3FFF0
FFE1FFF0
FFF3FFE0
FFF3FFE0
FFF9FFC0
FFFFFFC0
7FFFFFC0
7FFFFF80
3FFFFF00
1FFFFE00
0FFFFC00
07FFF800
01FFF000
003FC000
ENDCHAR
STARTCHAR 004B
ENCODING 75
SWIDTH 555 0
DWIDTH 37 0
BBX 35 46 1 0
BITMAP
0000003800
FFFFC07800
FFFFC0FC00
7FFFC1FE00
7FFFC1FFE0
7FFFC3FFE0
7FFFC7FFC0
7FFFC7FF80
7FFFCFFF80
7FFFCFFF00
7FFFDFFE00
7FFFDFFC00
7FFFDFFC00
7FFFFFF800
7FFFFFF000
7FFFFFE000
7FFFFFE000
7FFFFFC000
7FFFFFC000
7FFFFF8000
7FFFFF8000
FFFFFF0000
FFFFFF0000
FFFFFE0000
FFFFFC0000
FFFFFE0000
FFFFFF0000
FFFFFF8000
FFFFFFC000
FFFFFFE000
FFFFFFF000
FFFFFFF800
FFFFFFF800
FFFFFFFC00
FFFFDFFE00
FFFF8FFF00
FFFF8FFF00
FFFF87FF80
FFFF83FF80
FFFF83FFC0
FFFF81FFC0
FFFFC0FFE0
FFFFC0FFE0
FFFFC07C20
FFFF807800
001C007000
ENDCHAR
STARTCHAR 004C
ENCODING 76
SWIDTH 510 0
DWIDTH 34 0
BBX 32 47 1 -1
BITMAP
00002000
003FFE00
01FFFE00
03FFFE00
03FFFE00
03FFFE00
07FFFE00
07FFFC00
07FFFC00
07FFFC00
07FFFC00
07FFFC00
07FFFC00
07FFFC00
07FFF800
07FFF800
07FFF800
07FFF800
07FFF800
0FFFF000
0FFFF000
0FFFF000
0FFFF000
0FFFF000
1FFFF000
1FFFE000
1FFFE000
1FFFE000
1FFFE000
1FFFE000
3FFFE000
3FFFE000
3FFFFFFE
3FFFFFFE
3FFFFFFE
3FFFFFFE
3FFFFFFE
3FFFFFFE
3FFFFFFE
3FFFFFFE
3FFFFFFE
3FFFFFFF
3FFFFFFF
3FFFFFFE
3FFFFFE0
7FF80000
F8000000
ENDCHAR
STARTCHAR 004D
ENCODING 77
SWIDTH 645 0
DWIDTH 43 0
BBX 41 47 1 -1
BITMAP
018000000000
03C000006000
03C00001F000
03E00003F000
03F00007F000
03F00007F000
03F8000FF000
03FC000FF800
03FC001FF800
07FE001FF800
07FF003FF800
07FF003FF800
07FF807FF800
07FFC07FFC00
0FFFC0FFFC00
0FFFE0FFFC00
0FFFE1FFFC00
0FFFF3FFFC00
0FFFF3FFFE00
0FFFFFFFFE00
0FFFFFFFFC00
0FFFFFFFFC00
1FFFFFFFFE00
1FFFFFFFFE00
1FFFFFFFFE00
1FFFFFFFFE00
1FFFDFBFFE00
1FFF9FFFFE00
1FFF8F7FFE00
3FFF077FFE00
3FFF007FFE00
3FFE007FFF00
3FFE007FFF00
3FFE007FFF00
3FFC007FFF00
7FFC007FFF00
7FFC007FFF00
7FF8007FFF00
7FF800FFFF80
7FF8007FFF80
7FF8007FFF80
FFF0007FFF80
FFF0007FFF80
FFF0007FFF80
FFE00067F000
FDE000000000
800000000000
ENDCHAR
STARTCHAR 004E
ENCODING 78
SWIDTH 555 0
DWIDTH 37 0
BBX 36 44 1 1
BITMAP
0000000400
03FE003FC0
0FFFC1FFE0
0FFFC1FFF0
0FFFC1FFF0
0FFFC1FFF0
0FFF81FFE0
0FFFC1FFE0
1FFFC1FFE0
1FFFC1FFE0
1FFFC1FFE0
1FFFC1FFE0
1FFFE3FFE0
1FFFE3FFE0
1FFFE3FFE0
3FFFE3FFC0
3FFFF3FFC0
3FFFF3FFC0
3FFFF3FFC0
3FFFFBFFC0
3FFFFBFFC0
3FFFFBFFC0
3FFFFBFFC0
3FFFFFFFC0
3FFFFFFFC0
3FFFFFFF80
7FFFFFFF80
7FFFFFFF80
7FFCFFFF80
7FFCFFFF80
7FFC7FFF80
7FFC7FFF80
7FFC7FFF80
7FFC3FFF80
7FFC3FFF80
7FFC3FFF80
7FFC1FFF80
7FFC1FFF80
7FFC1FFF80
7FFC1FFF80
FFFC1FFF80
FFFC1FFF80
FFFC1FFF00
FFE007FC00
ENDCHAR
STARTCHAR 004F
ENCODING 79
SWIDTH 525 0
DWIDTH 35 0
BBX 34 47 1 0
BITMAP
0018000000
003F000000
007FC00000
00FFF00000
01FFF80000
01FFFE0000
03FFFF8000
03FFFFC000
07FFFFE000
07FFFFE000
0FFFFFF000
0FFFFFF800
1FFFFFF800
1FFFFFFC00
1FFFFFFC00
3FFFFFFE00
3FFFFFFE00
7FFFFFFF00
7FFC1FFF00
7FFC0FFF80
7FF807FF80
FFF807FF80
FFF807FF80
FFF007FF80
FFF007FFC0
FFF007FFC0
FFF807FFC0
FFFC0FFFC0
FFFC0FFFC0
7FFF1FFFC0
7FFFFFFF80
7FFFFFFF80
7FFFFFFF80
3FFFFFFF80
3FFFFFFF80
3FFFFFFF00
1FFFFFFF00
1FFFFFFF00
1FFFFFFF00
0FFFFFFE00
0FFFFFFE00
07FFFFFC00
03FFFFFC00
01FFFFF800
007FFFE000
001FFFC000
0007FF0000
ENDCHAR
STARTCHAR 0050
ENCODING 80
SWIDTH 495 0
DWIDTH 33 0
BBX 31 46 1 0
BITMAP
00070000
03FFE000
1FFFFE00
3FFFFF80
1FFFFFC0
3FFFFFE0
3FFFFFE0
1FFFFFF0
3FFFFFF8
3FFFFFF8
3FFDFFF8
3FF80FFC
3FFC07FC
3FFC03FC
3FFC03FC
3FFC03FC
3FFE07FE
3FFE07FE
3FFE07FE
3FFE0FFC
3FFF1FFE
3FFFFFFE
7FFFFFFE
7FFFFFFC
7FFFFFF8
7FFFFFF0
7FFFFFE0
7FFFFF80
7FFF8000
7FFF8000
7FFF8000
7FFF0000
FFFF8000
FFFF8000
FFFF8000
FFFF8000
FFFF8000
FFFF8000
FFFF8000
FFFF8000
FFFF8000
FFFF8000
FFFF8000
FFFF8000
FFFF8000
7FFF8000
ENDCHAR
STARTCHAR 0051
ENCODING 81
SWIDTH 615 0
DWIDTH 41 0
BBX 39 49 1 -3
BITMAP
001FF00000
00FFF80000
01FFFE0000
03FFFF0000
03FFFF8000
07FFFFC000
0FFFFFE000
0FFFFFF000
1FFFFFF800
1FFFFFFC00
1FFFFFFC00
3FFFFFFE00
3FFC7FFE00
3FF81FFF00
3FF80FFF00
7FF00FFF00
7FF007FF00
7FF003FF80
7FF003FF80
7FF801FF80
7FF801FF80
FFF801FF80
FFF801FF80
FFF801FF80
FFF803FF80
FFFC03FF80
FFFF07FF80
FFFFFFFF80
FFFFFFFF00
FFFFFFFF00
7FFFFFFF00
7FFFFFFF00
7FFFFFFE00
7FFFFFFE00
7FFFFFFE00
3FFFFFFE00
3FFFFFFF00
1FFFFFFF80
0FFFFFFFC0
07FFFFFFE0
03FFFFFFE0
01FFFFFFF0
00FFFFFFF8
003FFFFFFC
0007E3FFFE
000001FFFE
000000FFFE
000000FFE0
0000006000
ENDCHAR
STARTCHAR 0052
ENCODING 82
SWIDTH 585 0
DWIDTH 39 0
BBX 37 47 1 -1
BITMAP
0007C00000
007FF80000
1FFFFE0000
7FFFFF8000
FFFFFFE000
FFFFFFF000
FFFFFFF800
FFFFFFFC00
FFFE07FC00
FFFE01FE00
FFFF00FE00
FFFF00FE00
7FFF00FE00
7FFF00FF00
7FFF00FF00
7FFF00FF00
7FFF01FE00
7FFF83FE00
7FFFC7FE00
7FFFDFFE00
7FFFFFFC00
7FFFFFFC00
7FFFFFF800
7FFFFFE000
7FFFFF8000
3FFFFFC000
3FFFFFE000
3FFFFFE000
3FFFFFF000
3FFFFFF000
3FFFDFF800
3FFFDFFC00
3FFFCFFC00
3FFFCFFE00
3FFFC7FF00
3FFFC3FF00
3FFFC3FF80
3FFFC1FF80
3FFFE1FFC0
1FFFE0FFE0
1FFFE0FFE0
1FFFE0FFF0
1FFFE07FF0
1FFFE07FF8
0FFFE03FF0
0FFFE03F80
07FF800000
ENDCHAR
STARTCHAR 0053
ENCODING 83
SWIDTH 495 0
DWIDTH 33 0
BBX 31 47 1 -1
BITMAP
0007FF80
003FFFFE
00FFFFFE
03FFFFFE
03FFFFFE
07FFFFFC
07FFFFFC
07FFFFF8
0FFFFFF8
0FFFFFF0
1FFFFFF0
1FFFFFE0
1FFFFFE0
3FFFFFC0
3FFFFFC0
3FFFFFC0
3FFFFF80
3FFC0780
1FFC0180
1FFF0000
1FFF8000
0FFFF000
0FFFFC00
07FFFF00
03FFFFE0
03FFFFF0
007FFFF0
0007FFF8
0001FFF8
00007FF8
00001FF8
00003FFC
38003FFC
7C007FFC
7F3FFFFC
FFFFFFFC
FFFFFFFC
FFFFFFFC
FFFFFFF8
FFFFFFF8
7FFFFFF8
3FFFFFF0
1FFFFF80
0FFFFF00
07FFFE00
00FFF000
000F0000
ENDCHAR
STARTCHAR 0054
ENCODING 84
SWIDTH 570 0
DWIDTH 38 0
BBX 36 45 1 0
BITMAP
01FFFFFF00
7FFFFFFFC0
FFFFFFFFE0
7FFFFFFFE0
7FFFFFFFE0
7FFFFFFFF0
7FFFFFFFF0
7FFFFFFFF0
7FFFFFFFF0
FFFFFFFFF0
FFFFFFFFF0
FFFFFFFFF0
FFFFFFFE60
FFFBFFE000
FF83FFC000
7803FF8000
0003FF0000
0003FF0000
0003FF0000
0003FF0000
0003FF0000
0003FF0000
0003FF0000
0003FF0000
0003FE0000
0003FF0000
0003FF0000
0003FF0000
0003FF0000
0003FF0000
0003FF0000
0003FF0000
0003FF0000
0003FE0000
0003FE0000
0003FE0000
0003FF0000
0003FF0000
0003FF0000
0003FF0000
0007FE0000
0007FE0000
0003FE0000
0003FE0000
0003FE0000
ENDCHAR
STARTCHAR 0055
ENCODING 85
SWIDTH 540 0
DWIDTH 36 0
BBX 35 45 1 1
BITMAP
0600000000
0FF800FF80
0FFC00FFC0
0FFC01FFC0
0FFC01FFC0
1FF800FFC0
1FF800FFC0
1FF800FFC0
1FF800FFC0
3FF800FFC0
3FF800FFC0
3FF800FFC0
3FF800FFC0
3FF000FFC0
7FF001FFC0
7FF001FFC0
7FF001FFC0
7FF001FFC0
7FF001FFC0
FFF001FFC0
FFF801FFC0
FFF803FFE0
FFF803FFE0
FFFC03FFE0
FFFE03FFC0
FFFF07FFC0
FFFFC7FFC0
7FFFFFFF80
7FFFFFFF80
7FFFFFFF80
7FFFFFFF00
7FFFFFFF00
7FFFFFFF00
3FFFFFFE00
3FFFFFFE00
1FFFFFFE00
1FFFFFFC00
0FFFFFF800
0FFFFFF000
07FFFFE000
07FFFFE000
03FFFFC000
00FFFF8000
003FFF0000
0007F00000
ENDCHAR
STARTCHAR 0056
ENCODING 86
SWIDTH 585 0
DWIDTH 39 0
BBX 38 42 1 2
BITMAP
6000000FF8
FE0000FFFC
FFE001FFFC
7FFF00FFF8
3FFF80FFF8
3FFFC0FFF8
1FFFC0FFF8
1FFFC0FFF8
1FFFC0FFF8
0FFFC1FFF8
0FFFE1FFF0
0FFFE1FFF0
07FFE1FFF0
07FFE1FFF0
07FFF1FFE0
03FFF1FFE0
03FFF1FFE0
01FFF1FFE0
01FFF1FFC0
00FFFBFFC0
00FFFBFFC0
007FFBFFC0
007FFFFF80
003FFFFF80
001FFFFF80
001FFFFF80
000FFFFF00
000FFFFF00
0007FFFF00
0003FFFF00
0003FFFF00
0001FFFE00
0000FFFE00
0000FFFE00
00007FFE00
00003FFE00
00003FFC00
00001FFC00
00000FFC00
00000FFC00
000007FC00
000003F800
ENDCHAR
STARTCHAR 0057
ENCODING 87
SWIDTH 720 0
DWIDTH 48 0
BBX 46 46 1 0
BITMAP
000000000C00
3F8000000F1C
7FF000001FFC
FFF803C01FFC
FFF803C03FFC
FFF807E03FF8
FFFC07E03FF8
FFFC07E07FF8
FFFC07F07FF0
7FFE07F07FF0
7FFE07F0FFF0
7FFF07F0FFF0
7FFF07F0FFE0
3FFF07F9FFE0
3FFF87F9FFE0
3FFF8FFDFFE0
1FFFCFFFFFE0
1FFFCFFFFFE0
0FFFEFFFFFE0
0FFFFFFFFFE0
07FFFFFFFFC0
07FFFFFFFFC0
07FFFFFFFFC0
03FFFFFFFFC0
03FFFFFFFFC0
01FFFFFFFF80
01FFFFFFFF80
00FFFFBFFF80
00FFFFBFFF80
007FFFBFFF80
007FFF1FFF00
003FFF1FFF00
003FFF1FFF00
001FFE0FFF00
001FFE0FFF00
000FFC0FFF00
000FFC0FFF00
0007FC07FF00
0007FC07FE00
0003F807FE00
0003F803FE00
0001F803FE00
0000F003FC00
0000F0018000
000070000000
000020000000
ENDCHAR
STARTCHAR 0058
ENCODING 88
SWIDTH 570 0
DWIDTH 38 0
BBX 37 44 1 1
BITMAP
0000003FF0
33E0007FF0
3FF8007FF8
7FF000FFF8
FFF800FFF0
FFFC01FFE0
FFFC01FFE0
FFFE03FFC0
FFFE03FFC0
7FFF07FF80
7FFF07FF80
3FFF8FFF80
3FFF8FFF00
1FFFCFFF00
1FFFDFFE00
0FFFFFFE00
07FFFFFE00
03FFFFFC00
01FFFFFC00
00FFFFF800
007FFFF800
007FFFF000
003FFFF000
003FFFE000
001FFFE000
001FFFE000
003FFFF000
007FFFF000
00FFFFF000
00FFFFF800
01FFFFF800
01FFFFF800
03FFFFFC00
03FF9FFC00
07FF8FFE00
07FF8FFE00
07FF87FE00
0FFF83FF00
0FFF83FF00
1FFF01FF80
1FFF00FF00
1FFF007000
1FFE000000
1F88000000
ENDCHAR
STARTCHAR 0059
ENCODING 89
SWIDTH 600 0
DWIDTH 40 0
BBX 39 46 1 0
BITMAP
000000011E
0000000FFE
00C0001FFC
0BE0001FFC
7FF0001FF8
FFF8003FF8
FFF8003FF8
7FFC007FF0
7FFC007FF0
3FFE00FFE0
3FFE00FFE0
3FFF01FFC0
1FFF01FFC0
0FFF03FF80
0FFF83FF80
07FF87FF00
07FFC7FF00
03FFCFFE00
03FFCFFE00
01FFFFFC00
01FFFFFC00
00FFFFF800
00FFFFF800
007FFFF000
007FFFF000
003FFFE000
003FFFE000
001FFFE000
001FFFC000
000FFFC000
000FFF8000
0007FF0000
0003FF0000
0003FF8000
0003FF8000
0003FF8000
0003FF8000
0003FF8000
0003FF8000
0003FF8000
0003FF8000
0003FFC000
0003FFC000
0001FFC000
0001FF8000
0001FE0000
ENDCHAR
STARTCHAR 005A
ENCODING 90
SWIDTH 600 0
DWIDTH 40 0
BBX 38 46 1 0
BITMAP
0003FF8000
003FFFFF00
03FFFFFF00
0FFFFFFE00
1FFFFFFE00
3FFFFFFC00
7FFFFFF800
7FFFFFF800
7FFFFFF000
FFFFFFE000
FFFFFFE000
FFFFFFC000
FF00FFC000
0001FF8000
0001FF8000
0001FF8000
0003FF0000
0003FF0000
0003FF0000
0007FE0000
0007FE0000
0007FE0000
000FFC0000
000FFC0000
001FFC0000
001FFC0000
001FF80000
003FF80000
003FF80000
003FF80000
007FF80000
007FF00000
007FE00000
00FFC03F78
00FFDFFFFC
00FFFFFFFC
01FFFFFFFC
01FFFFFFFC
01FFFFFFFC
03FFFFFFF8
03FFFFFFF0
03FFFFFFE0
0007FFFFC0
0001FFFF80
00003FFE00
000000C000
ENDCHAR
STARTCHAR 005B
ENCODING 91
SWIDTH 345 0
DWIDTH 23 0
BBX 22 64 1 -10
BITMAP
003FF8
FFFFF8
FFFFF8
FFFFF8
FFFFF8
FFFFFC
FFFFFC
FFFFFC
FFFFF8
FFE000
FFC000
7FC000
7FC000
7FC000
7FC000
7FC000
FFC000
FFC000
FFC000
FFC000
FFC000
FFC000
FFC000
FFC000
FFC000
FFC000
FFC000
FFE000
FFC000
FFC000
FFC000
FFC000
FFC000
FFC000
FFC000
FFC000
FFC000
FFC000
FFC000
FFC000
FFC000
FFE000
FFC000
FFC000
FFC000
FFC000
FFC000
FFC000
FFC000
FFC000
FFC000
FFC000
FFC000
FFC000
FFFFF8
FFFFF8
FFFFF8
FFFFF8
FFFFF8
FFFFF8
FFFFF8
FFFFF8
FFFFF8
3F8000
ENDCHAR
STARTCHAR 005C
ENCODING 92
SWIDTH 450 0
DWIDTH 30 0
BBX 28 54 1 -4
BITMAP
61E00000
FFF00000
FFF00000
FFF80000
FFF80000
7FF80000
7FFC0000
7FFC0000
7FFC0000
3FFE0000
3FFE0000
3FFE0000
1FFE0000
1FFF0000
1FFF0000
0FFF0000
0FFF8000
07FF8000
07FF8000
07FF8000
03FFC000
03FFC000
03FFC000
01FFE000
01FFE000
00FFE000
00FFF000
007FF000
007FF000
007FF800
003FF800
003FF800
001FFC00
001FFC00
000FFC00
000FFE00
000FFE00
0007FE00
0007FF00
0003FF00
0003FF00
0003FF80
0001FF80
0001FF80
0000FFC0
0000FFC0
00007FE0
00007FE0
00003FE0
00003FF0
00001FF0
00001FF0
00000E10
00000400
ENDCHAR
STARTCHAR 005D
ENCODING 93
SWIDTH 345 0
DWIDTH 23 0
BBX 22 64 1 -10
BITMAP
047FF8
FFFFF8
FFFFFC
FFFFFC
FFFFFC
FFFFFC
FFFFFC
FFFFFC
FFFFF8
3E1FF8
001FF8
001FFC
001FFC
001FFC
001FF8
001FF8
001FF8
001FF8
001FF8
001FF8
001FF8
001FF8
001FF8
001FF8
001FF8
000FF8
000FF8
001FF8
001FF8
001FF8
001FF8
001FF8
001FF8
001FF8
001FF8
001FF8
001FF8
000FF8
001FF8
001FF8
001FF8
001FF8
001FF8
001FF8
001FF8
001FF8
001FF8
001FF8
001FF8
001FF8
001FF8
001FF8
001FF8
000FF8
01FFF8
FFFFF8
FFFFF8
FFFFF8
FFFFF8
FFFFF8
FFFFF8
FFFFF8
FFFFF8
0D8000
ENDCHAR
STARTCHAR 005E
ENCODING 94
SWIDTH 495 0
DWIDTH 33 0
BBX 31 28 1 21
BITMAP
0000C000
0007F000
000FF000
000FF800
001FF800
003FF800
003FFC00
007FFC00
00FFFE00
00FFFE00
01FFFF00
01FFFF00
03FEFF80
07FE7F80
07FE7FC0
0FFE7FC0
0FFC7FC0
1FFC3FE0
1FFC3FE0
3FF83FF0
3FF83FF0
7FF83FF8
7FF83FF8
7FF01FFC
FFF01FFC
FFF01FFE
FFE01FFE
000003E0
ENDCHAR
STARTCHAR 005F
ENCODING 95
SWIDTH 390 0
DWIDTH 26 0
BBX 24 8 1 -8
BITMAP
FFFFFF
FFFFFF
FFFFFF
FFFFFF
FFFFFF
FFFFFF
FFFFFF
FFFFFF
ENDCHAR
STARTCHAR 0060
ENCODING 96
SWIDTH 225 0
DWIDTH 15 0
BBX 13 11 1 47
BITMAP
7F00
FF80
FFC0
7FC0
3FE0
1FF0
0FF0
07F8
03F8
01F8
01E0
ENDCHAR
STARTCHAR 0061
ENCODING 97
SWIDTH 630 0
DWIDTH 42 0
BBX 40 47 1 -2
BITMAP
00000F8000
00003F8000
00003FC000
00007FC000
00007FC000
00007FE000
0000FFE000
0000FFE000
0000FFE000
0001FFE000
0001FFF000
0003FFF000
0003FFF000
0003FFF000
0007FFF800
0007FFF800
0007FFF800
000FFFFC00
000FFFFC00
001FFFFC00
001FFFFE00
003FFFFE00
003FFFFE00
003FFFFE00
007F9FFF00
007F0FFF00
00FE0FFF00
00FE07FF80
01FC07FF80
01FC07FF80
03F83FFFC0
03FFFFFFC0
03FFFFFFE0
07FFFFFFE0
07FFFFFFE0
0FFFFFFFF0
0FFF87FFF0
1FFC07FFF8
1FFC03FFF8
3FF803FFFC
3FF803FFFC
3FF803FFFC
7FF801FFFE
7FF801FFFE
FFF800FFFF
FFE000E000
C000000000
ENDCHAR
STARTCHAR 0062
ENCODING 98
SWIDTH 510 0
DWIDTH 34 0
BBX 33 46 1 0
BITMAP
03F4000000
1FFFE00000
7FFFFC0000
FFFFFE0000
FFFFFF0000
FFFFFF8000
FFFFFF8000
FFFFFFC000
FFFFFFC000
7FFFFFE000
7FFBFFE000
7FF07FE000
7FF03FE000
3FF01FE000
3FF01FE000
3FF81FE000
3FF83FC000
3FF83FC000
3FFC7FC000
3FFFFF8000
1FFFFF0000
1FFFFE0000
1FFFFF8000
1FFFFFF000
1FFFFFF800
1FFFFFF800
1FFFFFFC00
1FFFBFFE00
1FFF07FF00
1FFF03FF00
0FFF03FF00
0FFF07FF80
0FFF07FF80
0FFF0FFF80
0FFF1FFF00
0FFF3FFF00
0FFFFFFF00
0FFFFFFF00
0FFFFFFE00
07FFFFFC00
07FFFFF800
07FFFFF000
07FFFFE000
07FFFF0000
03FFE00000
0020000000
ENDCHAR
STARTCHAR 0063
ENCODING 99
SWIDTH 480 0
DWIDTH 32 0
BBX 31 44 1 1
BITMAP
0003FF00
000FFFC0
007FFFF0
01FFFFF8
03FFFFFC
07FFFFFE
0FFFFFFE
1FFFFFFE
3FFFFFFE
3FFFFFFC
3FFFFFFC
7FFFFFFC
7FFFFC68
7FFFC000
FFFF0000
FFFE0000
FFFC0000
FFFC0000
FFFC0000
FFF80000
FFF80000
FFF80000
FFFC0000
FFFC0000
FFFE0008
FFFF83FC
FFFFFFFC
FFFFFFFC
7FFFFFFC
7FFFFFFC
7FFFFFFC
7FFFFFFC
3FFFFFFC
3FFFFFFC
1FFFFFFC
1FFFFFFC
1FFFFFFC
0FFFFFFC
0FFFFFF0
07FFFFE0
03FFFFE0
03FFFFC0
003FFF00
0003FC00
ENDCHAR
STARTCHAR 0064
ENCODING 100
SWIDTH 450 0
DWIDTH 30 0
BBX 29 46 1 0
BITMAP
07000000
3FFC0000
FFFF0000
FFFFE000
FFFFF800
FFFFFC00
FFFFFE00
FFFFFE00
FFFFFF00
FFFFFF80
FFFFFFC0
FFFFFFC0
FFFFFFE0
FFF8FFE0
FFF83FF0
FFF00FF0
7FF00FF0
7FF00FF8
7FF00FF8
7FF80FF8
7FF80FF8
7FF81FF8
7FF81FF0
7FF83FF0
3FF83FF0
3FF87FE0
3FF8FFE0
3FFDFFC0
3FFFFFC0
3FFFFF80
1FFFFF80
1FFFFF00
1FFFFF00
1FFFFE00
0FFFFE00
0FFFFC00
0FFFF800
0FFFF000
0FFFF000
07FFE000
07FFC000
07FF0000
07FC0000
03F00000
03C00000
03000000
ENDCHAR
STARTCHAR 0065
ENCODING 101
SWIDTH 495 0
DWIDTH 33 0
BBX 31 47 1 0
BITMAP
00700000
07FFFC00
3FFFFF00
7FFFFF00
FFFFFF00
FFFFFF00
7FFFFE00
7FFFFE00
7FFFFE00
3FFFFE00
3FFFFE00
3FFFFE00
3FFFFE00
3FFFFC00
1FFFF800
1FFC0000
1FFC0000
1FFC0000
1FFC0000
1FFE1C00
0FFFFE00
0FFFFC00
0FFFFC00
0FFFFC00
0FFFFE00
07FFFE00
07FFE000
07FF0000
07FF0000
07FF0030
07FFFFF0
07FFFFF8
07FFFFF8
03FFFFF8
03FFFFFC
03FFFFFC
03FFFFFC
03FFFFFC
03FFFFFC
03FFFFFE
03FFFFFE
03FFFFFE
01FFFFF8
01FFFFC0
01FFF800
01FF8000
00D00000
ENDCHAR
STARTCHAR 0066
ENCODING 102
SWIDTH 495 0
DWIDTH 33 0
BBX 32 47 1 0
BITMAP
00003FE0
007FFFFC
1FFFFFFC
7FFFFFFE
FFFFFFFE
FFFFFFFE
FFFFFFFE
FFFFFFFE
FFFFFFFE
FFFFFFFF
FFFFFE16
FFFE0000
FFF80000
FFF80000
FFF80000
FFF00000
FFF00000
FFF04000
FFFBF000
FFFFF000
FFFFF000
FFFFF000
FFFFE000
FFFFF000
FFFFF000
FFFFF000
FFFFF000
FFF82000
FFF00000
FFF00000
FFF00000
FFF00000
FFF00000
FFF00000
FFF00000
FFF00000
FFF00000
FFF00000
7FF00000
7FF00000
7FF80000
7FF80000
7FF80000
7FF80000
7FFC0000
3FF40000
3E000000
ENDCHAR
STARTCHAR 0067
ENCODING 103
SWIDTH 495 0
DWIDTH 33 0
BBX 32 45 1 1
BITMAP
00077800
000FFF80
001FFFC0
003FFFF0
007FFFF8
00FFFFFC
01FFFFFC
01FFFFFC
03FFFFFC
03FFFFFC
07FFEFF8
07FF0140
0FFC0000
0FF80000
0FF00000
1FF00000
1FF00000
1FE00000
3FE00000
3FE0007E
3FE00FFF
3FC07FFE
3FC0FFFE
7FC07FFE
7FC07FFE
7FC07FFE
7FE03FFE
7FE03FFE
FFE03FFE
FFE03FFE
FFF03FFE
FFFCFFFE
FFFFFFFE
FFFFFFFE
FFFFFFFE
FFFFFFFE
FFFFFFFE
7FFFFFF8
7FFFFFF0
3FFFFFC0
1FFFFF80
0FFFFE00
07FFF800
03FFE000
01FE0000
ENDCHAR
STARTCHAR 0068
ENCODING 104
SWIDTH 555 0
DWIDTH 37 0
BBX 35 44 1 1
BITMAP
003FC00000
07FFE00060
0FFFC07FE0
0FFFC0FFE0
0FFF80FFE0
0FFFC0FFE0
07FFC0FFE0
07FFC1FFE0
07FFC0FFE0
0FFFC1FFE0
0FFF81FFE0
0FFF81FFE0
0FFFC1FFE0
0FFFC1FFE0
0FFFC1FFE0
0FFFC1FFE0
0FFFC3FFE0
0FFFFFFFC0
1FFFFFFFC0
1FFFFFFFC0
1FFFFFFFC0
1FFFFFFFC0
1FFFFFFFC0
1FFFFFFFC0
1FFFFFFFE0
1FFFFFFFE0
1FFFFFFFE0
1FFFFFFFE0
3FFFFFFFE0
3FFFBFFFE0
3FFF07FFE0
3FFF07FFC0
3FFF07FFC0
3FFF07FFC0
3FFF07FFC0
3FFF07FFC0
3FFF07FFC0
3FFF07FFC0
3FFF07FFC0
7FFF07FFC0
7FFF07FFC0
7FFF07FF80
FFFE07F800
4FFE0F8000
ENDCHAR
STARTCHAR 0069
ENCODING 105
SWIDTH 330 0
DWIDTH 22 0
BBX 20 45 1 0
BITMAP
03FF80
07FFF0
07FFF0
07FFF0
03FFE0
07FFE0
07FFE0
07FFE0
07FFE0
07FFE0
0FFFC0
0FFFC0
0FFFC0
0FFFC0
0FFFC0
0FFFC0
0FFFC0
0FFFC0
0FFFC0
0FFFC0
1FFFC0
1FFFC0
1FFFC0
1FFFC0
1FFFC0
1FFFC0
1FFFC0
1FFFC0
1FFFC0
1FFFC0
1FFFC0
1FFFC0
1FFFC0
1FFFC0
1FFFC0
1FFFC0
1FFFC0
1FFF80
3FFF80
3FFF80
3FFF80
3FFF80
7FFF00
7FF000
FE0000
ENDCHAR
STARTCHAR 006A
ENCODING 106
SWIDTH 450 0
DWIDTH 30 0
BBX 29 45 1 0
BITMAP
0003F9E0
0007FFE0
0007FFE0
0007FFF0
0007FFF0
000FFFF0
000FFFF0
000FFFF0
000FFFF0
000FFFF0
001FFFF0
001FFFF0
001FFFF0
001FFFF0
001FFFF0
001FFFF0
001FFFF0
001FFFF0
001FFFF8
001FFFF8
001FFFF8
000FFFF8
000FFFF8
000FFFF8
0007FFF8
0007FFF8
0007FFF0
0003FFF0
0003FFF0
0003FFF0
1FC3FFF0
FFC3FFF0
FFE1FFF0
FFF3FFE0
FFF3FFE0
FFF9FFC0
FFFFFFC0
7FFFFFC0
7FFFFF80
3FFFFF00
1FFFFE00
0FFFFC00
07FFF800
01FFF000
003FC000
ENDCHAR
STARTCHAR 006B
ENCODING 107
SWIDTH 555 0
DWIDTH 37 0
BBX 35 46 1 0
BITMAP
0000003800
FFFFC07800
FFFFC0FC00
7FFFC1FE00
7FFFC1FFE0
7FFFC3FFE0
7FFFC7FFC0
7FFFC7FF80
7FFFCFFF80
7FFFCFFF00
7FFFDFFE00
7FFFDFFC00
7FFFDFFC00
7FFFFFF800
7FFFFFF000
7FFFFFE000
7FFFFFE000
7FFFFFC000
7FFFFFC000
7FFFFF8000
7FFFFF8000
FFFFFF0000
FFFFFF0000
FFFFFE0000
FFFFFC0000
FFFFFE0000
FFFFFF0000
FFFFFF8000
FFFFFFC000
FFFFFFE000
FFFFFFF000
FFFFFFF800
FFFFFFF800
FFFFFFFC00
FFFFDFFE00
FFFF8FFF00
FFFF8FFF00
FFFF87FF80
FFFF83FF80
FFFF83FFC0
FFFF81FFC0
FFFFC0FFE0
FFFFC0FFE0
FFFFC07C20
FFFF807800
001C007000
ENDCHAR
STARTCHAR 006C
ENCODING 108
SWIDTH 510 0
DWIDTH 34 0
BBX 32 47 1 -1
BITMAP
00002000
003FFE00
01FFFE00
03FFFE00
03FFFE00
03FFFE00
07FFFE00
07FFFC00
07FFFC00
07FFFC00
07FFFC00
07FFFC00
07FFFC00
07FFFC00
07FFF800
07FFF800
07FFF800
07FFF800
07FFF800
0FFFF000
0FFFF000
0FFFF000
0FFFF000
0FFFF000
1FFFF000
1FFFE000
1FFFE000
1FFFE000
1FFFE000
1FFFE000
3FFFE000
3FFFE000
3FFFFFFE
3FFFFFFE
3FFFFFFE
3FFFFFFE
3FFFFFFE
3FFFFFFE
3FFFFFFE
3FFFFFFE
3FFFFFFE
3FFFFFFF
3FFFFFFF
3FFFFFFE
3FFFFFE0
7FF80000
F8000000
ENDCHAR
STARTCHAR 006D
ENCODING 109
SWIDTH 645 0
DWIDTH 43 0
BBX 41 47 1 -1
BITMAP
018000000000
03C000006000
03C00001F000
03E00003F000
03F00007F000
03F00007F000
03F8000FF000
03FC000FF800
03FC001FF800
07FE001FF800
07FF003FF800
07FF003FF800
07FF807FF800
07FFC07FFC00
0FFFC0FFFC00
0FFFE0FFFC00
0FFFE1FFFC00
0FFFF3FFFC00
0FFFF3FFFE00
0FFFFFFFFE00
0FFFFFFFFC00
0FFFFFFFFC00
1FFFFFFFFE00
1FFFFFFFFE00
1FFFFFFFFE00
1FFFFFFFFE00
1FFFDFBFFE00
1FFF9FFFFE00
1FFF8F7FFE00
3FFF077FFE00
3FFF007FFE00
3FFE007FFF00
3FFE007FFF00
3FFE007FFF00
3FFC007FFF00
7FFC007FFF00
7FFC007FFF00
7FF8007FFF00
7FF800FFFF80
7FF8007FFF80
7FF8007FFF80
FFF0007FFF80
FFF0007FFF80
FFF0007FFF80
FFE00067F000
FDE000000000
800000000000
ENDCHAR
STARTCHAR 006E
ENCODING 110
SWIDTH 555 0
DWIDTH 37 0
BBX 36 44 1 1
BITMAP
0000000400
03FE003FC0
0FFFC1FFE0
0FFFC1FFF0
0FFFC1FFF0
0FFFC1FFF0
0FFF81FFE0
0FFFC1FFE0
1FFFC1FFE0
1FFFC1FFE0
1FFFC1FFE0
1FFFC1FFE0
1FFFE3FFE0
1FFFE3FFE0
1FFFE3FFE0
3FFFE3FFC0
3FFFF3FFC0
3FFFF3FFC0
3FFFF3FFC0
3FFFFBFFC0
3FFFFBFFC0
3FFFFBFFC0
3FFFFBFFC0
3FFFFFFFC0
3FFFFFFFC0
3FFFFFFF80
7FFFFFFF80
7FFFFFFF80
7FFCFFFF80
7FFCFFFF80
7FFC7FFF80
7FFC7FFF80
7FFC7FFF80
7FFC3FFF80
7FFC3FFF80
7FFC3FFF80
7FFC1FFF80
7FFC1FFF80
7FFC1FFF80
7FFC1FFF80
FFFC1FFF80
FFFC1FFF80
FFFC1FFF00
FFE007FC00
ENDCHAR
STARTCHAR 006F
ENCODING 111
SWIDTH 525 0
DWIDTH 35 0
BBX 34 47 1 0
BITMAP
0018000000
003F000000
007FC00000
00FFF00000
01FFF80000
01FFFE0000
03FFFF8000
03FFFFC000
07FFFFE000
07FFFFE000
0FFFFFF000
0FFFFFF800
1FFFFFF800
1FFFFFFC00
1FFFFFFC00
3FFFFFFE00
3FFFFFFE00
7FFFFFFF00
7FFC1FFF00
7FFC0FFF80
7FF807FF80
FFF807FF80
FFF807FF80
FFF007FF80
FFF007FFC0
FFF007FFC0
FFF807FFC0
FFFC0FFFC0
FFFC0FFFC0
7FFF1FFFC0
7FFFFFFF80
7FFFFFFF80
7FFFFFFF80
3FFFFFFF80
3FFFFFFF80
3FFFFFFF00
1FFFFFFF00
1FFFFFFF00
1FFFFFFF00
0FFFFFFE00
0FFFFFFE00
07FFFFFC00
03FFFFFC00
01FFFFF800
007FFFE000
001FFFC000
0007FF0000
ENDCHAR
STARTCHAR 0070
ENCODING 112
SWIDTH 495 0
DWIDTH 33 0
BBX 31 46 1 0
BITMAP
00070000
03FFE000
1FFFFE00
3FFFFF80
1FFFFFC0
3FFFFFE0
3FFFFFE0
1FFFFFF0
3FFFFFF8
3FFFFFF8
3FFDFFF8
3FF80FFC
3FFC07FC
3FFC03FC
3FFC03FC
3FFC03FC
3FFE07FE
3FFE07FE
3FFE07FE
3FFE0FFC
3FFF1FFE
3FFFFFFE
7FFFFFFE
7FFFFFFC
7FFFFFF8
7FFFFFF0
7FFFFFE0
7FFFFF80
7FFF8000
7FFF8000
7FFF8000
7FFF0000
FFFF8000
FFFF8000
FFFF8000
FFFF8000
FFFF8000
FFFF8000
FFFF8000
FFFF8000
FFFF8000
FFFF8000
FFFF8000
FFFF8000
FFFF8000
7FFF8000
ENDCHAR
STARTCHAR 0071
ENCODING 113
SWIDTH 615 0
DWIDTH 41 0
BBX 39 49 1 -3
BITMAP
001FF00000
00FFF80000
01FFFE0000
03FFFF0000
03FFFF8000
07FFFFC000
0FFFFFE000
0FFFFFF000
1FFFFFF800
1FFFFFFC00
1FFFFFFC00
3FFFFFFE00
3FFC7FFE00
3FF81FFF00
3FF80FFF00
7FF00FFF00
7FF007FF00
7FF003FF80
7FF003FF80
7FF801FF80
7FF801FF80
FFF801FF80
FFF801FF80
FFF801FF80
FFF803FF80
FFFC03FF80
FFFF07FF80
FFFFFFFF80
FFFFFFFF00
FFFFFFFF00
7FFFFFFF00
7FFFFFFF00
7FFFFFFE00
7FFFFFFE00
7FFFFFFE00
3FFFFFFE00
3FFFFFFF00
1FFFFFFF80
0FFFFFFFC0
07FFFFFFE0
03FFFFFFE0
01FFFFFFF0
00FFFFFFF8
003FFFFFFC
0007E3FFFE
000001FFFE
000000FFFE
000000FFE0
0000006000
ENDCHAR
STARTCHAR 0072
ENCODING 114
SWIDTH 585 0
DWIDTH 39 0
BBX 37 47 1 -1
BITMAP
0007C00000
007FF80000
1FFFFE0000
7FFFFF8000
FFFFFFE000
FFFFFFF000
FFFFFFF800
FFFFFFFC00
FFFE07FC00
FFFE01FE00
FFFF00FE00
FFFF00FE00
7FFF00FE00
7FFF00FF00
7FFF00FF00
7FFF00FF00
7FFF01FE00
7FFF83FE00
7FFFC7FE00
7FFFDFFE00
7FFFFFFC00
7FFFFFFC00
7FFFFFF800
7FFFFFE000
7FFFFF8000
3FFFFFC000
3FFFFFE000
3FFFFFE000
3FFFFFF000
3FFFFFF000
3FFFDFF800
3FFFDFFC00
3FFFCFFC00
3FFFCFFE00
3FFFC7FF00
3FFFC3FF00
3FFFC3FF80
3FFFC1FF80
3FFFE1FFC0
1FFFE0FFE0
1FFFE0FFE0
1FFFE0FFF0
1FFFE07FF0
1FFFE07FF8
0FFFE03FF0
0FFFE03F80
07FF800000
ENDCHAR
STARTCHAR 0073
ENCODING 115
SWIDTH 495 0
DWIDTH 33 0
BBX 31 47 1 -1
BITMAP
0007FF80
003FFFFE
00FFFFFE
03FFFFFE
03FFFFFE
07FFFFFC
07FFFFFC
07FFFFF8
0FFFFFF8
0FFFFFF0
1FFFFFF0
1FFFFFE0
1FFFFFE0
3FFFFFC0
3FFFFFC0
3FFFFFC0
3FFFFF80
3FFC0780
1FFC0180
1FFF0000
1FFF8000
0FFFF000
0FFFFC00
07FFFF00
03FFFFE0
03FFFFF0
007FFFF0
0007FFF8
0001FFF8
00007FF8
00001FF8
00003FFC
38003FFC
7C007FFC
7F3FFFFC
FFFFFFFC
FFFFFFFC
FFFFFFFC
FFFFFFF8
FFFFFFF8
7FFFFFF8
3FFFFFF0
1FFFFF80
0FFFFF00
07FFFE00
00FFF000
000F0000
ENDCHAR
STARTCHAR 0074
ENCODING 116
SWIDTH 570 0
DWIDTH 38 0
BBX 36 45 1 0
BITMAP
01FFFFFF00
7FFFFFFFC0
FFFFFFFFE0
7FFFFFFFE0
7FFFFFFFE0
7FFFFFFFF0
7FFFFFFFF0
7FFFFFFFF0
7FFFFFFFF0
FFFFFFFFF0
FFFFFFFFF0
FFFFFFFFF0
FFFFFFFE60
FFFBFFE000
FF83FFC000
7803FF8000
0003FF0000
0003FF0000
0003FF0000
0003FF0000
0003FF0000
0003FF0000
0003FF0000
0003FF0000
0003FE0000
0003FF0000
0003FF0000
0003FF0000
0003FF0000
0003FF0000
0003FF0000
0003FF0000
0003FF0000
0003FE0000
0003FE0000
0003FE0000
0003FF0000
0003FF0000
0003FF0000
0003FF0000
0007FE0000
0007FE0000
0003FE0000
0003FE0000
0003FE0000
ENDCHAR
STARTCHAR 0075
ENCODING 117
SWIDTH 540 0
DWIDTH 36 0
BBX 35 45 1 1
BITMAP
0600000000
0FF800FF80
0FFC00FFC0
0FFC01FFC0
0FFC01FFC0
1FF800FFC0
1FF800FFC0
1FF800FFC0
1FF800FFC0
3FF800FFC0
3FF800FFC0
3FF800FFC0
3FF800FFC0
3FF000FFC0
7FF001FFC0
7FF001FFC0
7FF001FFC0
7FF001FFC0
7FF001FFC0
FFF001FFC0
FFF801FFC0
FFF803FFE0
FFF803FFE0
FFFC03FFE0
FFFE03FFC0
FFFF07FFC0
FFFFC7FFC0
7FFFFFFF80
7FFFFFFF80
7FFFFFFF80
7FFFFFFF00
7FFFFFFF00
7FFFFFFF00
3FFFFFFE00
3FFFFFFE00
1FFFFFFE00
1FFFFFFC00
0FFFFFF800
0FFFFFF000
07FFFFE000
07FFFFE000
03FFFFC000
00FFFF8000
003FFF0000
0007F00000
ENDCHAR
STARTCHAR 0076
ENCODING 118
SWIDTH 585 0
DWIDTH 39 0
BBX 38 42 1 2
BITMAP
6000000FF8
FE0000FFFC
FFE001FFFC
7FFF00FFF8
3FFF80FFF8
3FFFC0FFF8
1FFFC0FFF8
1FFFC0FFF8
1FFFC0FFF8
0FFFC1FFF8
0FFFE1FFF0
0FFFE1FFF0
07FFE1FFF0
07FFE1FFF0
07FFF1FFE0
03FFF1FFE0
03FFF1FFE0
01FFF1FFE0
01FFF1FFC0
00FFFBFFC0
00FFFBFFC0
007FFBFFC0
007FFFFF80
003FFFFF80
001FFFFF80
001FFFFF80
000FFFFF00
000FFFFF00
0007FFFF00
0003FFFF00
0003FFFF00
0001FFFE00
0000FFFE00
0000FFFE00
00007FFE00
00003FFE00
00003FFC00
00001FFC00
00000FFC00
00000FFC00
000007FC00
000003F800
ENDCHAR
STARTCHAR 0077
ENCODING 119
SWIDTH 720 0
DWIDTH 48 0
BBX 46 46 1 0
BITMAP
000000000C00
3F8000000F1C
7FF000001FFC
FFF803C01FFC
FFF803C03FFC
FFF807E03FF8
FFFC07E03FF8
FFFC07E07FF8
FFFC07F07FF0
7FFE07F07FF0
7FFE07F0FFF0
7FFF07F0FFF0
7FFF07F0FFE0
3FFF07F9FFE0
3FFF87F9FFE0
3FFF8FFDFFE0
1FFFCFFFFFE0
1FFFCFFFFFE0
0FFFEFFFFFE0
0FFFFFFFFFE0
07FFFFFFFFC0
07FFFFFFFFC0
07FFFFFFFFC0
03FFFFFFFFC0
03FFFFFFFFC0
01FFFFFFFF80
01FFFFFFFF80
00FFFFBFFF80
00FFFFBFFF80
007FFFBFFF80
007FFF1FFF00
003FFF1FFF00
003FFF1FFF00
001FFE0FFF00
001FFE0FFF00
000FFC0FFF00
000FFC0FFF00
0007FC07FF00
0007FC07FE00
0003F807FE00
0003F803FE00
0001F803FE00
0000F003FC00
0000F0018000
000070000000
000020000000
ENDCHAR
STARTCHAR 0078
ENCODING 120
SWIDTH 570 0
DWIDTH 38 0
BBX 37 44 1 1
BITMAP
0000003FF0
33E0007FF0
3FF8007FF8
7FF000FFF8
FFF800FFF0
FFFC01FFE0
FFFC01FFE0
FFFE03FFC0
FFFE03FFC0
7FFF07FF80
7FFF07FF80
3FFF8FFF80
3FFF8FFF00
1FFFCFFF00
1FFFDFFE00
0FFFFFFE00
07FFFFFE00
03FFFFFC00
01FFFFFC00
00FFFFF800
007FFFF800
007FFFF000
003FFFF000
003FFFE000
001FFFE000
001FFFE000
003FFFF000
007FFFF000
00FFFFF000
00FFFFF800
01FFFFF800
01FFFFF800
03FFFFFC00
03FF9FFC00
07FF8FFE00
07FF8FFE00
07FF87FE00
0FFF83FF00
0FFF83FF00
1FFF01FF80
1FFF00FF00
1FFF007000
1FFE000000
1F88000000
ENDCHAR
STARTCHAR 0079
ENCODING 121
SWIDTH 600 0
DWIDTH 40 0
BBX 39 46 1 0
BITMAP
000000011E
0000000FFE
00C0001FFC
0BE0001FFC
7FF0001FF8
FFF8003FF8
FFF8003FF8
7FFC007FF0
7FFC007FF0
3FFE00FFE0
3FFE00FFE0
3FFF01FFC0
1FFF01FFC0
0FFF03FF80
0FFF83FF80
07FF87FF00
07FFC7FF00
03FFCFFE00
03FFCFFE00
01FFFFFC00
01FFFFFC00
00FFFFF800
00FFFFF800
007FFFF000
007FFFF000
003FFFE000
003FFFE000
001FFFE000
001FFFC000
000FFFC000
000FFF8000
0007FF0000
0003FF0000
0003FF8000
0003FF8000
0003FF8000
0003FF8000
0003FF8000
0003FF8000
0003FF8000
0003FF8000
0003FFC000
0003FFC000
0001FFC000
0001FF8000
0001FE0000
ENDCHAR
STARTCHAR 007A
ENCODING 122
SWIDTH 600 0
DWIDTH 40 0
BBX 38 46 1 0
BITMAP
0003FF8000
003FFFFF00
03FFFFFF00
0FFFFFFE00
1FFFFFFE00
3FFFFFFC00
7FFFFFF800
7FFFFFF800
7FFFFFF000
FFFFFFE000
FFFFFFE000
FFFFFFC000
FF00FFC000
0001FF8000
0001FF8000
0001FF8000
0003FF0000
0003FF0000
0003FF0000
0007FE0000
0007FE0000
0007FE0000
000FFC0000
000FFC0000
001FFC0000
001FFC0000
001FF80000
003FF80000
003FF80000
003FF80000
007FF80000
007FF00000
007FE00000
00FFC03F78
00FFDFFFFC
00FFFFFFFC
01FFFFFFFC
01FFFFFFFC
01FFFFFFFC
03FFFFFFF8
03FFFFFFF0
03FFFFFFE0
0007FFFFC0
0001FFFF80
00003FFE00
000000C000
ENDCHAR
STARTCHAR 007B
ENCODING 123
SWIDTH 345 0
DWIDTH 23 0
BBX 22 64 1 -8
BITMAP
0000C0
0003E0
0007E0
000FF0
000FF0
001FF8
001FF8
003FFC
007FF8
007FF0
007FC0
00FFC0
00FF80
00FF80
00FF00
00FF00
01FE00
01FE00
01FE00
01FC00
03FC00
03FC00
03FC00
07FC00
07FC00
07F800
07F800
3FF800
7FF800
FFF800
FFF000
FFF800
FFF800
FFFC00
7FFC00
3FFC00
03FE00
03FE00
03FE00
03FE00
01FE00
01FE00
01FE00
01FF00
01FF00
01FE00
01FE00
01FE00
01FF00
01FF00
01FF00
01FF00
01FF00
01FF80
00FFC0
00FFF0
00FFF0
007FF0
003FF0
001FF0
000FF0
0007E0
0003E0
000060
ENDCHAR
STARTCHAR 007C
ENCODING 124
SWIDTH 180 0
DWIDTH 12 0
BBX 11 67 1 -10
BITMAP
6000
7FC0
7FC0
7FC0
7FC0
7FC0
7FC0
FFC0
FFC0
FFC0
FFC0
FFC0
FFC0
FFC0
FFC0
FFC0
FFC0
FFC0
FFC0
FFC0
FFC0
FFC0
FFC0
FFE0
FFE0
FFC0
FFC0
FFC0
FFC0
FFC0
FFC0
FFC0
FFC0
FFC0
FFC0
FFC0
FFC0
FFC0
FFE0
FFE0
FFC0
FFC0
FFC0
FFC0
FFC0
FFC0
FFC0
FFC0
FFC0
FFC0
7FC0
7FC0
7FC0
7FC0
7FC0
7FC0
7FC0
7FC0
7FC0
7FC0
7FC0
7FC0
7FC0
7FC0
7FC0
7FC0
7FC0
ENDCHAR
STARTCHAR 007D
ENCODING 125
SWIDTH 345 0
DWIDTH 23 0
BBX 22 64 1 -8
BITMAP
1C0000
3F0000
3F8000
3FC000
7FE000
7FF000
7FF800
7FF800
3FFC00
0FFC00
07FC00
07FC00
07FC00
07FC00
03FC00
03FC00
03FC00
03FE00
03FE00
03FE00
03FE00
03FE00
03FE00
03FE00
01FE00
01FE00
01FF00
01FF00
01FFF0
00FFF8
00FFF8
00FFFC
007FF8
007FF8
007FF8
007FF8
007FE0
00FF80
00FF00
00FF80
00FF00
01FF00
01FE00
01FE00
01FE00
01FE00
01FC00
03FC00
03FC00
07FC00
07FC00
0FF800
0FF800
1FF800
7FF800
FFF000
FFE000
7FE000
7FC000
7FC000
3F8000
1F0000
1E0000
080000
ENDCHAR
STARTCHAR 007E
ENCODING 126
SWIDTH 480 0
DWIDTH 32 0
BBX 30 15 1 16
BITMAP
03E00FFC
0FF80FFC
1FFC0FFC
3FFE1FFC
7FFFFFFC
7FFFFFFC
FFFFFFFC
FFFFFFFC
FFFFFFFC
FFFFFFF8
FFFFFFF0
FF9FFFE0
FF8FFFC0
FF03FF80
FF00FE00
ENDCHAR
STARTCHAR 00A0
ENCODING 160
SWIDTH 300 0
DWIDTH 20 0
BBX 0 0 0 0
BITMAP
ENDCHAR
STARTCHAR 00A1
ENCODING 161
SWIDTH 285 0
DWIDTH 19 0
BBX 18 50 1 -13
BITMAP
03F000
07FC00
0FFE00
0FFE00
1FFE00
1FFE00
1FFE00
1FFE00
1FFE00
0FFC00
07FC00
01F000
000000
000000
000000
000000
07C000
0FF000
0FF800
1FFC00
1FFC00
1FFC00
1FFC00
1FFC00
1FFC00
1FFC00
3FFC00
3FFC00
3FFC00
3FFC00
3FFC00
3FFE00
3FFE00
7FFE00
7FFE00
7FFE00
7FFE00
7FFE00
7FFF00
7FFF00
7FFF00
FFFF00
FFFF00
FFFF80
FFFF80
FFFF80
FFFF80
FFFFC0
FFFFC0
07FF80
ENDCHAR
STARTCHAR 00A2
ENCODING 162
SWIDTH 495 0
DWIDTH 33 0
BBX 31 57 1 -6
BITMAP
00001F80
00001FF0
00001FF0
00001FF0
00001FF0
00003FF0
00007FF0
003FFFE0
007FFFE0
00FFFFF0
01FFFFF8
03FFFFFC
07FFFFFC
0FFFFFFE
0FFFFFFE
1FFFFFFE
1FFFFFFC
3FFFFFFC
3FFFFFFC
7FFFFFFC
7FFFFFFC
7FFFFFFC
7FFDFFFC
FFF9FF1C
FFF3FF00
FFE3FE00
FFE3FE00
FFC3FE00
FFC7FE00
FFC7FC00
FFC7FC00
FFC7FC00
FFE7FC00
FFEFFC00
FFEFF800
FFFFF800
7FFFF800
7FFFF87C
7FFFFFFE
7FFFFFFE
3FFFFFFE
3FFFFFFE
1FFFFFFE
1FFFFFFE
0FFFFFFE
07FFFFFE
03FFFFFC
00FFFFF8
007FFFF0
007FFFC0
007FFC00
007FC000
007F8000
00FF8000
00FF8000
007F8000
000F8000
ENDCHAR
STARTCHAR 00A3
ENCODING 163
SWIDTH 540 0
DWIDTH 36 0
BBX 35 46 1 0
BITMAP
0000040000
0000FF8000
0001FFF000
0003FFFC00
0007FFFE00
000FFFFF00
001FFFFF00
003FFFFF80
003FFFFFC0
007FFFFFC0
007FF3FFC0
00FFF9FFC0
00FFF1FFC0
00FFF0FFC0
01FFF0FFC0
01FFF07C00
01FFE00000
01FFE00000
01FFE00000
03FFE00000
FFFFFFF800
FFFFFFF800
FFFFFFF800
FFFFFFF800
FFFFFFF800
FFFFFFF800
FFFFFFF800
01FFE0C000
01FFE00000
01FFE00000
01FFE00000
01FFE00000
01FFE00000
01FFE00000
01FFE00000
7FFFFFFFE0
7FFFFFFFE0
7FFFFFFFC0
7FFFFFFFC0
7FFFFFFFC0
7FFFFFFFC0
7FFFFFFFC0
7FFFFFFF80
3FFFFFFF80
07FFFFFF00
0000FFF800
ENDCHAR
STARTCHAR 00A4
ENCODING 164
SWIDTH 435 0
DWIDTH 29 0
BBX 27 27 1 10
BITMAP
06000C00
0F801E00
1FC03F00
3FFFFF80
7FFFFFC0
FFFFFFE0
FFFFFFE0
7FFFFFC0
3FFFFF80
1FF1FF00
0FE0FE00
0FC07E00
0FC07E00
0FC07E00
0FC07E00
0FC07E00
0FE0FE00
0FE0FF00
1FF1FF80
7FFFFFC0
FFFFFFE0
FFFFFFE0
7FFFFFC0
3FFFFF80
1FC43F00
0F801E00
07000C00
ENDCHAR
STARTCHAR 00A5
ENCODING 165
SWIDTH 600 0
DWIDTH 40 0
BBX 39 46 1 0
BITMAP
000000011E
0000000FFE
00C0001FFC
0BE0001FFC
7FF0001FF8
FFF8003FF8
FFF8003FF8
7FFC007FF0
7FFC007FF0
3FFE00FFE0
3FFE00FFE0
3FFF01FFC0
1FFF01FFC0
0FFF03FF80
0FFF83FF80
07FF87FF00
07FFC7FF00
03FFCFFE00
03FFCFFE00
01FFFFFC00
0FFFFFFF80
0FFFFFFF80
0FFFFFFF80
0FFFFFFF80
0FFFFFFF80
0FFFFFFF80
0FFFFFFF80
1FFFFFFF80
1FFFFFC000
038FFFC000
000FFF8000
07FFFFFF80
0FFFFFFFC0
0FFFFFFFC0
0FFFFFFFC0
0FFFFFFFC0
0FFFFFFFC0
0FFFFFFFC0
0FFFFFFFC0
0FFFFFE000
0183FF8000
0003FFC000
0003FFC000
0001FFC000
0001FF8000
0001FE0000
ENDCHAR
STARTCHAR 00A6
ENCODING 166
SWIDTH 180 0
DWIDTH 12 0
BBX 11 67 1 -10
BITMAP
7FC0
7FC0
FFC0
FFC0
FFC0
FFC0
FFC0
FFC0
FFE0
FFC0
FFC0
FFC0
FFC0
FFC0
FFC0
FFC0
FFC0
FFC0
FFE0
7FE0
7FC0
7FC0
7FC0
7FC0
7FC0
7FC0
7FC0
7FC0
7FC0
7FC0
0000
0000
0000
0000
0000
0000
0000
0000
FFC0
FFC0
FFC0
FFC0
FFC0
FFC0
FFC0
FFC0
FFC0
FFC0
FFC0
FFC0
FFC0
FFC0
FFC0
FFC0
FFC0
FFC0
FFC0
FFC0
FFC0
FFC0
FFC0
FFC0
FFC0
FFE0
FFC0
FFC0
7FC0
ENDCHAR
STARTCHAR 00A7
ENCODING 167
SWIDTH 495 0
DWIDTH 33 0
BBX 32 57 1 -5
BITMAP
0007E000
001FFC00
007FFE00
00FFFF80
03FFFFC0
07FFFFE0
07FFFFE0
0FFFFFE0
0FFFFFE0
0FFFFFE0
0FFFFFE0
0FFFC7E0
0FFF01C0
0FFF0000
0FFF0000
07FF0000
07FF8000
0FFFC000
1FFFF800
1FFFFF00
3FFFFFC0
3FFFFFE0
3FFFFFF8
7FFFFFF8
7FFFFFFC
7FFFFFFE
FFF81FFE
FFE00FFF
FFE00FFF
FFF00FFE
FFF81FFE
7FFFFFFE
7FFFFFFE
3FFFFFFC
1FFFFFFC
0FFFFFFC
03FFFFF8
00FFFFF8
001FFFF8
0007FFF0
0001FFE0
0000FFE0
0000FFE0
0000FFF0
0301FFF0
07C3FFF0
07FFFFF0
0FFFFFF0
0FFFFFE0
0FFFFFE0
0FFFFFE0
07FFFFE0
03FFFFC0
01FFFF00
00FFFE00
007FF800
000FE000
ENDCHAR
STARTCHAR 00A8
ENCODING 168
SWIDTH 300 0
DWIDTH 20 0
BBX 18 7 1 47
BITMAP
380780
7E0FC0
FE1FC0
FE1FC0
FE1FC0
FE0FC0
7C0780
ENDCHAR
STARTCHAR 00A9
ENCODING 169
SWIDTH 660 0
DWIDTH 44 0
BBX 43 43 1 2
BITMAP
00000FE00000
0001FFFE0000
001FFFFF8000
007FFFFFE000
01FFFFFFF800
03FFFFFFF800
07FFFFFFFC00
0FFFC03FFE00
0FFE000FFE00
1FF80003FF00
1FF00001FF00
3FE03F80FF80
3FC07FE07F80
7F80FFF07F80
7F01FFF03FC0
7F01FFF03FC0
7E03FFF01FC0
FE03FFF01FC0
FE03FDF01FE0
FE07F8001FE0
FC07F0001FE0
FC07F0001FE0
FE07F0001FC0
FE07F0001FC0
FE07F0001FC0
FE07F8001FC0
FF03FC001FC0
7F03FFF01F80
7F83FFF01F80
7F81FFF81F80
7FC0FFF03F00
3FC07FE03F00
3FE01FC07E00
1FF00000FE00
1FF80003FC00
0FFE001FF800
0FFFFFFFF000
07FFFFFFE000
03FFFFFFC000
01FFFFFF0000
007FFFFE0000
001FFFF80000
0000FFC00000
ENDCHAR
STARTCHAR 00AA
ENCODING 170
SWIDTH 330 0
DWIDTH 22 0
BBX 20 23 1 22
BITMAP
007800
007800
00F800
00F800
00FC00
01FC00
01FC00
01FE00
03FE00
03FE00
07FE00
07FF00
0F3F00
0E3F00
0E3F80
1FFF80
1FFF80
3FFFC0
3E1FC0
7E1FE0
7C1FE0
FC0FF0
FC0C70
ENDCHAR
STARTCHAR 00AB
ENCODING 171
SWIDTH 465 0
DWIDTH 31 0
BBX 30 30 1 1
BITMAP
00020000
000E0008
003E003C
007E007C
00FE00FC
01FE01FC
03FE03FC
07FE0FFC
0FFE1FFC
1FFE3FFC
1FFEFFFC
3FFDFFFC
7FF1FFC0
FFC1FF00
FF01FC00
FC01FC00
FF01FF00
FFE1FFC0
FFFCFFF0
7FFE7FF8
3FFE3FF8
0FFE1FF8
07FE0FF8
03FE07F8
01FE03F8
007E01F8
003E00FC
001E007C
000E003C
0004000C
ENDCHAR
STARTCHAR 00AC
ENCODING 172
SWIDTH 480 0
DWIDTH 32 0
BBX 30 18 1 11
BITMAP
1FC7F300
FFFFFFFC
FFFFFFFC
FFFFFFFC
FFFFFFFC
FFFFFFFC
FFFFFFFC
FFFFFFFC
FFFFFFFC
FFFFFFFC
1C000FFC
00000FFC
00000FFC
00000FFC
00000FFC
00000FFC
00000FFC
00000008
ENDCHAR
STARTCHAR 00AD
ENCODING 173
SWIDTH 390 0
DWIDTH 26 0
BBX 24 11 1 18
BITMAP
1F1F60
FFFFFF
FFFFFF
FFFFFF
FFFFFF
FFFFFF
FFFFFF
FFFFFF
FFFFFF
FFFFFF
380000
ENDCHAR
STARTCHAR 00AE
ENCODING 174
SWIDTH 450 0
DWIDTH 30 0
BBX 28 28 1 19
BITMAP
00FFE000
07FFF800
0FFFFC00
1FFFFF00
3FC03F80
3F000F80
7E1F03C0
7E7FC1E0
7C7DE1E0
FC7CE1E0
F87CE1F0
F87CE1F0
F07FC1F0
F07F81F0
F07F81F0
F07DC1F0
F87DE1F0
F87EE1F0
7C7EF3E0
7C7E7BE0
7E3C47E0
3F800FC0
1FC03FC0
1FFFFF80
0FFFFF80
03FFFE00
00FFFC00
000FE000
ENDCHAR
STARTCHAR 00AF
ENCODING 175
SWIDTH 315 0
DWIDTH 21 0
BBX 20 7 1 47
BITMAP
1C3900
FFFFF0
FFFFF0
FFFFF0
FFFFF0
FFFFF0
300000
ENDCHAR
STARTCHAR 00B0
ENCODING 176
SWIDTH 315 0
DWIDTH 21 0
BBX 20 22 1 26
BITMAP
007000
03FC00
0FFF00
1FFF80
3FFFC0
7FFFE0
7F8FE0
FE0FE0
FE07F0
FE07F0
FC07F0
FC07F0
FE07F0
FE07F0
FE0FE0
7F0FE0
7FFFC0
3FFFC0
1FFF80
0FFF00
07FE00
03F800
ENDCHAR
STARTCHAR 00B1
ENCODING 177
SWIDTH 465 0
DWIDTH 31 0
BBX 30 39 1 -1
BITMAP
003FE000
003FE000
003FE000
003FE000
003FE000
003FE000
003FE000
003FE000
003FE000
003FE080
FFFFFFFC
FFFFFFFC
FFFFFFFC
FFFFFFFC
FFFFFFFC
FFFFFFFC
FFFFFFFC
FFFFFFFC
FFFFFFFC
003FE040
003FE000
003FE000
003FE000
003FF000
003FF000
003FF000
003FF000
003FE000
00000000
00000000
001FE0E0
FFFFFFF8
FFFFFFF8
FFFFFFF8
FFFFFFF8
FFFFFFF8
FFFFFFF8
FFFFFFF8
003C0000
ENDCHAR
STARTCHAR 00B2
ENCODING 178
SWIDTH 270 0
DWIDTH 18 0
BBX 16 23 1 23
BITMAP
0F80
1FE0
3FF0
FFF0
FFF8
7DF0
30F0
20F8
00F0
01F0
01E0
01E0
03E0
03EB
07FF
0FFF
0FFF
1FFE
1FFE
7FFE
7FFE
3FE0
0100
ENDCHAR
STARTCHAR 00B3
ENCODING 179
SWIDTH 240 0
DWIDTH 16 0
BBX 15 22 1 23
BITMAP
3F80
7FC0
7FC0
3FC0
0780
0780
0F00
1FC0
1FF0
3FF8
3FFC
1FFC
003C
003C
001E
001E
003E
C0FC
FFFC
7FF8
3FF0
0FE0
ENDCHAR
STARTCHAR 00B4
ENCODING 180
SWIDTH 225 0
DWIDTH 15 0
BBX 14 11 1 47
BITMAP
07F8
0FFC
0FF8
1FF0
1FE0
3FE0
7FC0
7F80
7F00
FE00
1E00
ENDCHAR
STARTCHAR 00B5
ENCODING 181
SWIDTH 540 0
DWIDTH 36 0
BBX 35 46 1 -10
BITMAP
0000003C00
7FE007FE00
7FE00FFE00
FFF007FF00
FFE007FF00
FFE003FF80
FFC003FF80
FFE003FFC0
FFE003FFC0
FFE003FFE0
FFE003FFE0
FFE003FFC0
FFE007FFC0
FFF007FFC0
FFF007FFC0
FFF007FFC0
FFF00FFFC0
FFF80FFFC0
FFF81FFFC0
FFF87FFFC0
FFFFFFFFC0
FFFFFFFF80
FFFFFFFF80
FFFFFFFF80
FFFFFFFF80
FFFFFFFF00
FFFFFFFF00
FFFFFFFE00
FFFFFFFC00
FFFFFFFC00
FFFFFFFC00
FFFFFFF800
FFFFFFE000
FFDFFF8000
FFC1FC0000
FFC0000000
FFC0000000
FFC0000000
FFC0000000
FFC0000000
FFC0000000
FFE0000000
FFC0000000
FFC0000000
FFC0000000
7FC0000000
ENDCHAR
STARTCHAR 00B6
ENCODING 182
SWIDTH 390 0
DWIDTH 26 0
BBX 24 52 1 -4
BITMAP
00FFFF
07FFFF
0FFFFF
1FFFFF
3FFFFF
7FFFFF
7FFFFF
FFFFFF
FFFFFF
FFFC3F
FFFC3F
FFFC3F
FFFC3F
FFFC3F
FFFC3F
FFFC7F
FFFC7F
FFFC7F
FFFC7F
FFFC7F
FFFC7F
7FFC7F
7FFC7F
3FFC7F
3FFC7F
1FFC7F
0FFC7F
01FC7F
01FC7F
01FC7F
01FC7F
00FC7F
00FE7F
00FE7F
00FE7F
00FE7F
00FE7F
00FE7F
00FE7F
00FE7F
00FE7F
00FE7F
00FE7F
00FE7F
00FE7F
00FE7F
00FE3F
00FE3F
00FE3F
01FE3F
01FE3F
00FC3E
ENDCHAR
STARTCHAR 00B7
ENCODING 183
SWIDTH 210 0
DWIDTH 14 0
BBX 12 13 1 17
BITMAP
0780
1FC0
7FE0
7FE0
FFF0
FFF0
FFF0
FFF0
7FF0
7FE0
3FE0
1F80
0600
ENDCHAR
STARTCHAR 00B8
ENCODING 184
SWIDTH 300 0
DWIDTH 20 0
BBX 18 14 1 -11
BITMAP
07F000
07F000
07F000
07F800
03FC00
03FE00
00FF80
003FC0
603FC0
FF3FC0
FFFFC0
FFFFC0
7FFF80
1FFE00
ENDCHAR
STARTCHAR 00B9
ENCODING 185
SWIDTH 225 0
DWIDTH 15 0
BBX 13 22 1 24
BITMAP
0180
03E0
0FE0
1FF0
7FF0
FFF0
7BF0
3BF0
13F0
07F0
07F0
07F0
07F0
07F0
07F0
07F0
0FF0
0FF0
0FF0
0FF8
0FF8
07F8
ENDCHAR
STARTCHAR 00BA
ENCODING 186
SWIDTH 270 0
DWIDTH 18 0
BBX 17 24 1 23
BITMAP
060000
0F8000
0FE000
1FF000
1FF800
3FFC00
3FFE00
7FFE00
7FFF00
7E3F00
FE3F00
FC1F80
FC3F80
FE3F80
FE3F80
FFFF80
7FFF80
7FFF00
7FFF00
3FFF00
3FFE00
1FFE00
07F800
01E000
ENDCHAR
STARTCHAR 00BB
ENCODING 187
SWIDTH 465 0
DWIDTH 31 0
BBX 30 30 1 1
BITMAP
C0000000
F0018000
F801C000
FC01E000
FE01F000
FF01FC00
FF81FE00
FFC1FF00
FFC1FF80
FFE1FFE0
FFF1FFF0
3FF9FFFC
0FFC7FFC
03FC0FFC
00FC01FC
00FC00FC
03FC03FC
1FFC1FFC
FFFC7FF8
FFF8FFF0
FFF1FFE0
FFC1FFC0
FF81FF80
FF01FF00
FE01FE00
FC01FC00
F801F800
E001F000
C001E000
0001C000
ENDCHAR
STARTCHAR 00BC
ENCODING 188
SWIDTH 555 0
DWIDTH 37 0
BBX 36 47 1 0
BITMAP
0180003C00
03E0003F00
0FE0007F80
1FF0007F00
7FF000FF00
FFF000FE00
7BF001FE00
3BF001FC00
13F003FC00
07F003F800
07F007F800
07F007F000
07F00FF000
07F01FE000
07F01FE000
07F03FC000
0FF03F8000
0FF07F8000
0FF0FF0000
0FF8FF0000
0FF9FE0000
07F9FE0000
0003FC0000
0007F80000
0007F83C00
000FF07C00
000FE07C00
001FE07800
003FC0F800
003FC0F800
007F80F000
007F00F000
00FF01F7E0
01FE01FFE0
01FE01FFF0
03FC01FFF0
03F803FFE0
07F8038700
07F0000F00
0FE0000F00
1FE0000F00
1FC0001F00
3FC0001F80
1F80001F80
0F00003F80
0000003F80
0000003F00
ENDCHAR
STARTCHAR 00BD
ENCODING 189
SWIDTH 555 0
DWIDTH 37 0
BBX 36 45 1 2
BITMAP
0180003C00
03E0003F00
0FE0007F80
1FF0007F00
7FF000FF00
FFF000FE00
7BF001FE00
3BF001FC00
13F003FC00
07F003F800
07F007F800
07F007F000
07F00FF000
07F01FE000
07F01FE000
07F03FC000
0FF03F8000
0FF07F8000
0FF0FF0000
0FF8FF0000
0FF9FE0000
07F9FE0000
0003FC0000
0007F9F800
0007FBFE00
000FF7FF00
000FEFFF00
001FEFFF00
003FC7BF00
003FC70F00
007F820F00
007F001F00
00FF001E00
01FE001E00
01FE003E00
03FC003C00
03F8007FF0
07F8007FF0
07F000FFE0
0FE001FFE0
1FE001FFE0
1FC003FFE0
3FC007FFC0
1F8007FFC0
0F0001FC00
ENDCHAR
STARTCHAR 00BE
ENCODING 190
SWIDTH 555 0
DWIDTH 37 0
BBX 36 47 1 0
BITMAP
0000003C00
3F80003F00
7FC0007F80
7FC0007F00
3FC000FF00
078000FE00
078001FE00
0F0001FC00
1FC003FC00
1FF003F800
3FF807F800
3FFC07F000
1FFC0FF000
003C1FE000
003C1FE000
001E3FC000
001E3F8000
003E7F8000
C0FCFF0000
FFFCFF0000
7FF9FE0000
3FF1FE0000
0FE3FC0000
0007F80000
0007F83C00
000FF07C00
000FE07C00
001FE07800
003FC0F800
003FC0F800
007F80F000
007F00F000
00FF01F7E0
01FE01FFE0
01FE01FFF0
03FC01FFF0
03F803FFE0
07F8038700
07F0000F00
0FE0000F00
1FE0000F00
1FC0001F00
3FC0001F80
1F80001F80
0F00003F80
0000003F80
0000003F00
ENDCHAR
STARTCHAR 00BF
ENCODING 191
SWIDTH 465 0
DWIDTH 31 0
BBX 29 48 1 -13
BITMAP
0003E000
000FF000
001FF800
001FFC00
003FFC00
003FFE00
001FFC00
001FFC00
000FF800
000FF000
0003C000
00000000
00000000
00000000
00000000
000FF800
000FFC00
000FFC00
001FFC00
001FFC00
003FFC00
007FFC00
01FFFC00
03FFFC00
0FFFF800
1FFFF800
3FFFF000
3FFF8000
7FFC0000
7FF00000
7FF00000
FFE00000
FFE00000
FFE00000
FFE001C0
FFE003E0
FFF00FF0
FFF83FF8
FFFFFFF8
FFFFFFF8
FFFFFFF0
7FFFFFF0
7FFFFFF0
7FFFFFE0
3FFFFFC0
1FFFFFC0
07FFFF00
001FFC00
ENDCHAR
STARTCHAR 00C0
ENCODING 192
SWIDTH 630 0
DWIDTH 42 0
BBX 40 60 1 -2
BITMAP
001FE00000
003FE00000
001FF00000
000FF80000
000FF80000
0007FC0000
0003FE0000
0001FE0000
0000FE0000
00007F0000
0000780000
0000000000
0000000000
00000F8000
00003F8000
00003FC000
00007FC000
00007FC000
00007FE000
0000FFE000
0000FFE000
0000FFE000
0001FFE000
0001FFF000
0003FFF000
0003FFF000
0003FFF000
0007FFF800
0007FFF800
0007FFF800
000FFFFC00
000FFFFC00
001FFFFC00
001FFFFE00
003FFFFE00
003FFFFE00
003FFFFE00
007F9FFF00
007F0FFF00
00FE0FFF00
00FE07FF80
01FC07FF80
01FC07FF80
03F83FFFC0
03FFFFFFC0
03FFFFFFE0
07FFFFFFE0
07FFFFFFE0
0FFFFFFFF0
0FFF87FFF0
1FFC07FFF8
1FFC03FFF8
3FF803FFFC
3FF803FFFC
3FF803FFFC
7FF801FFFE
7FF801FFFE
FFF800FFFF
FFE000E000
C000000000
ENDCHAR
STARTCHAR 00C1
ENCODING 193
SWIDTH 630 0
DWIDTH 42 0
BBX 40 60 1 -2
BITMAP
000000FF00
000001FF00
000003FF00
000003FE00
000007FC00
000007F800
00000FF000
00000FE000
00001FC000
00001FC000
0000038000
0000000000
0000000000
00000F8000
00003F8000
00003FC000
00007FC000
00007FC000
00007FE000
0000FFE000
0000FFE000
0000FFE000
0001FFE000
0001FFF000
0003FFF000
0003FFF000
0003FFF000
0007FFF800
0007FFF800
0007FFF800
000FFFFC00
000FFFFC00
001FFFFC00
001FFFFE00
003FFFFE00
003FFFFE00
003FFFFE00
007F9FFF00
007F0FFF00
00FE0FFF00
00FE07FF80
01FC07FF80
01FC07FF80
03F83FFFC0
03FFFFFFC0
03FFFFFFE0
07FFFFFFE0
07FFFFFFE0
0FFFFFFFF0
0FFF87FFF0
1FFC07FFF8
1FFC03FFF8
3FF803FFFC
3FF803FFFC
3FF803FFFC
7FF801FFFE
7FF801FFFE
FFF800FFFF
FFE000E000
C000000000
ENDCHAR
STARTCHAR 00C2
ENCODING 194
SWIDTH 630 0
DWIDTH 42 0
BBX 40 60 1 -2
BITMAP
0000060000
00001F0000
00007FC000
0000FFE000
0003FFF000
0007FFF800
000FFFFC00
000FFBFE00
001FF1FE00
000FC07E00
0007003800
0000000000
0000000000
00000F8000
00003F8000
00003FC000
00007FC000
00007FC000
00007FE000
0000FFE000
0000FFE000
0000FFE000
0001FFE000
0001FFF000
0003FFF000
0003FFF000
0003FFF000
0007FFF800
0007FFF800
0007FFF800
000FFFFC00
000FFFFC00
001FFFFC00
001FFFFE00
003FFFFE00
003FFFFE00
003FFFFE00
007F9FFF00
007F0FFF00
00FE0FFF00
00FE07FF80
01FC07FF80
01FC07FF80
03F83FFFC0
03FFFFFFC0
03FFFFFFE0
07FFFFFFE0
07FFFFFFE0
0FFFFFFFF0
0FFF87FFF0
1FFC07FFF8
1FFC03FFF8
3FF803FFFC
3FF803FFFC
3FF803FFFC
7FF801FFFE
7FF801FFFE
FFF800FFFF
FFE000E000
C000000000
ENDCHAR
STARTCHAR 00C3
ENCODING 195
SWIDTH 630 0
DWIDTH 42 0
BBX 40 59 1 -2
BITMAP
0001E07E00
0003F87E00
0007FC7E00
000FFFFE00
000FFFFE00
000FFFFE00
000FFFFC00
000FDFF800
000F8FF000
000F81E000
0000000000
0000000000
00000F8000
00003F8000
00003FC000
00007FC000
00007FC000
00007FE000
0000FFE000
0000FFE000
0000FFE000
0001FFE000
0001FFF000
0003FFF000
0003FFF000
0003FFF000
0007FFF800
0007FFF800
0007FFF800
000FFFFC00
000FFFFC00
001FFFFC00
001FFFFE00
003FFFFE00
003FFFFE00
003FFFFE00
007F9FFF00
007F0FFF00
00FE0FFF00
00FE07FF80
01FC07FF80
01FC07FF80
03F83FFFC0
03FFFFFFC0
03FFFFFFE0
07FFFFFFE0
07FFFFFFE0
0FFFFFFFF0
0FFF87FFF0
1FFC07FFF8
1FFC03FFF8
3FF803FFFC
3FF803FFFC
3FF803FFFC
7FF801FFFE
7FF801FFFE
FFF800FFFF
FFE000E000
C000000000
ENDCHAR
STARTCHAR 00C4
ENCODING 196
SWIDTH 630 0
DWIDTH 42 0
BBX 40 56 1 -2
BITMAP
0001C07800
0007E0FE00
0007F0FE00
0007F0FE00
000FF0FE00
0007E0FC00
0003E03800
0000000000
0000000000
00000F8000
00003F8000
00003FC000
00007FC000
00007FC000
00007FE000
0000FFE000
0000FFE000
0000FFE000
0001FFE000
0001FFF000
0003FFF000
0003FFF000
0003FFF000
0007FFF800
0007FFF800
0007FFF800
000FFFFC00
000FFFFC00
001FFFFC00
001FFFFE00
003FFFFE00
003FFFFE00
003FFFFE00
007F9FFF00
007F0FFF00
00FE0FFF00
00FE07FF80
01FC07FF80
01FC07FF80
03F83FFFC0
03FFFFFFC0
03FFFFFFE0
07FFFFFFE0
07FFFFFFE0
0FFFFFFFF0
0FFF87FFF0
1FFC07FFF8
1FFC03FFF8
3FF803FFFC
3FF803FFFC
3FF803FFFC
7FF801FFFE
7FF801FFFE
FFF800FFFF
FFE000E000
C000000000
ENDCHAR
STARTCHAR 00C5
ENCODING 197
SWIDTH 630 0
DWIDTH 42 0
BBX 40 60 1 -2
BITMAP
0000040000
0000FFC000
0003FFE000
0007FFF800
000FFFFC00
000FE1FC00
001FC0FC00
001FC0FE00
001F80FE00
001FC0FE00
001FC0FE00
001FC0FC00
000FE1FC00
000FFFF800
0007FFF000
0003FFE000
0000FFC000
00007FC000
00007FC000
0000FFE000
0000FFE000
0000FFE000
0001FFE000
0001FFF000
0003FFF000
0003FFF000
0003FFF000
0007FFF800
0007FFF800
0007FFF800
000FFFFC00
000FFFFC00
001FFFFC00
001FFFFE00
003FFFFE00
003FFFFE00
003FFFFE00
007F9FFF00
007F0FFF00
00FE0FFF00
00FE07FF80
01FC07FF80
01FC07FF80
03F83FFFC0
03FFFFFFC0
03FFFFFFE0
07FFFFFFE0
07FFFFFFE0
0FFFFFFFF0
0FFF87FFF0
1FFC07FFF8
1FFC03FFF8
3FF803FFFC
3FF803FFFC
3FF803FFFC
7FF801FFFE
7FF801FFFE
FFF800FFFF
FFE000E000
C000000000
ENDCHAR
STARTCHAR 00C6
ENCODING 198
SWIDTH 735 0
DWIDTH 49 0
BBX 47 47 1 -1
BITMAP
000001FFF800
00001FFFFF00
00003FFFFF80
00003FFFFF00
00007FFFFF00
00007FFFFF00
00007FFFFF00
0000FFFFFE00
0000FFFFFE00
0001FFFFFE00
0001FFFFFE00
0001FFFFFE00
0003FFFFFE00
0003FFFFFC00
0003FFFE0000
0007FFFC0000
0007FFFC0000
000FFFFE0000
000FFFFE0400
000FFFFEFE00
001FFFFFFE00
001FFFFFFC00
003FFFFFFC00
003FFFFFFE00
007F9FFFFE00
007F1FFFFE00
007F0FFF0000
00FE0FFF0000
00FE07FF8010
01FC07FFFFF8
01F807FFFFF8
03FC7FFFFFF8
03FFFFFFFFFC
07FFFFFFFFFC
07FFFFFFFFFC
07FFFFFFFFFC
0FFFE7FFFFFC
0FFF07FFFFFE
1FFC07FFFFFE
1FFC03FFFFFE
3FF803FFFFFE
3FF803FFFFFC
7FF801FFFFE0
7FF801FFFE00
7FF801FFE000
FFF800FC0000
FF0000400000
ENDCHAR
STARTCHAR 00C7
ENCODING 199
SWIDTH 480 0
DWIDTH 32 0
BBX 31 56 1 -11
BITMAP
0003FF00
000FFFC0
007FFFF0
01FFFFF8
03FFFFFC
07FFFFFE
0FFFFFFE
1FFFFFFE
3FFFFFFE
3FFFFFFC
3FFFFFFC
7FFFFFFC
7FFFFC68
7FFFC000
FFFF0000
FFFE0000
FFFC0000
FFFC0000
FFFC0000
FFF80000
FFF80000
FFF80000
FFFC0000
FFFC0000
FFFE0008
FFFF83FC
FFFFFFFC
FFFFFFFC
7FFFFFFC
7FFFFFFC
7FFFFFFC
7FFFFFFC
3FFFFFFC
3FFFFFFC
1FFFFFFC
1FFFFFFC
1FFFFFFC
0FFFFFFC
0FFFFFF0
07FFFFE0
03FFFFE0
03FFFFC0
003FFF00
003FFC00
003FC000
003FC000
001FE000
000FF800
0007FC00
0001FE00
0100FF00
07F9FF00
07FFFE00
07FFFE00
01FFFC00
007FF000
ENDCHAR
STARTCHAR 00C8
ENCODING 200
SWIDTH 495 0
DWIDTH 33 0
BBX 31 58 1 0
BITMAP
1F800000
FFC00000
FFC00000
7FE00000
3FF00000
1FF80000
07F80000
03FC0000
01FC0000
01F80000
00000000
00700000
07FFFC00
3FFFFF00
7FFFFF00
FFFFFF00
FFFFFF00
7FFFFE00
7FFFFE00
7FFFFE00
3FFFFE00
3FFFFE00
3FFFFE00
3FFFFE00
3FFFFC00
1FFFF800
1FFC0000
1FFC0000
1FFC0000
1FFC0000
1FFE1C00
0FFFFE00
0FFFFC00
0FFFFC00
0FFFFC00
0FFFFE00
07FFFE00
07FFE000
07FF0000
07FF0000
07FF0030
07FFFFF0
07FFFFF8
07FFFFF8
03FFFFF8
03FFFFFC
03FFFFFC
03FFFFFC
03FFFFFC
03FFFFFC
03FFFFFE
03FFFFFE
03FFFFFE
01FFFFF8
01FFFFC0
01FFF800
01FF8000
00D00000
ENDCHAR
STARTCHAR 00C9
ENCODING 201
SWIDTH 495 0
DWIDTH 33 0
BBX 31 59 1 0
BITMAP
0007F000
001FF000
003FE000
003FC000
003FC000
007F8000
007F0000
00FF0000
00FE0000
00FC0000
01FC0000
00000000
00700000
07FFFC00
3FFFFF00
7FFFFF00
FFFFFF00
FFFFFF00
7FFFFE00
7FFFFE00
7FFFFE00
3FFFFE00
3FFFFE00
3FFFFE00
3FFFFE00
3FFFFC00
1FFFF800
1FFC0000
1FFC0000
1FFC0000
1FFC0000
1FFE1C00
0FFFFE00
0FFFFC00
0FFFFC00
0FFFFC00
0FFFFE00
07FFFE00
07FFE000
07FF0000
07FF0000
07FF0030
07FFFFF0
07FFFFF8
07FFFFF8
03FFFFF8
03FFFFFC
03FFFFFC
03FFFFFC
03FFFFFC
03FFFFFC
03FFFFFE
03FFFFFE
03FFFFFE
01FFFFF8
01FFFFC0
01FFF800
01FF8000
00D00000
ENDCHAR
STARTCHAR 00CA
ENCODING 202
SWIDTH 495 0
DWIDTH 33 0
BBX 31 58 1 1
BITMAP
00F80000
03FC0000
07FF0000
0FFF8000
1FFFE000
3FFFF000
7FDFF000
FF8FF000
FF03E000
FE000000
30000000
00700000
07FFFC00
3FFFFF00
7FFFFF00
FFFFFF00
FFFFFF00
7FFFFE00
7FFFFE00
7FFFFE00
3FFFFE00
3FFFFE00
3FFFFE00
3FFFFE00
3FFFFC00
1FFFF800
1FFC0000
1FFC0000
1FFC0000
1FFC0000
1FFE1C00
0FFFFE00
0FFFFC00
0FFFFC00
0FFFFC00
0FFFFE00
07FFFE00
07FFE000
07FF0000
07FF0000
07FF0030
07FFFFF0
07FFFFF8
07FFFFF8
03FFFFF8
03FFFFFC
03FFFFFC
03FFFFFC
03FFFFFC
03FFFFFC
03FFFFFE
03FFFFFE
03FFFFFE
01FFFFF8
01FFFFC0
01FFF800
01FF8000
00D00000
ENDCHAR
STARTCHAR 00CB
ENCODING 203
SWIDTH 495 0
DWIDTH 33 0
BBX 31 55 1 0
BITMAP
0007C000
1C0FE000
3E0FE000
7F0FE000
7F0FE000
7F0FC000
7E038000
3E000000
00700000
07FFFC00
3FFFFF00
7FFFFF00
FFFFFF00
FFFFFF00
7FFFFE00
7FFFFE00
7FFFFE00
3FFFFE00
3FFFFE00
3FFFFE00
3FFFFE00
3FFFFC00
1FFFF800
1FFC0000
1FFC0000
1FFC0000
1FFC0000
1FFE1C00
0FFFFE00
0FFFFC00
0FFFFC00
0FFFFC00
0FFFFE00
07FFFE00
07FFE000
07FF0000
07FF0000
07FF0030
07FFFFF0
07FFFFF8
07FFFFF8
03FFFFF8
03FFFFFC
03FFFFFC
03FFFFFC
03FFFFFC
03FFFFFC
03FFFFFE
03FFFFFE
03FFFFFE
01FFFFF8
01FFFFC0
01FFF800
01FF8000
00D00000
ENDCHAR
STARTCHAR 00CC
ENCODING 204
SWIDTH 330 0
DWIDTH 22 0
BBX 20 58 1 0
BITMAP
0FF000
1FF800
0FF800
07FC00
03FC00
03FE00
01FF00
00FF00
007F00
003F80
003C00
000000
000000
03FF80
07FFF0
07FFF0
07FFF0
03FFE0
07FFE0
07FFE0
07FFE0
07FFE0
07FFE0
0FFFC0
0FFFC0
0FFFC0
0FFFC0
0FFFC0
0FFFC0
0FFFC0
0FFFC0
0FFFC0
0FFFC0
1FFFC0
1FFFC0
1FFFC0
1FFFC0
1FFFC0
1FFFC0
1FFFC0
1FFFC0
1FFFC0
1FFFC0
1FFFC0
1FFFC0
1FFFC0
1FFFC0
1FFFC0
1FFFC0
1FFFC0
1FFF80
3FFF80
3FFF80
3FFF80
3FFF80
7FFF00
7FF000
FE0000
ENDCHAR
STARTCHAR 00CD
ENCODING 205
SWIDTH 330 0
DWIDTH 22 0
BBX 23 58 1 0
BITMAP
0001FE
0003FE
0003FE
0007FC
000FF8
000FF0
001FE0
001FE0
003FC0
003F80
000700
000000
000000
03FF80
07FFF0
07FFF0
07FFF0
03FFE0
07FFE0
07FFE0
07FFE0
07FFE0
07FFE0
0FFFC0
0FFFC0
0FFFC0
0FFFC0
0FFFC0
0FFFC0
0FFFC0
0FFFC0
0FFFC0
0FFFC0
1FFFC0
1FFFC0
1FFFC0
1FFFC0
1FFFC0
1FFFC0
1FFFC0
1FFFC0
1FFFC0
1FFFC0
1FFFC0
1FFFC0
1FFFC0
1FFFC0
1FFFC0
1FFFC0
1FFFC0
1FFF80
3FFF80
3FFF80
3FFF80
3FFF80
7FFF00
7FF000
FE0000
ENDCHAR
STARTCHAR 00CE
ENCODING 206
SWIDTH 330 0
DWIDTH 22 0
BBX 23 58 1 0
BITMAP
000600
003F00
007F80
01FFE0
03FFF0
07FFF8
0FFFFC
1FFBFE
1FF1FE
1FC0FE
060038
000000
000000
03FF80
07FFF0
07FFF0
07FFF0
03FFE0
07FFE0
07FFE0
07FFE0
07FFE0
07FFE0
0FFFC0
0FFFC0
0FFFC0
0FFFC0
0FFFC0
0FFFC0
0FFFC0
0FFFC0
0FFFC0
0FFFC0
1FFFC0
1FFFC0
1FFFC0
1FFFC0
1FFFC0
1FFFC0
1FFFC0
1FFFC0
1FFFC0
1FFFC0
1FFFC0
1FFFC0
1FFFC0
1FFFC0
1FFFC0
1FFFC0
1FFFC0
1FFF80
3FFF80
3FFF80
3FFF80
3FFF80
7FFF00
7FF000
FE0000
ENDCHAR
STARTCHAR 00CF
ENCODING 207
SWIDTH 330 0
DWIDTH 22 0
BBX 22 54 1 0
BITMAP
0380F8
07E0FC
0FE1FC
0FE1FC
0FE1FC
0FE0FC
07C078
000000
000000
03FF80
07FFF0
07FFF0
07FFF0
03FFE0
07FFE0
07FFE0
07FFE0
07FFE0
07FFE0
0FFFC0
0FFFC0
0FFFC0
0FFFC0
0FFFC0
0FFFC0
0FFFC0
0FFFC0
0FFFC0
0FFFC0
1FFFC0
1FFFC0
1FFFC0
1FFFC0
1FFFC0
1FFFC0
1FFFC0
1FFFC0
1FFFC0
1FFFC0
1FFFC0
1FFFC0
1FFFC0
1FFFC0
1FFFC0
1FFFC0
1FFFC0
1FFF80
3FFF80
3FFF80
3FFF80
3FFF80
7FFF00
7FF000
FE0000
ENDCHAR
STARTCHAR 00D0
ENCODING 208
SWIDTH 480 0
DWIDTH 32 0
BBX 32 46 0 0
BITMAP
00E00000
07FF8000
1FFFF000
1FFFFC00
1FFFFF00
1FFFFF80
1FFFFFC0
1FFFFFC0
1FFFFFE0
1FFFFFF0
1FFFFFF8
1FFFFFF8
1FFFFFFC
1FFF0FFC
1FFF03FE
0FFFF1FE
0FFFF1FE
1FFFF1FF
FFFFF1FF
FFFFF1FF
FFFFF1FF
FFFFF3FF
FFFFFBFF
FFFFF7FE
7FFF07FE
7FFF0FFC
37FF1FFC
07FFBFF8
07FFFFF8
03FFFFF0
03FFFFF0
03FFFFE0
03FFFFE0
03FFFFC0
01FFFFC0
01FFFF80
01FFFF00
01FFFF00
00FFFE00
00FFFC00
00FFF800
00FFE000
007F8000
007E0000
00780000
00600000
ENDCHAR
STARTCHAR 00D1
ENCODING 209
SWIDTH 555 0
DWIDTH 37 0
BBX 36 56 1 1
BITMAP
0003C0FC00
0007F0FC00
000FF8FC00
001FFFFC00
001FFFFC00
001FFFFC00
001FFFF800
001FBFF000
001F1FE000
001F03C000
0000000000
0000000000
0000000400
03FE003FC0
0FFFC1FFE0
0FFFC1FFF0
0FFFC1FFF0
0FFFC1FFF0
0FFF81FFE0
0FFFC1FFE0
1FFFC1FFE0
1FFFC1FFE0
1FFFC1FFE0
1FFFC1FFE0
1FFFE3FFE0
1FFFE3FFE0
1FFFE3FFE0
3FFFE3FFC0
3FFFF3FFC0
3FFFF3FFC0
3FFFF3FFC0
3FFFFBFFC0
3FFFFBFFC0
3FFFFBFFC0
3FFFFBFFC0
3FFFFFFFC0
3FFFFFFFC0
3FFFFFFF80
7FFFFFFF80
7FFFFFFF80
7FFCFFFF80
7FFCFFFF80
7FFC7FFF80
7FFC7FFF80
7FFC7FFF80
7FFC3FFF80
7FFC3FFF80
7FFC3FFF80
7FFC1FFF80
7FFC1FFF80
7FFC1FFF80
7FFC1FFF80
FFFC1FFF80
FFFC1FFF80
FFFC1FFF00
FFE007FC00
ENDCHAR
STARTCHAR 00D2
ENCODING 210
SWIDTH 525 0
DWIDTH 35 0
BBX 34 58 1 0
BITMAP
7F80000000
7FC0000000
7FC0000000
3FE0000000
1FE0000000
0FF0000000
0FF8000000
07F8000000
03F8000000
01FC000000
00E0000000
0018000000
003F000000
007FC00000
00FFF00000
01FFF80000
01FFFE0000
03FFFF8000
03FFFFC000
07FFFFE000
07FFFFE000
0FFFFFF000
0FFFFFF800
1FFFFFF800
1FFFFFFC00
1FFFFFFC00
3FFFFFFE00
3FFFFFFE00
7FFFFFFF00
7FFC1FFF00
7FFC0FFF80
7FF807FF80
FFF807FF80
FFF807FF80
FFF007FF80
FFF007FFC0
FFF007FFC0
FFF807FFC0
FFFC0FFFC0
FFFC0FFFC0
7FFF1FFFC0
7FFFFFFF80
7FFFFFFF80
7FFFFFFF80
3FFFFFFF80
3FFFFFFF80
3FFFFFFF00
1FFFFFFF00
1FFFFFFF00
1FFFFFFF00
0FFFFFFE00
0FFFFFFE00
07FFFFFC00
03FFFFFC00
01FFFFF800
007FFFE000
001FFFC000
0007FF0000
ENDCHAR
STARTCHAR 00D3
ENCODING 211
SWIDTH 525 0
DWIDTH 35 0
BBX 34 58 1 0
BITMAP
0001FE0000
0003FE0000
0007FE0000
0007FC0000
000FF80000
001FF00000
001FE00000
003FC00000
003F800000
003F800000
000F000000
0018000000
003F000000
007FC00000
00FFF00000
01FFF80000
01FFFE0000
03FFFF8000
03FFFFC000
07FFFFE000
07FFFFE000
0FFFFFF000
0FFFFFF800
1FFFFFF800
1FFFFFFC00
1FFFFFFC00
3FFFFFFE00
3FFFFFFE00
7FFFFFFF00
7FFC1FFF00
7FFC0FFF80
7FF807FF80
FFF807FF80
FFF807FF80
FFF007FF80
FFF007FFC0
FFF007FFC0
FFF807FFC0
FFFC0FFFC0
FFFC0FFFC0
7FFF1FFFC0
7FFFFFFF80
7FFFFFFF80
7FFFFFFF80
3FFFFFFF80
3FFFFFFF80
3FFFFFFF00
1FFFFFFF00
1FFFFFFF00
1FFFFFFF00
0FFFFFFE00
0FFFFFFE00
07FFFFFC00
03FFFFFC00
01FFFFF800
007FFFE000
001FFFC000
0007FF0000
ENDCHAR
STARTCHAR 00D4
ENCODING 212
SWIDTH 525 0
DWIDTH 35 0
BBX 34 58 1 0
BITMAP
0038000000
007E000000
01FF800000
03FFC00000
07FFE00000
0FFFF00000
1FFFF80000
3FE7FC0000
3F83FC0000
1F01F80000
0000000000
0018000000
003F000000
007FC00000
00FFF00000
01FFF80000
01FFFE0000
03FFFF8000
03FFFFC000
07FFFFE000
07FFFFE000
0FFFFFF000
0FFFFFF800
1FFFFFF800
1FFFFFFC00
1FFFFFFC00
3FFFFFFE00
3FFFFFFE00
7FFFFFFF00
7FFC1FFF00
7FFC0FFF80
7FF807FF80
FFF807FF80
FFF807FF80
FFF007FF80
FFF007FFC0
FFF007FFC0
FFF807FFC0
FFFC0FFFC0
FFFC0FFFC0
7FFF1FFFC0
7FFFFFFF80
7FFFFFFF80
7FFFFFFF80
3FFFFFFF80
3FFFFFFF80
3FFFFFFF00
1FFFFFFF00
1FFFFFFF00
1FFFFFFF00
0FFFFFFE00
0FFFFFFE00
07FFFFFC00
03FFFFFC00
01FFFFF800
007FFFE000
001FFFC000
0007FF0000
ENDCHAR
STARTCHAR 00D5
ENCODING 213
SWIDTH 525 0
DWIDTH 35 0
BBX 34 58 1 0
BITMAP
0001F80000
0383F80000
0FE3F80000
1FFFF80000
3FFFF80000
3FFFF80000
3FFFF00000
3FFFE00000
3F7FE00000
3F1F800000
3F00000000
0018000000
003F000000
007FC00000
00FFF00000
01FFF80000
01FFFE0000
03FFFF8000
03FFFFC000
07FFFFE000
07FFFFE000
0FFFFFF000
0FFFFFF800
1FFFFFF800
1FFFFFFC00
1FFFFFFC00
3FFFFFFE00
3FFFFFFE00
7FFFFFFF00
7FFC1FFF00
7FFC0FFF80
7FF807FF80
FFF807FF80
FFF807FF80
FFF007FF80
FFF007FFC0
FFF007FFC0
FFF807FFC0
FFFC0FFFC0
FFFC0FFFC0
7FFF1FFFC0
7FFFFFFF80
7FFFFFFF80
7FFFFFFF80
3FFFFFFF80
3FFFFFFF80
3FFFFFFF00
1FFFFFFF00
1FFFFFFF00
1FFFFFFF00
0FFFFFFE00
0FFFFFFE00
07FFFFFC00
03FFFFFC00
01FFFFF800
007FFFE000
001FFFC000
0007FF0000
ENDCHAR
STARTCHAR 00D6
ENCODING 214
SWIDTH 525 0
DWIDTH 35 0
BBX 34 54 1 0
BITMAP
0701F00000
0F83F80000
1FC3F80000
1FC3F80000
1FC3F80000
1F83F00000
0F80E00000
0018000000
003F000000
007FC00000
00FFF00000
01FFF80000
01FFFE0000
03FFFF8000
03FFFFC000
07FFFFE000
07FFFFE000
0FFFFFF000
0FFFFFF800
1FFFFFF800
1FFFFFFC00
1FFFFFFC00
3FFFFFFE00
3FFFFFFE00
7FFFFFFF00
7FFC1FFF00
7FFC0FFF80
7FF807FF80
FFF807FF80
FFF807FF80
FFF007FF80
FFF007FFC0
FFF007FFC0
FFF807FFC0
FFFC0FFFC0
FFFC0FFFC0
7FFF1FFFC0
7FFFFFFF80
7FFFFFFF80
7FFFFFFF80
3FFFFFFF80
3FFFFFFF80
3FFFFFFF00
1FFFFFFF00
1FFFFFFF00
1FFFFFFF00
0FFFFFFE00
0FFFFFFE00
07FFFFFC00
03FFFFFC00
01FFFFF800
007FFFE000
001FFFC000
0007FF0000
ENDCHAR
STARTCHAR 00D7
ENCODING 215
SWIDTH 420 0
DWIDTH 28 0
BBX 27 27 1 10
BITMAP
06000C00
07001C00
0FC03E00
1FC07F00
3FE0FF80
7FF1FFC0
FFFBFFE0
7FFFFFC0
3FFFFF80
3FFFFF00
1FFFFE00
07FFFC00
03FFF800
01FFF000
03FFF800
07FFF800
0FFFFC00
0FFFFF00
3FFFFF80
7FFFFFC0
FFFFFFE0
FFF1FFC0
7FE0FF80
3FC07F00
1F803E00
07001C00
02000800
ENDCHAR
STARTCHAR 00D8
ENCODING 216
SWIDTH 525 0
DWIDTH 35 0
BBX 36 48 0 -1
BITMAP
000C003FF0
001F807FF0
003FE07FE0
007FF8FFE0
00FFFDFFC0
00FFFFFFC0
01FFFFFF80
01FFFFFF80
03FFFFFF00
03FFFFFE00
07FFFFFE00
07FFFFFC00
0FFFFFFC00
0FFFFFFE00
0FFFFFFE00
1FFFFFFF00
1FFFFFFF00
3FFFFFFF80
3FFDFFFF80
3FF1FFFFC0
3FF3FFFFC0
7FE3FFFFC0
7FE7FFFFC0
7FC7FDFFE0
7FCFFDFFE0
7FCFF9FFE0
7FDFF1FFE0
7FFFF1FFE0
7FFFE3FFE0
3FFFC7FFE0
3FFFCFFFC0
3FFFFFFFC0
3FFFFFFFC0
1FFFFFFFC0
1FFFFFFFC0
1FFFFFFF80
0FFFFFFF80
0FFFFFFF80
0FFFFFFF80
0FFFFFFF00
1FFFFFFF00
3FFFFFFE00
3FFFFFFE00
7FFFFFFC00
FFBFFFF000
FF8FFFE000
CF03FF8000
0600000000
ENDCHAR
STARTCHAR 00D9
ENCODING 217
SWIDTH 540 0
DWIDTH 36 0
BBX 35 57 1 1
BITMAP
007F800000
00FF800000
007FC00000
003FE00000
003FE00000
001FF00000
000FF80000
0007F80000
0003F80000
0001FC0000
0001E00000
0000000000
0600000000
0FF800FF80
0FFC00FFC0
0FFC01FFC0
0FFC01FFC0
1FF800FFC0
1FF800FFC0
1FF800FFC0
1FF800FFC0
3FF800FFC0
3FF800FFC0
3FF800FFC0
3FF800FFC0
3FF000FFC0
7FF001FFC0
7FF001FFC0
7FF001FFC0
7FF001FFC0
7FF001FFC0
FFF001FFC0
FFF801FFC0
FFF803FFE0
FFF803FFE0
FFFC03FFE0
FFFE03FFC0
FFFF07FFC0
FFFFC7FFC0
7FFFFFFF80
7FFFFFFF80
7FFFFFFF80
7FFFFFFF00
7FFFFFFF00
7FFFFFFF00
3FFFFFFE00
3FFFFFFE00
1FFFFFFE00
1FFFFFFC00
0FFFFFF800
0FFFFFF000
07FFFFE000
07FFFFE000
03FFFFC000
00FFFF8000
003FFF0000
0007F00000
ENDCHAR
STARTCHAR 00DA
ENCODING 218
SWIDTH 540 0
DWIDTH 36 0
BBX 35 57 1 1
BITMAP
000003FC00
000007FC00
00000FFC00
00000FF800
00001FF000
00001FE000
00003FC000
00003F8000
00007F0000
00007F0000
00000E0000
0000000000
0600000000
0FF800FF80
0FFC00FFC0
0FFC01FFC0
0FFC01FFC0
1FF800FFC0
1FF800FFC0
1FF800FFC0
1FF800FFC0
3FF800FFC0
3FF800FFC0
3FF800FFC0
3FF800FFC0
3FF000FFC0
7FF001FFC0
7FF001FFC0
7FF001FFC0
7FF001FFC0
7FF001FFC0
FFF001FFC0
FFF801FFC0
FFF803FFE0
FFF803FFE0
FFFC03FFE0
FFFE03FFC0
FFFF07FFC0
FFFFC7FFC0
7FFFFFFF80
7FFFFFFF80
7FFFFFFF80
7FFFFFFF00
7FFFFFFF00
7FFFFFFF00
3FFFFFFE00
3FFFFFFE00
1FFFFFFE00
1FFFFFFC00
0FFFFFF800
0FFFFFF000
07FFFFE000
07FFFFE000
03FFFFC000
00FFFF8000
003FFF0000
0007F00000
ENDCHAR
STARTCHAR 00DB
ENCODING 219
SWIDTH 540 0
DWIDTH 36 0
BBX 35 57 1 1
BITMAP
0000180000
00007E0000
0001FF0000
0003FF8000
0007FFC000
000FFFF000
001FFFF800
003FF7F800
007FC3FC00
003F81F800
001800E000
0000000000
0600000000
0FF800FF80
0FFC00FFC0
0FFC01FFC0
0FFC01FFC0
1FF800FFC0
1FF800FFC0
1FF800FFC0
1FF800FFC0
3FF800FFC0
3FF800FFC0
3FF800FFC0
3FF800FFC0
3FF000FFC0
7FF001FFC0
7FF001FFC0
7FF001FFC0
7FF001FFC0
7FF001FFC0
FFF001FFC0
FFF801FFC0
FFF803FFE0
FFF803FFE0
FFFC03FFE0
FFFE03FFC0
FFFF07FFC0
FFFFC7FFC0
7FFFFFFF80
7FFFFFFF80
7FFFFFFF80
7FFFFFFF00
7FFFFFFF00
7FFFFFFF00
3FFFFFFE00
3FFFFFFE00
1FFFFFFE00
1FFFFFFC00
0FFFFFF800
0FFFFFF000
07FFFFE000
07FFFFE000
03FFFFC000
00FFFF8000
003FFF0000
0007F00000
ENDCHAR
STARTCHAR 00DC
ENCODING 220
SWIDTH 540 0
DWIDTH 36 0
BBX 35 53 1 1
BITMAP
000F80E000
001F83F000
001FC3F800
001FC3F800
001FC3F800
001F83F800
000F01F000
0000000000
0600000000
0FF800FF80
0FFC00FFC0
0FFC01FFC0
0FFC01FFC0
1FF800FFC0
1FF800FFC0
1FF800FFC0
1FF800FFC0
3FF800FFC0
3FF800FFC0
3FF800FFC0
3FF800FFC0
3FF000FFC0
7FF001FFC0
7FF001FFC0
7FF001FFC0
7FF001FFC0
7FF001FFC0
FFF001FFC0
FFF801FFC0
FFF803FFE0
FFF803FFE0
FFFC03FFE0
FFFE03FFC0
FFFF07FFC0
FFFFC7FFC0
7FFFFFFF80
7FFFFFFF80
7FFFFFFF80
7FFFFFFF00
7FFFFFFF00
7FFFFFFF00
3FFFFFFE00
3FFFFFFE00
1FFFFFFE00
1FFFFFFC00
0FFFFFF800
0FFFFFF000
07FFFFE000
07FFFFE000
03FFFFC000
00FFFF8000
003FFF0000
0007F00000
ENDCHAR
STARTCHAR 00DD
ENCODING 221
SWIDTH 600 0
DWIDTH 40 0
BBX 39 58 1 0
BITMAP
000003FC00
000003FE00
000007FC00
00000FF800
00000FF800
00001FF000
00003FE000
00003FC000
00003F8000
00007F0000
00000F0000
0000000000
000000011E
0000000FFE
00C0001FFC
0BE0001FFC
7FF0001FF8
FFF8003FF8
FFF8003FF8
7FFC007FF0
7FFC007FF0
3FFE00FFE0
3FFE00FFE0
3FFF01FFC0
1FFF01FFC0
0FFF03FF80
0FFF83FF80
07FF87FF00
07FFC7FF00
03FFCFFE00
03FFCFFE00
01FFFFFC00
01FFFFFC00
00FFFFF800
00FFFFF800
007FFFF000
007FFFF000
003FFFE000
003FFFE000
001FFFE000
001FFFC000
000FFFC000
000FFF8000
0007FF0000
0003FF0000
0003FF8000
0003FF8000
0003FF8000
0003FF8000
0003FF8000
0003FF8000
0003FF8000
0003FF8000
0003FFC000
0003FFC000
0001FFC000
0001FF8000
0001FE0000
ENDCHAR
STARTCHAR 00DE
ENCODING 222
SWIDTH 495 0
DWIDTH 33 0
BBX 32 46 1 0
BITMAP
FFE00000
FFF00000
FFF00000
FFF00000
FFF00000
FFF00000
FFFE0000
FFFFF000
7FFFFE00
7FFFFF80
7FFFFFC0
7FFFFFC0
7FFFFFE0
FFFFFFF0
FFFFFFF0
7FFFFFF8
7FF03FF8
7FF00FF8
7FF007FC
7FF807FC
7FF807FC
7FF807FC
7FF807FE
7FF807FE
7FF807FE
3FF80FFE
3FF80FFE
3FFC1FFE
3FFC3FFE
3FFEFFFF
3FFFFFFF
3FFFFFFE
3FFFFFFC
3FFFFFF8
3FFFFFF0
3FFFFFC0
3FFFFF80
3FFE0000
3FFE0000
3FFE0000
3FFE0000
3FFE0000
3FFE0000
3FFE0000
3FFE0000
1FFE0000
ENDCHAR
STARTCHAR 00DF
ENCODING 223
SWIDTH 555 0
DWIDTH 37 0
BBX 36 51 1 -4
BITMAP
000C000000
01FFC00000
03FFF80000
07FFFE0000
0FFFFF0000
3FFFFF0000
3FFFFF0000
7FFFFF8000
7FFFFF8000
7FFFFFC000
FFF1FFC000
FFC07FC000
FFC03FE000
FFC03FC000
FFC03FC000
FFC03FC000
FFC03FC000
FFC07FC000
FFC07F8000
FFC0FF8000
FFC1FF0000
7FE1FE0000
7FE1FFC000
7FE1FFF800
7FE1FFFE00
7FE1FFFF00
7FE1FFFF80
7FE1FFFFC0
7FE0FFFFC0
7FE00FFFE0
7FE003FFE0
7FE001FFE0
7FE000FFE0
3FE000FFF0
3FF000FFF0
3FF000FFE0
3FF000FFE0
3FF001FFE0
3FF007FFE0
3FF07FFFE0
3FF07FFFE0
3FF07FFFC0
3FF07FFF80
3FF07FFF00
1FF07FFE00
1FF07FFC00
1FF03FE000
1FF0200000
1FF0000000
1FF0000000
0FE0000000
ENDCHAR
STARTCHAR 00E0
ENCODING 224
SWIDTH 630 0
DWIDTH 42 0
BBX 40 60 1 -2
BITMAP
001FE00000
003FE00000
001FF00000
000FF80000
000FF80000
0007FC0000
0003FE0000
0001FE0000
0000FE0000
00007F0000
0000780000
0000000000
0000000000
00000F8000
00003F8000
00003FC000
00007FC000
00007FC000
00007FE000
0000FFE000
0000FFE000
0000FFE000
0001FFE000
0001FFF000
0003FFF000
0003FFF000
0003FFF000
0007FFF800
0007FFF800
0007FFF800
000FFFFC00
000FFFFC00
001FFFFC00
001FFFFE00
003FFFFE00
003FFFFE00
003FFFFE00
007F9FFF00
007F0FFF00
00FE0FFF00
00FE07FF80
01FC07FF80
01FC07FF80
03F83FFFC0
03FFFFFFC0
03FFFFFFE0
07FFFFFFE0
07FFFFFFE0
0FFFFFFFF0
0FFF87FFF0
1FFC07FFF8
1FFC03FFF8
3FF803FFFC
3FF803FFFC
3FF803FFFC
7FF801FFFE
7FF801FFFE
FFF800FFFF
FFE000E000
C000000000
ENDCHAR
STARTCHAR 00E1
ENCODING 225
SWIDTH 630 0
DWIDTH 42 0
BBX 40 60 1 -2
BITMAP
000000FF00
000001FF00
000003FF00
000003FE00
000007FC00
000007F800
00000FF000
00000FE000
00001FC000
00001FC000
0000038000
0000000000
0000000000
00000F8000
00003F8000
00003FC000
00007FC000
00007FC000
00007FE000
0000FFE000
0000FFE000
0000FFE000
0001FFE000
0001FFF000
0003FFF000
0003FFF000
0003FFF000
0007FFF800
0007FFF800
0007FFF800
000FFFFC00
000FFFFC00
001FFFFC00
001FFFFE00
003FFFFE00
003FFFFE00
003FFFFE00
007F9FFF00
007F0FFF00
00FE0FFF00
00FE07FF80
01FC07FF80
01FC07FF80
03F83FFFC0
03FFFFFFC0
03FFFFFFE0
07FFFFFFE0
07FFFFFFE0
0FFFFFFFF0
0FFF87FFF0
1FFC07FFF8
1FFC03FFF8
3FF803FFFC
3FF803FFFC
3FF803FFFC
7FF801FFFE
7FF801FFFE
FFF800FFFF
FFE000E000
C000000000
ENDCHAR
STARTCHAR 00E2
ENCODING 226
SWIDTH 630 0
DWIDTH 42 0
BBX 40 60 1 -2
BITMAP
0000060000
00001F0000
00007FC000
0000FFE000
0003FFF000
0007FFF800
000FFFFC00
000FFBFE00
001FF1FE00
000FC07E00
0007003800
0000000000
0000000000
00000F8000
00003F8000
00003FC000
00007FC000
00007FC000
00007FE000
0000FFE000
0000FFE000
0000FFE000
0001FFE000
0001FFF000
0003FFF000
0003FFF000
0003FFF000
0007FFF800
0007FFF800
0007FFF800
000FFFFC00
000FFFFC00
001FFFFC00
001FFFFE00
003FFFFE00
003FFFFE00
003FFFFE00
007F9FFF00
007F0FFF00
00FE0FFF00
00FE07FF80
01FC07FF80
01FC07FF80
03F83FFFC0
03FFFFFFC0
03FFFFFFE0
07FFFFFFE0
07FFFFFFE0
0FFFFFFFF0
0FFF87FFF0
1FFC07FFF8
1FFC03FFF8
3FF803FFFC
3FF803FFFC
3FF803FFFC
7FF801FFFE
7FF801FFFE
FFF800FFFF
FFE000E000
C000000000
ENDCHAR
STARTCHAR 00E3
ENCODING 227
SWIDTH 630 0
DWIDTH 42 0
BBX 40 59 1 -2
BITMAP
0001E07E00
0003F87E00
0007FC7E00
000FFFFE00
000FFFFE00
000FFFFE00
000FFFFC00
000FDFF800
000F8FF000
000F81E000
0000000000
0000000000
00000F8000
00003F8000
00003FC000
00007FC000
00007FC000
00007FE000
0000FFE000
0000FFE000
0000FFE000
0001FFE000
0001FFF000
0003FFF000
0003FFF000
0003FFF000
0007FFF800
0007FFF800
0007FFF800
000FFFFC00
000FFFFC00
001FFFFC00
001FFFFE00
003FFFFE00
003FFFFE00
003FFFFE00
007F9FFF00
007F0FFF00
00FE0FFF00
00FE07FF80
01FC07FF80
01FC07FF80
03F83FFFC0
03FFFFFFC0
03FFFFFFE0
07FFFFFFE0
07FFFFFFE0
0FFFFFFFF0
0FFF87FFF0
1FFC07FFF8
1FFC03FFF8
3FF803FFFC
3FF803FFFC
3FF803FFFC
7FF801FFFE
7FF801FFFE
FFF800FFFF
FFE000E000
C000000000
ENDCHAR
STARTCHAR 00E4
ENCODING 228
SWIDTH 630 0
DWIDTH 42 0
BBX 40 56 1 -2
BITMAP
0001C07800
0007E0FE00
0007F0FE00
0007F0FE00
000FF0FE00
0007E0FC00
0003E03800
0000000000
0000000000
00000F8000
00003F8000
00003FC000
00007FC000
00007FC000
00007FE000
0000FFE000
0000FFE000
0000FFE000
0001FFE000
0001FFF000
0003FFF000
0003FFF000
0003FFF000
0007FFF800
0007FFF800
0007FFF800
000FFFFC00
000FFFFC00
001FFFFC00
001FFFFE00
003FFFFE00
003FFFFE00
003FFFFE00
007F9FFF00
007F0FFF00
00FE0FFF00
00FE07FF80
01FC07FF80
01FC07FF80
03F83FFFC0
03FFFFFFC0
03FFFFFFE0
07FFFFFFE0
07FFFFFFE0
0FFFFFFFF0
0FFF87FFF0
1FFC07FFF8
1FFC03FFF8
3FF803FFFC
3FF803FFFC
3FF803FFFC
7FF801FFFE
7FF801FFFE
FFF800FFFF
FFE000E000
C000000000
ENDCHAR
STARTCHAR 00E5
ENCODING 229
SWIDTH 630 0
DWIDTH 42 0
BBX 40 60 1 -2
BITMAP
0000040000
0000FFC000
0003FFE000
0007FFF800
000FFFFC00
000FE1FC00
001FC0FC00
001FC0FE00
001F80FE00
001FC0FE00
001FC0FE00
001FC0FC00
000FE1FC00
000FFFF800
0007FFF000
0003FFE000
0000FFC000
00007FC000
00007FC000
0000FFE000
0000FFE000
0000FFE000
0001FFE000
0001FFF000
0003FFF000
0003FFF000
0003FFF000
0007FFF800
0007FFF800
0007FFF800
000FFFFC00
000FFFFC00
001FFFFC00
001FFFFE00
003FFFFE00
003FFFFE00
003FFFFE00
007F9FFF00
007F0FFF00
00FE0FFF00
00FE07FF80
01FC07FF80
01FC07FF80
03F83FFFC0
03FFFFFFC0
03FFFFFFE0
07FFFFFFE0
07FFFFFFE0
0FFFFFFFF0
0FFF87FFF0
1FFC07FFF8
1FFC03FFF8
3FF803FFFC
3FF803FFFC
3FF803FFFC
7FF801FFFE
7FF801FFFE
FFF800FFFF
FFE000E000
C000000000
ENDCHAR
STARTCHAR 00E6
ENCODING 230
SWIDTH 735 0
DWIDTH 49 0
BBX 47 47 1 -1
BITMAP
000001FFF800
00001FFFFF00
00003FFFFF80
00003FFFFF00
00007FFFFF00
00007FFFFF00
00007FFFFF00
0000FFFFFE00
0000FFFFFE00
0001FFFFFE00
0001FFFFFE00
0001FFFFFE00
0003FFFFFE00
0003FFFFFC00
0003FFFE0000
0007FFFC0000
0007FFFC0000
000FFFFE0000
000FFFFE0400
000FFFFEFE00
001FFFFFFE00
001FFFFFFC00
003FFFFFFC00
003FFFFFFE00
007F9FFFFE00
007F1FFFFE00
007F0FFF0000
00FE0FFF0000
00FE07FF8010
01FC07FFFFF8
01F807FFFFF8
03FC7FFFFFF8
03FFFFFFFFFC
07FFFFFFFFFC
07FFFFFFFFFC
07FFFFFFFFFC
0FFFE7FFFFFC
0FFF07FFFFFE
1FFC07FFFFFE
1FFC03FFFFFE
3FF803FFFFFE
3FF803FFFFFC
7FF801FFFFE0
7FF801FFFE00
7FF801FFE000
FFF800FC0000
FF0000400000
ENDCHAR
STARTCHAR 00E7
ENCODING 231
SWIDTH 480 0
DWIDTH 32 0
BBX 31 56 1 -11
BITMAP
0003FF00
000FFFC0
007FFFF0
01FFFFF8
03FFFFFC
07FFFFFE
0FFFFFFE
1FFFFFFE
3FFFFFFE
3FFFFFFC
3FFFFFFC
7FFFFFFC
7FFFFC68
7FFFC000
FFFF0000
FFFE0000
FFFC0000
FFFC0000
FFFC0000
FFF80000
FFF80000
FFF80000
FFFC0000
FFFC0000
FFFE0008
FFFF83FC
FFFFFFFC
FFFFFFFC
7FFFFFFC
7FFFFFFC
7FFFFFFC
7FFFFFFC
3FFFFFFC
3FFFFFFC
1FFFFFFC
1FFFFFFC
1FFFFFFC
0FFFFFFC
0FFFFFF0
07FFFFE0
03FFFFE0
03FFFFC0
003FFF00
003FFC00
003FC000
003FC000
001FE000
000FF800
0007FC00
0001FE00
0100FF00
07F9FF00
07FFFE00
07FFFE00
01FFFC00
007FF000
ENDCHAR
STARTCHAR 00E8
ENCODING 232
SWIDTH 495 0
DWIDTH 33 0
BBX 31 58 1 0
BITMAP
1F800000
FFC00000
FFC00000
7FE00000
3FF00000
1FF80000
07F80000
03FC0000
01FC0000
01F80000
00000000
00700000
07FFFC00
3FFFFF00
7FFFFF00
FFFFFF00
FFFFFF00
7FFFFE00
7FFFFE00
7FFFFE00
3FFFFE00
3FFFFE00
3FFFFE00
3FFFFE00
3FFFFC00
1FFFF800
1FFC0000
1FFC0000
1FFC0000
1FFC0000
1FFE1C00
0FFFFE00
0FFFFC00
0FFFFC00
0FFFFC00
0FFFFE00
07FFFE00
07FFE000
07FF0000
07FF0000
07FF0030
07FFFFF0
07FFFFF8
07FFFFF8
03FFFFF8
03FFFFFC
03FFFFFC
03FFFFFC
03FFFFFC
03FFFFFC
03FFFFFE
03FFFFFE
03FFFFFE
01FFFFF8
01FFFFC0
01FFF800
01FF8000
00D00000
ENDCHAR
STARTCHAR 00E9
ENCODING 233
SWIDTH 495 0
DWIDTH 33 0
BBX 31 59 1 0
BITMAP
0007F000
001FF000
003FE000
003FC000
003FC000
007F8000
007F0000
00FF0000
00FE0000
00FC0000
01FC0000
00000000
00700000
07FFFC00
3FFFFF00
7FFFFF00
FFFFFF00
FFFFFF00
7FFFFE00
7FFFFE00
7FFFFE00
3FFFFE00
3FFFFE00
3FFFFE00
3FFFFE00
3FFFFC00
1FFFF800
1FFC0000
1FFC0000
1FFC0000
1FFC0000
1FFE1C00
0FFFFE00
0FFFFC00
0FFFFC00
0FFFFC00
0FFFFE00
07FFFE00
07FFE000
07FF0000
07FF0000
07FF0030
07FFFFF0
07FFFFF8
07FFFFF8
03FFFFF8
03FFFFFC
03FFFFFC
03FFFFFC
03FFFFFC
03FFFFFC
03FFFFFE
03FFFFFE
03FFFFFE
01FFFFF8
01FFFFC0
01FFF800
01FF8000
00D00000
ENDCHAR
STARTCHAR 00EA
ENCODING 234
SWIDTH 495 0
DWIDTH 33 0
BBX 31 58 1 1
BITMAP
00F80000
03FC0000
07FF0000
0FFF8000
1FFFE000
3FFFF000
7FDFF000
FF8FF000
FF03E000
FE000000
30000000
00700000
07FFFC00
3FFFFF00
7FFFFF00
FFFFFF00
FFFFFF00
7FFFFE00
7FFFFE00
7FFFFE00
3FFFFE00
3FFFFE00
3FFFFE00
3FFFFE00
3FFFFC00
1FFFF800
1FFC0000
1FFC0000
1FFC0000
1FFC0000
1FFE1C00
0FFFFE00
0FFFFC00
0FFFFC00
0FFFFC00
0FFFFE00
07FFFE00
07FFE000
07FF0000
07FF0000
07FF0030
07FFFFF0
07FFFFF8
07FFFFF8
03FFFFF8
03FFFFFC
03FFFFFC
03FFFFFC
03FFFFFC
03FFFFFC
03FFFFFE
03FFFFFE
03FFFFFE
01FFFFF8
01FFFFC0
01FFF800
01FF8000
00D00000
ENDCHAR
STARTCHAR 00EB
ENCODING 235
SWIDTH 495 0
DWIDTH 33 0
BBX 31 55 1 0
BITMAP
0007C000
1C0FE000
3E0FE000
7F0FE000
7F0FE000
7F0FC000
7E038000
3E000000
00700000
07FFFC00
3FFFFF00
7FFFFF00
FFFFFF00
FFFFFF00
7FFFFE00
7FFFFE00
7FFFFE00
3FFFFE00
3FFFFE00
3FFFFE00
3FFFFE00
3FFFFC00
1FFFF800
1FFC0000
1FFC0000
1FFC0000
1FFC0000
1FFE1C00
0FFFFE00
0FFFFC00
0FFFFC00
0FFFFC00
0FFFFE00
07FFFE00
07FFE000
07FF0000
07FF0000
07FF0030
07FFFFF0
07FFFFF8
07FFFFF8
03FFFFF8
03FFFFFC
03FFFFFC
03FFFFFC
03FFFFFC
03FFFFFC
03FFFFFE
03FFFFFE
03FFFFFE
01FFFFF8
01FFFFC0
01FFF800
01FF8000
00D00000
ENDCHAR
STARTCHAR 00EC
ENCODING 236
SWIDTH 330 0
DWIDTH 22 0
BBX 20 58 1 0
BITMAP
0FF000
1FF800
0FF800
07FC00
03FC00
03FE00
01FF00
00FF00
007F00
003F80
003C00
000000
000000
03FF80
07FFF0
07FFF0
07FFF0
03FFE0
07FFE0
07FFE0
07FFE0
07FFE0
07FFE0
0FFFC0
0FFFC0
0FFFC0
0FFFC0
0FFFC0
0FFFC0
0FFFC0
0FFFC0
0FFFC0
0FFFC0
1FFFC0
1FFFC0
1FFFC0
1FFFC0
1FFFC0
1FFFC0
1FFFC0
1FFFC0
1FFFC0
1FFFC0
1FFFC0
1FFFC0
1FFFC0
1FFFC0
1FFFC0
1FFFC0
1FFFC0
1FFF80
3FFF80
3FFF80
3FFF80
3FFF80
7FFF00
7FF000
FE0000
ENDCHAR
STARTCHAR 00ED
ENCODING 237
SWIDTH 330 0
DWIDTH 22 0
BBX 23 58 1 0
BITMAP
0001FE
0003FE
0003FE
0007FC
000FF8
000FF0
001FE0
001FE0
003FC0
003F80
000700
000000
000000
03FF80
07FFF0
07FFF0
07FFF0
03FFE0
07FFE0
07FFE0
07FFE0
07FFE0
07FFE0
0FFFC0
0FFFC0
0FFFC0
0FFFC0
0FFFC0
0FFFC0
0FFFC0
0FFFC0
0FFFC0
0FFFC0
1FFFC0
1FFFC0
1FFFC0
1FFFC0
1FFFC0
1FFFC0
1FFFC0
1FFFC0
1FFFC0
1FFFC0
1FFFC0
1FFFC0
1FFFC0
1FFFC0
1FFFC0
1FFFC0
1FFFC0
1FFF80
3FFF80
3FFF80
3FFF80
3FFF80
7FFF00
7FF000
FE0000
ENDCHAR
STARTCHAR 00EE
ENCODING 238
SWIDTH 330 0
DWIDTH 22 0
BBX 23 58 1 0
BITMAP
000600
003F00
007F80
01FFE0
03FFF0
07FFF8
0FFFFC
1FFBFE
1FF1FE
1FC0FE
060038
000000
000000
03FF80
07FFF0
07FFF0
07FFF0
03FFE0
07FFE0
07FFE0
07FFE0
07FFE0
07FFE0
0FFFC0
0FFFC0
0FFFC0
0FFFC0
0FFFC0
0FFFC0
0FFFC0
0FFFC0
0FFFC0
0FFFC0
1FFFC0
1FFFC0
1FFFC0
1FFFC0
1FFFC0
1FFFC0
1FFFC0
1FFFC0
1FFFC0
1FFFC0
1FFFC0
1FFFC0
1FFFC0
1FFFC0
1FFFC0
1FFFC0
1FFFC0
1FFF80
3FFF80
3FFF80
3FFF80
3FFF80
7FFF00
7FF000
FE0000
ENDCHAR
STARTCHAR 00EF
ENCODING 239
SWIDTH 330 0
DWIDTH 22 0
BBX 22 54 1 0
BITMAP
0380F8
07E0FC
0FE1FC
0FE1FC
0FE1FC
0FE0FC
07C078
000000
000000
03FF80
07FFF0
07FFF0
07FFF0
03FFE0
07FFE0
07FFE0
07FFE0
07FFE0
07FFE0
0FFFC0
0FFFC0
0FFFC0
0FFFC0
0FFFC0
0FFFC0
0FFFC0
0FFFC0
0FFFC0
0FFFC0
1FFFC0
1FFFC0
1FFFC0
1FFFC0
1FFFC0
1FFFC0
1FFFC0
1FFFC0
1FFFC0
1FFFC0
1FFFC0
1FFFC0
1FFFC0
1FFFC0
1FFFC0
1FFFC0
1FFFC0
1FFF80
3FFF80
3FFF80
3FFF80
3FFF80
7FFF00
7FF000
FE0000
ENDCHAR
STARTCHAR 00F0
ENCODING 240
SWIDTH 480 0
DWIDTH 32 0
BBX 32 46 0 0
BITMAP
00E00000
07FF8000
1FFFF000
1FFFFC00
1FFFFF00
1FFFFF80
1FFFFFC0
1FFFFFC0
1FFFFFE0
1FFFFFF0
1FFFFFF8
1FFFFFF8
1FFFFFFC
1FFF0FFC
1FFF03FE
0FFFF1FE
0FFFF1FE
1FFFF1FF
FFFFF1FF
FFFFF1FF
FFFFF1FF
FFFFF3FF
FFFFFBFF
FFFFF7FE
7FFF07FE
7FFF0FFC
37FF1FFC
07FFBFF8
07FFFFF8
03FFFFF0
03FFFFF0
03FFFFE0
03FFFFE0
03FFFFC0
01FFFFC0
01FFFF80
01FFFF00
01FFFF00
00FFFE00
00FFFC00
00FFF800
00FFE000
007F8000
007E0000
00780000
00600000
ENDCHAR
STARTCHAR 00F1
ENCODING 241
SWIDTH 555 0
DWIDTH 37 0
BBX 36 56 1 1
BITMAP
0003C0FC00
0007F0FC00
000FF8FC00
001FFFFC00
001FFFFC00
001FFFFC00
001FFFF800
001FBFF000
001F1FE000
001F03C000
0000000000
0000000000
0000000400
03FE003FC0
0FFFC1FFE0
0FFFC1FFF0
0FFFC1FFF0
0FFFC1FFF0
0FFF81FFE0
0FFFC1FFE0
1FFFC1FFE0
1FFFC1FFE0
1FFFC1FFE0
1FFFC1FFE0
1FFFE3FFE0
1FFFE3FFE0
1FFFE3FFE0
3FFFE3FFC0
3FFFF3FFC0
3FFFF3FFC0
3FFFF3FFC0
3FFFFBFFC0
3FFFFBFFC0
3FFFFBFFC0
3FFFFBFFC0
3FFFFFFFC0
3FFFFFFFC0
3FFFFFFF80
7FFFFFFF80
7FFFFFFF80
7FFCFFFF80
7FFCFFFF80
7FFC7FFF80
7FFC7FFF80
7FFC7FFF80
7FFC3FFF80
7FFC3FFF80
7FFC3FFF80
7FFC1FFF80
7FFC1FFF80
7FFC1FFF80
7FFC1FFF80
FFFC1FFF80
FFFC1FFF80
FFFC1FFF00
FFE007FC00
ENDCHAR
STARTCHAR 00F2
ENCODING 242
SWIDTH 525 0
DWIDTH 35 0
BBX 34 58 1 0
BITMAP
7F80000000
7FC0000000
7FC0000000
3FE0000000
1FE0000000
0FF0000000
0FF8000000
07F8000000
03F8000000
01FC000000
00E0000000
0018000000
003F000000
007FC00000
00FFF00000
01FFF80000
01FFFE0000
03FFFF8000
03FFFFC000
07FFFFE000
07FFFFE000
0FFFFFF000
0FFFFFF800
1FFFFFF800
1FFFFFFC00
1FFFFFFC00
3FFFFFFE00
3FFFFFFE00
7FFFFFFF00
7FFC1FFF00
7FFC0FFF80
7FF807FF80
FFF807FF80
FFF807FF80
FFF007FF80
FFF007FFC0
FFF007FFC0
FFF807FFC0
FFFC0FFFC0
FFFC0FFFC0
7FFF1FFFC0
7FFFFFFF80
7FFFFFFF80
7FFFFFFF80
3FFFFFFF80
3FFFFFFF80
3FFFFFFF00
1FFFFFFF00
1FFFFFFF00
1FFFFFFF00
0FFFFFFE00
0FFFFFFE00
07FFFFFC00
03FFFFFC00
01FFFFF800
007FFFE000
001FFFC000
0007FF0000
ENDCHAR
STARTCHAR 00F3
ENCODING 243
SWIDTH 525 0
DWIDTH 35 0
BBX 34 58 1 0
BITMAP
0001FE0000
0003FE0000
0007FE0000
0007FC0000
000FF80000
001FF00000
001FE00000
003FC00000
003F800000
003F800000
000F000000
0018000000
003F000000
007FC00000
00FFF00000
01FFF80000
01FFFE0000
03FFFF8000
03FFFFC000
07FFFFE000
07FFFFE000
0FFFFFF000
0FFFFFF800
1FFFFFF800
1FFFFFFC00
1FFFFFFC00
3FFFFFFE00
3FFFFFFE00
7FFFFFFF00
7FFC1FFF00
7FFC0FFF80
7FF807FF80
FFF807FF80
FFF807FF80
FFF007FF80
FFF007FFC0
FFF007FFC0
FFF807FFC0
FFFC0FFFC0
FFFC0FFFC0
7FFF1FFFC0
7FFFFFFF80
7FFFFFFF80
7FFFFFFF80
3FFFFFFF80
3FFFFFFF80
3FFFFFFF00
1FFFFFFF00
1FFFFFFF00
1FFFFFFF00
0FFFFFFE00
0FFFFFFE00
07FFFFFC00
03FFFFFC00
01FFFFF800
007FFFE000
001FFFC000
0007FF0000
ENDCHAR
STARTCHAR 00F4
ENCODING 244
SWIDTH 525 0
DWIDTH 35 0
BBX 34 58 1 0
BITMAP
0038000000
007E000000
01FF800000
03FFC00000
07FFE00000
0FFFF00000
1FFFF80000
3FE7FC0000
3F83FC0000
1F01F80000
0000000000
0018000000
003F000000
007FC00000
00FFF00000
01FFF80000
01FFFE0000
03FFFF8000
03FFFFC000
07FFFFE000
07FFFFE000
0FFFFFF000
0FFFFFF800
1FFFFFF800
1FFFFFFC00
1FFFFFFC00
3FFFFFFE00
3FFFFFFE00
7FFFFFFF00
7FFC1FFF00
7FFC0FFF80
7FF807FF80
FFF807FF80
FFF807FF80
FFF007FF80
FFF007FFC0
FFF007FFC0
FFF807FFC0
FFFC0FFFC0
FFFC0FFFC0
7FFF1FFFC0
7FFFFFFF80
7FFFFFFF80
7FFFFFFF80
3FFFFFFF80
3FFFFFFF80
3FFFFFFF00
1FFFFFFF00
1FFFFFFF00
1FFFFFFF00
0FFFFFFE00
0FFFFFFE00
07FFFFFC00
03FFFFFC00
01FFFFF800
007FFFE000
001FFFC000
0007FF0000
ENDCHAR
STARTCHAR 00F5
ENCODING 245
SWIDTH 525 0
DWIDTH 35 0
BBX 34 58 1 0
BITMAP
0001F80000
0383F80000
0FE3F80000
1FFFF80000
3FFFF80000
3FFFF80000
3FFFF00000
3FFFE00000
3F7FE00000
3F1F800000
3F00000000
0018000000
003F000000
007FC00000
00FFF00000
01FFF80000
01FFFE0000
03FFFF8000
03FFFFC000
07FFFFE000
07FFFFE000
0FFFFFF000
0FFFFFF800
1FFFFFF800
1FFFFFFC00
1FFFFFFC00
3FFFFFFE00
3FFFFFFE00
7FFFFFFF00
7FFC1FFF00
7FFC0FFF80
7FF807FF80
FFF807FF80
FFF807FF80
FFF007FF80
FFF007FFC0
FFF007FFC0
FFF807FFC0
FFFC0FFFC0
FFFC0FFFC0
7FFF1FFFC0
7FFFFFFF80
7FFFFFFF80
7FFFFFFF80
3FFFFFFF80
3FFFFFFF80
3FFFFFFF00
1FFFFFFF00
1FFFFFFF00
1FFFFFFF00
0FFFFFFE00
0FFFFFFE00
07FFFFFC00
03FFFFFC00
01FFFFF800
007FFFE000
001FFFC000
0007FF0000
ENDCHAR
STARTCHAR 00F6
ENCODING 246
SWIDTH 525 0
DWIDTH 35 0
BBX 34 54 1 0
BITMAP
0701F00000
0F83F80000
1FC3F80000
1FC3F80000
1FC3F80000
1F83F00000
0F80E00000
0018000000
003F000000
007FC00000
00FFF00000
01FFF80000
01FFFE0000
03FFFF8000
03FFFFC000
07FFFFE000
07FFFFE000
0FFFFFF000
0FFFFFF800
1FFFFFF800
1FFFFFFC00
1FFFFFFC00
3FFFFFFE00
3FFFFFFE00
7FFFFFFF00
7FFC1FFF00
7FFC0FFF80
7FF807FF80
FFF807FF80
FFF807FF80
FFF007FF80
FFF007FFC0
FFF007FFC0
FFF807FFC0
FFFC0FFFC0
FFFC0FFFC0
7FFF1FFFC0
7FFFFFFF80
7FFFFFFF80
7FFFFFFF80
3FFFFFFF80
3FFFFFFF80
3FFFFFFF00
1FFFFFFF00
1FFFFFFF00
1FFFFFFF00
0FFFFFFE00
0FFFFFFE00
07FFFFFC00
03FFFFFC00
01FFFFF800
007FFFE000
001FFFC000
0007FF0000
ENDCHAR
STARTCHAR 00F7
ENCODING 247
SWIDTH 480 0
DWIDTH 32 0
BBX 30 35 1 6
BITMAP
00078000
001FE000
001FF000
003FF000
003FF000
003FF000
003FF000
003FF000
003FF000
000FE000
00038000
00000000
00000000
7FFFFFFC
FFFFFFFC
FFFFFFFC
FFFFFFFC
FFFFFFFC
FFFFFFFC
FFFFFFFC
FFFFFFFC
7FFF0000
00000000
00000000
00070000
001FC000
003FE000
003FF000
003FF000
003FF000
003FF000
003FF000
003FE000
003FE000
000FC000
ENDCHAR
STARTCHAR 00F8
ENCODING 248
SWIDTH 525 0
DWIDTH 35 0
BBX 36 48 0 -1
BITMAP
000C003FF0
001F807FF0
003FE07FE0
007FF8FFE0
00FFFDFFC0
00FFFFFFC0
01FFFFFF80
01FFFFFF80
03FFFFFF00
03FFFFFE00
07FFFFFE00
07FFFFFC00
0FFFFFFC00
0FFFFFFE00
0FFFFFFE00
1FFFFFFF00
1FFFFFFF00
3FFFFFFF80
3FFDFFFF80
3FF1FFFFC0
3FF3FFFFC0
7FE3FFFFC0
7FE7FFFFC0
7FC7FDFFE0
7FCFFDFFE0
7FCFF9FFE0
7FDFF1FFE0
7FFFF1FFE0
7FFFE3FFE0
3FFFC7FFE0
3FFFCFFFC0
3FFFFFFFC0
3FFFFFFFC0
1FFFFFFFC0
1FFFFFFFC0
1FFFFFFF80
0FFFFFFF80
0FFFFFFF80
0FFFFFFF80
0FFFFFFF00
1FFFFFFF00
3FFFFFFE00
3FFFFFFE00
7FFFFFFC00
FFBFFFF000
FF8FFFE000
CF03FF8000
0600000000
ENDCHAR
STARTCHAR 00F9
ENCODING 249
SWIDTH 540 0
DWIDTH 36 0
BBX 35 57 1 1
BITMAP
007F800000
00FF800000
007FC00000
003FE00000
003FE00000
001FF00000
000FF80000
0007F80000
0003F80000
0001FC0000
0001E00000
0000000000
0600000000
0FF800FF80
0FFC00FFC0
0FFC01FFC0
0FFC01FFC0
1FF800FFC0
1FF800FFC0
1FF800FFC0
1FF800FFC0
3FF800FFC0
3FF800FFC0
3FF800FFC0
3FF800FFC0
3FF000FFC0
7FF001FFC0
7FF001FFC0
7FF001FFC0
7FF001FFC0
7FF001FFC0
FFF001FFC0
FFF801FFC0
FFF803FFE0
FFF803FFE0
FFFC03FFE0
FFFE03FFC0
FFFF07FFC0
FFFFC7FFC0
7FFFFFFF80
7FFFFFFF80
7FFFFFFF80
7FFFFFFF00
7FFFFFFF00
7FFFFFFF00
3FFFFFFE00
3FFFFFFE00
1FFFFFFE00
1FFFFFFC00
0FFFFFF800
0FFFFFF000
07FFFFE000
07FFFFE000
03FFFFC000
00FFFF8000
003FFF0000
0007F00000
ENDCHAR
STARTCHAR 00FA
ENCODING 250
SWIDTH 540 0
DWIDTH 36 0
BBX 35 57 1 1
BITMAP
000003FC00
000007FC00
00000FFC00
00000FF800
00001FF000
00001FE000
00003FC000
00003F8000
00007F0000
00007F0000
00000E0000
0000000000
0600000000
0FF800FF80
0FFC00FFC0
0FFC01FFC0
0FFC01FFC0
1FF800FFC0
1FF800FFC0
1FF800FFC0
1FF800FFC0
3FF800FFC0
3FF800FFC0
3FF800FFC0
3FF800FFC0
3FF000FFC0
7FF001FFC0
7FF001FFC0
7FF001FFC0
7FF001FFC0
7FF001FFC0
FFF001FFC0
FFF801FFC0
FFF803FFE0
FFF803FFE0
FFFC03FFE0
FFFE03FFC0
FFFF07FFC0
FFFFC7FFC0
7FFFFFFF80
7FFFFFFF80
7FFFFFFF80
7FFFFFFF00
7FFFFFFF00
7FFFFFFF00
3FFFFFFE00
3FFFFFFE00
1FFFFFFE00
1FFFFFFC00
0FFFFFF800
0FFFFFF000
07FFFFE000
07FFFFE000
03FFFFC000
00FFFF8000
003FFF0000
0007F00000
ENDCHAR
STARTCHAR 00FB
ENCODING 251
SWIDTH 540 0
DWIDTH 36 0
BBX 35 57 1 1
BITMAP
0000180000
00007E0000
0001FF0000
0003FF8000
0007FFC000
000FFFF000
001FFFF800
003FF7F800
007FC3FC00
003F81F800
001800E000
0000000000
0600000000
0FF800FF80
0FFC00FFC0
0FFC01FFC0
0FFC01FFC0
1FF800FFC0
1FF800FFC0
1FF800FFC0
1FF800FFC0
3FF800FFC0
3FF800FFC0
3FF800FFC0
3FF800FFC0
3FF000FFC0
7FF001FFC0
7FF001FFC0
7FF001FFC0
7FF001FFC0
7FF001FFC0
FFF001FFC0
FFF801FFC0
FFF803FFE0
FFF803FFE0
FFFC03FFE0
FFFE03FFC0
FFFF07FFC0
FFFFC7FFC0
7FFFFFFF80
7FFFFFFF80
7FFFFFFF80
7FFFFFFF00
7FFFFFFF00
7FFFFFFF00
3FFFFFFE00
3FFFFFFE00
1FFFFFFE00
1FFFFFFC00
0FFFFFF800
0FFFFFF000
07FFFFE000
07FFFFE000
03FFFFC000
00FFFF8000
003FFF0000
0007F00000
ENDCHAR
STARTCHAR 00FC
ENCODING 252
SWIDTH 540 0
DWIDTH 36 0
BBX 35 53 1 1
BITMAP
000F80E000
001F83F000
001FC3F800
001FC3F800
001FC3F800
001F83F800
000F01F000
0000000000
0600000000
0FF800FF80
0FFC00FFC0
0FFC01FFC0
0FFC01FFC0
1FF800FFC0
1FF800FFC0
1FF800FFC0
1FF800FFC0
3FF800FFC0
3FF800FFC0
3FF800FFC0
3FF800FFC0
3FF000FFC0
7FF001FFC0
7FF001FFC0
7FF001FFC0
7FF001FFC0
7FF001FFC0
FFF001FFC0
FFF801FFC0
FFF803FFE0
FFF803FFE0
FFFC03FFE0
FFFE03FFC0
FFFF07FFC0
FFFFC7FFC0
7FFFFFFF80
7FFFFFFF80
7FFFFFFF80
7FFFFFFF00
7FFFFFFF00
7FFFFFFF00
3FFFFFFE00
3FFFFFFE00
1FFFFFFE00
1FFFFFFC00
0FFFFFF800
0FFFFFF000
07FFFFE000
07FFFFE000
03FFFFC000
00FFFF8000
003FFF0000
0007F00000
ENDCHAR
STARTCHAR 00FD
ENCODING 253
SWIDTH 600 0
DWIDTH 40 0
BBX 39 58 1 0
BITMAP
000003FC00
000003FE00
000007FC00
00000FF800
00000FF800
00001FF000
00003FE000
00003FC000
00003F8000
00007F0000
00000F0000
0000000000
000000011E
0000000FFE
00C0001FFC
0BE0001FFC
7FF0001FF8
FFF8003FF8
FFF8003FF8
7FFC007FF0
7FFC007FF0
3FFE00FFE0
3FFE00FFE0
3FFF01FFC0
1FFF01FFC0
0FFF03FF80
0FFF83FF80
07FF87FF00
07FFC7FF00
03FFCFFE00
03FFCFFE00
01FFFFFC00
01FFFFFC00
00FFFFF800
00FFFFF800
007FFFF000
007FFFF000
003FFFE000
003FFFE000
001FFFE000
001FFFC000
000FFFC000
000FFF8000
0007FF0000
0003FF0000
0003FF8000
0003FF8000
0003FF8000
0003FF8000
0003FF8000
0003FF8000
0003FF8000
0003FF8000
0003FFC000
0003FFC000
0001FFC000
0001FF8000
0001FE0000
ENDCHAR
STARTCHAR 00FE
ENCODING 254
SWIDTH 495 0
DWIDTH 33 0
BBX 32 46 1 0
BITMAP
FFE00000
FFF00000
FFF00000
FFF00000
FFF00000
FFF00000
FFFE0000
FFFFF000
7FFFFE00
7FFFFF80
7FFFFFC0
7FFFFFC0
7FFFFFE0
FFFFFFF0
FFFFFFF0
7FFFFFF8
7FF03FF8
7FF00FF8
7FF007FC
7FF807FC
7FF807FC
7FF807FC
7FF807FE
7FF807FE
7FF807FE
3FF80FFE
3FF80FFE
3FFC1FFE
3FFC3FFE
3FFEFFFF
3FFFFFFF
3FFFFFFE
3FFFFFFC
3FFFFFF8
3FFFFFF0
3FFFFFC0
3FFFFF80
3FFE0000
3FFE0000
3FFE0000
3FFE0000
3FFE0000
3FFE0000
3FFE0000
3FFE0000
1FFE0000
ENDCHAR
STARTCHAR 00FF
ENCODING 255
SWIDTH 600 0
DWIDTH 40 0
BBX 39 54 1 0
BITMAP
000701E000
000F83F800
001FC3F800
001FC3F800
001FC3F800
001F83F000
000F80E000
0000000000
000000011E
0000000FFE
00C0001FFC
0BE0001FFC
7FF0001FF8
FFF8003FF8
FFF8003FF8
7FFC007FF0
7FFC007FF0
3FFE00FFE0
3FFE00FFE0
3FFF01FFC0
1FFF01FFC0
0FFF03FF80
0FFF83FF80
07FF87FF00
07FFC7FF00
03FFCFFE00
03FFCFFE00
01FFFFFC00
01FFFFFC00
00FFFFF800
00FFFFF800
007FFFF000
007FFFF000
003FFFE000
003FFFE000
001FFFE000
001FFFC000
000FFFC000
000FFF8000
0007FF0000
0003FF0000
0003FF8000
0003FF8000
0003FF8000
0003FF8000
0003FF8000
0003FF8000
0003FF8000
0003FF8000
0003FFC000
0003FFC000
0001FFC000
0001FF8000
0001FE0000
ENDCHAR
STARTCHAR 0100
ENCODING 256
SWIDTH 630 0
DWIDTH 42 0
BBX 40 56 1 -2
BITMAP
0001C3B000
000FFFFE00
000FFFFF00
000FFFFF00
000FFFFF00
000FFFFE00
0003000000
0000000000
0000000000
00000F8000
00003F8000
00003FC000
00007FC000
00007FC000
00007FE000
0000FFE000
0000FFE000
0000FFE000
0001FFE000
0001FFF000
0003FFF000
0003FFF000
0003FFF000
0007FFF800
0007FFF800
0007FFF800
000FFFFC00
000FFFFC00
001FFFFC00
001FFFFE00
003FFFFE00
003FFFFE00
003FFFFE00
007F9FFF00
007F0FFF00
00FE0FFF00
00FE07FF80
01FC07FF80
01FC07FF80
03F83FFFC0
03FFFFFFC0
03FFFFFFE0
07FFFFFFE0
07FFFFFFE0
0FFFFFFFF0
0FFF87FFF0
1FFC07FFF8
1FFC03FFF8
3FF803FFFC
3FF803FFFC
3FF803FFFC
7FF801FFFE
7FF801FFFE
FFF800FFFF
FFE000E000
C000000000
ENDCHAR
STARTCHAR 0101
ENCODING 257
SWIDTH 630 0
DWIDTH 42 0
BBX 40 56 1 -2
BITMAP
0001C3B000
000FFFFE00
000FFFFF00
000FFFFF00
000FFFFF00
000FFFFE00
0003000000
0000000000
0000000000
00000F8000
00003F8000
00003FC000
00007FC000
00007FC000
00007FE000
0000FFE000
0000FFE000
0000FFE000
0001FFE000
0001FFF000
0003FFF000
0003FFF000
0003FFF000
0007FFF800
0007FFF800
0007FFF800
000FFFFC00
000FFFFC00
001FFFFC00
001FFFFE00
003FFFFE00
003FFFFE00
003FFFFE00
007F9FFF00
007F0FFF00
00FE0FFF00
00FE07FF80
01FC07FF80
01FC07FF80
03F83FFFC0
03FFFFFFC0
03FFFFFFE0
07FFFFFFE0
07FFFFFFE0
0FFFFFFFF0
0FFF87FFF0
1FFC07FFF8
1FFC03FFF8
3FF803FFFC
3FF803FFFC
3FF803FFFC
7FF801FFFE
7FF801FFFE
FFF800FFFF
FFE000E000
C000000000
ENDCHAR
STARTCHAR 0102
ENCODING 258
SWIDTH 630 0
DWIDTH 42 0
BBX 40 59 1 -2
BITMAP
001F807E00
001F807E00
000FC0FE00
000FFFFC00
000FFFFC00
0007FFF800
0007FFF000
0001FFE000
0000FFC000
00003F0000
0000000000
0000000000
00000F8000
00003F8000
00003FC000
00007FC000
00007FC000
00007FE000
0000FFE000
0000FFE000
0000FFE000
0001FFE000
0001FFF000
0003FFF000
0003FFF000
0003FFF000
0007FFF800
0007FFF800
0007FFF800
000FFFFC00
000FFFFC00
001FFFFC00
001FFFFE00
003FFFFE00
003FFFFE00
003FFFFE00
007F9FFF00
007F0FFF00
00FE0FFF00
00FE07FF80
01FC07FF80
01FC07FF80
03F83FFFC0
03FFFFFFC0
03FFFFFFE0
07FFFFFFE0
07FFFFFFE0
0FFFFFFFF0
0FFF87FFF0
1FFC07FFF8
1FFC03FFF8
3FF803FFFC
3FF803FFFC
3FF803FFFC
7FF801FFFE
7FF801FFFE
FFF800FFFF
FFE000E000
C000000000
ENDCHAR
STARTCHAR 0103
ENCODING 259
SWIDTH 630 0
DWIDTH 42 0
BBX 40 59 1 -2
BITMAP
001F807E00
001F807E00
000FC0FE00
000FFFFC00
000FFFFC00
0007FFF800
0007FFF000
0001FFE000
0000FFC000
00003F0000
0000000000
0000000000
00000F8000
00003F8000
00003FC000
00007FC000
00007FC000
00007FE000
0000FFE000
0000FFE000
0000FFE000
0001FFE000
0001FFF000
0003FFF000
0003FFF000
0003FFF000
0007FFF800
0007FFF800
0007FFF800
000FFFFC00
000FFFFC00
001FFFFC00
001FFFFE00
003FFFFE00
003FFFFE00
003FFFFE00
007F9FFF00
007F0FFF00
00FE0FFF00
00FE07FF80
01FC07FF80
01FC07FF80
03F83FFFC0
03FFFFFFC0
03FFFFFFE0
07FFFFFFE0
07FFFFFFE0
0FFFFFFFF0
0FFF87FFF0
1FFC07FFF8
1FFC03FFF8
3FF803FFFC
3FF803FFFC
3FF803FFFC
7FF801FFFE
7FF801FFFE
FFF800FFFF
FFE000E000
C000000000
ENDCHAR
STARTCHAR 0104
ENCODING 260
SWIDTH 630 0
DWIDTH 42 0
BBX 40 56 1 -11
BITMAP
00000F8000
00003F8000
00003FC000
00007FC000
00007FC000
00007FE000
0000FFE000
0000FFE000
0000FFE000
0001FFE000
0001FFF000
0003FFF000
0003FFF000
0003FFF000
0007FFF800
0007FFF800
0007FFF800
000FFFFC00
000FFFFC00
001FFFFC00
001FFFFE00
003FFFFE00
003FFFFE00
003FFFFE00
007F9FFF00
007F0FFF00
00FE0FFF00
00FE07FF80
01FC07FF80
01FC07FF80
03F83FFFC0
03FFFFFFC0
03FFFFFFE0
07FFFFFFE0
07FFFFFFE0
0FFFFFFFF0
0FFF87FFF0
1FFC07FFF8
1FFC03FFF8
3FF803FFFC
3FF803FFFC
3FF803FFFC
7FF801FFFE
7FF801FFFE
FFF801FFFF
FFE003F000
C00003E000
000007E000
00000FE000
00000FE000
00000FE038
00000FFFF8
00000FFFF8
00000FFFF8
000007FFF8
000001FFF8
ENDCHAR
STARTCHAR 0105
ENCODING 261
SWIDTH 630 0
DWIDTH 42 0
BBX 40 56 1 -11
BITMAP
00000F8000
00003F8000
00003FC000
00007FC000
00007FC000
00007FE000
0000FFE000
0000FFE000
0000FFE000
0001FFE000
0001FFF000
0003FFF000
0003FFF000
0003FFF000
0007FFF800
0007FFF800
0007FFF800
000FFFFC00
000FFFFC00
001FFFFC00
001FFFFE00
003FFFFE00
003FFFFE00
003FFFFE00
007F9FFF00
007F0FFF00
00FE0FFF00
00FE07FF80
01FC07FF80
01FC07FF80
03F83FFFC0
03FFFFFFC0
03FFFFFFE0
07FFFFFFE0
07FFFFFFE0
0FFFFFFFF0
0FFF87FFF0
1FFC07FFF8
1FFC03FFF8
3FF803FFFC
3FF803FFFC
3FF803FFFC
7FF801FFFE
7FF801FFFE
FFF801FFFF
FFE003F000
C00003E000
000007E000
00000FE000
00000FE000
00000FE038
00000FFFF8
00000FFFF8
00000FFFF8
000007FFF8
000001FFF8
ENDCHAR
STARTCHAR 0106
ENCODING 262
SWIDTH 480 0
DWIDTH 32 0
BBX 31 57 1 1
BITMAP
000003F8
000007FC
00000FFC
00000FF8
00001FF0
00003FE0
00003FC0
00007F80
00007F00
00007F00
00000E00
00000000
00000000
0003FF00
000FFFC0
007FFFF0
01FFFFF8
03FFFFFC
07FFFFFE
0FFFFFFE
1FFFFFFE
3FFFFFFE
3FFFFFFC
3FFFFFFC
7FFFFFFC
7FFFFC68
7FFFC000
FFFF0000
FFFE0000
FFFC0000
FFFC0000
FFFC0000
FFF80000
FFF80000
FFF80000
FFFC0000
FFFC0000
FFFE0008
FFFF83FC
FFFFFFFC
FFFFFFFC
7FFFFFFC
7FFFFFFC
7FFFFFFC
7FFFFFFC
3FFFFFFC
3FFFFFFC
1FFFFFFC
1FFFFFFC
1FFFFFFC
0FFFFFFC
0FFFFFF0
07FFFFE0
03FFFFE0
03FFFFC0
003FFF00
0003FC00
ENDCHAR
STARTCHAR 0107
ENCODING 263
SWIDTH 480 0
DWIDTH 32 0
BBX 31 57 1 1
BITMAP
000003F8
000007FC
00000FFC
00000FF8
00001FF0
00003FE0
00003FC0
00007F80
00007F00
00007F00
00000E00
00000000
00000000
0003FF00
000FFFC0
007FFFF0
01FFFFF8
03FFFFFC
07FFFFFE
0FFFFFFE
1FFFFFFE
3FFFFFFE
3FFFFFFC
3FFFFFFC
7FFFFFFC
7FFFFC68
7FFFC000
FFFF0000
FFFE0000
FFFC0000
FFFC0000
FFFC0000
FFF80000
FFF80000
FFF80000
FFFC0000
FFFC0000
FFFE0008
FFFF83FC
FFFFFFFC
FFFFFFFC
7FFFFFFC
7FFFFFFC
7FFFFFFC
7FFFFFFC
3FFFFFFC
3FFFFFFC
1FFFFFFC
1FFFFFFC
1FFFFFFC
0FFFFFFC
0FFFFFF0
07FFFFE0
03FFFFE0
03FFFFC0
003FFF00
0003FC00
ENDCHAR
STARTCHAR 0108
ENCODING 264
SWIDTH 480 0
DWIDTH 32 0
BBX 31 57 1 1
BITMAP
00001800
0000FC00
0001FE00
0007FF80
000FFFC0
001FFFE0
003FFFF0
007FEFF8
007F87F8
007F03F8
001800E0
00000000
00000000
0003FF00
000FFFC0
007FFFF0
01FFFFF8
03FFFFFC
07FFFFFE
0FFFFFFE
1FFFFFFE
3FFFFFFE
3FFFFFFC
3FFFFFFC
7FFFFFFC
7FFFFC68
7FFFC000
FFFF0000
FFFE0000
FFFC0000
FFFC0000
FFFC0000
FFF80000
FFF80000
FFF80000
FFFC0000
FFFC0000
FFFE0008
FFFF83FC
FFFFFFFC
FFFFFFFC
7FFFFFFC
7FFFFFFC
7FFFFFFC
7FFFFFFC
3FFFFFFC
3FFFFFFC
1FFFFFFC
1FFFFFFC
1FFFFFFC
0FFFFFFC
0FFFFFF0
07FFFFE0
03FFFFE0
03FFFFC0
003FFF00
0003FC00
ENDCHAR
STARTCHAR 0109
ENCODING 265
SWIDTH 480 0
DWIDTH 32 0
BBX 31 57 1 1
BITMAP
00001800
0000FC00
0001FE00
0007FF80
000FFFC0
001FFFE0
003FFFF0
007FEFF8
007F87F8
007F03F8
001800E0
00000000
00000000
0003FF00
000FFFC0
007FFFF0
01FFFFF8
03FFFFFC
07FFFFFE
0FFFFFFE
1FFFFFFE
3FFFFFFE
3FFFFFFC
3FFFFFFC
7FFFFFFC
7FFFFC68
7FFFC000
FFFF0000
FFFE0000
FFFC0000
FFFC0000
FFFC0000
FFF80000
FFF80000
FFF80000
FFFC0000
FFFC0000
FFFE0008
FFFF83FC
FFFFFFFC
FFFFFFFC
7FFFFFFC
7FFFFFFC
7FFFFFFC
7FFFFFFC
3FFFFFFC
3FFFFFFC
1FFFFFFC
1FFFFFFC
1FFFFFFC
0FFFFFFC
0FFFFFF0
07FFFFE0
03FFFFE0
03FFFFC0
003FFF00
0003FC00
ENDCHAR
STARTCHAR 010A
ENCODING 266
SWIDTH 480 0
DWIDTH 32 0
BBX 31 53 1 1
BITMAP
00007000
0000FC00
0001FC00
0001FC00
0001FC00
0001F800
0000F800
00000000
00000000
0003FF00
000FFFC0
007FFFF0
01FFFFF8
03FFFFFC
07FFFFFE
0FFFFFFE
1FFFFFFE
3FFFFFFE
3FFFFFFC
3FFFFFFC
7FFFFFFC
7FFFFC68
7FFFC000
FFFF0000
FFFE0000
FFFC0000
FFFC0000
FFFC0000
FFF80000
FFF80000
FFF80000
FFFC0000
FFFC0000
FFFE0008
FFFF83FC
FFFFFFFC
FFFFFFFC
7FFFFFFC
7FFFFFFC
7FFFFFFC
7FFFFFFC
3FFFFFFC
3FFFFFFC
1FFFFFFC
1FFFFFFC
1FFFFFFC
0FFFFFFC
0FFFFFF0
07FFFFE0
03FFFFE0
03FFFFC0
003FFF00
0003FC00
ENDCHAR
STARTCHAR 010B
ENCODING 267
SWIDTH 480 0
DWIDTH 32 0
BBX 31 53 1 1
BITMAP
00007000
0000FC00
0001FC00
0001FC00
0001FC00
0001F800
0000F800
00000000
00000000
0003FF00
000FFFC0
007FFFF0
01FFFFF8
03FFFFFC
07FFFFFE
0FFFFFFE
1FFFFFFE
3FFFFFFE
3FFFFFFC
3FFFFFFC
7FFFFFFC
7FFFFC68
7FFFC000
FFFF0000
FFFE0000
FFFC0000
FFFC0000
FFFC0000
FFF80000
FFF80000
FFF80000
FFFC0000
FFFC0000
FFFE0008
FFFF83FC
FFFFFFFC
FFFFFFFC
7FFFFFFC
7FFFFFFC
7FFFFFFC
7FFFFFFC
3FFFFFFC
3FFFFFFC
1FFFFFFC
1FFFFFFC
1FFFFFFC
0FFFFFFC
0FFFFFF0
07FFFFE0
03FFFFE0
03FFFFC0
003FFF00
0003FC00
ENDCHAR
STARTCHAR 010C
ENCODING 268
SWIDTH 480 0
DWIDTH 32 0
BBX 31 57 1 1
BITMAP
00040000
007E03F0
007F07F8
007F9FF8
003FFFF0
001FFFE0
000FFFC0
0007FF80
0003FF00
0000FC00
00007000
00000000
00000000
0003FF00
000FFFC0
007FFFF0
01FFFFF8
03FFFFFC
07FFFFFE
0FFFFFFE
1FFFFFFE
3FFFFFFE
3FFFFFFC
3FFFFFFC
7FFFFFFC
7FFFFC68
7FFFC000
FFFF0000
FFFE0000
FFFC0000
FFFC0000
FFFC0000
FFF80000
FFF80000
FFF80000
FFFC0000
FFFC0000
FFFE0008
FFFF83FC
FFFFFFFC
FFFFFFFC
7FFFFFFC
7FFFFFFC
7FFFFFFC
7FFFFFFC
3FFFFFFC
3FFFFFFC
1FFFFFFC
1FFFFFFC
1FFFFFFC
0FFFFFFC
0FFFFFF0
07FFFFE0
03FFFFE0
03FFFFC0
003FFF00
0003FC00
ENDCHAR
STARTCHAR 010D
ENCODING 269
SWIDTH 480 0
DWIDTH 32 0
BBX 31 57 1 1
BITMAP
00040000
007E03F0
007F07F8
007F9FF8
003FFFF0
001FFFE0
000FFFC0
0007FF80
0003FF00
0000FC00
00007000
00000000
00000000
0003FF00
000FFFC0
007FFFF0
01FFFFF8
03FFFFFC
07FFFFFE
0FFFFFFE
1FFFFFFE
3FFFFFFE
3FFFFFFC
3FFFFFFC
7FFFFFFC
7FFFFC68
7FFFC000
FFFF0000
FFFE0000
FFFC0000
FFFC0000
FFFC0000
FFF80000
FFF80000
FFF80000
FFFC0000
FFFC0000
FFFE0008
FFFF83FC
FFFFFFFC
FFFFFFFC
7FFFFFFC
7FFFFFFC
7FFFFFFC
7FFFFFFC
3FFFFFFC
3FFFFFFC
1FFFFFFC
1FFFFFFC
1FFFFFFC
0FFFFFFC
0FFFFFF0
07FFFFE0
03FFFFE0
03FFFFC0
003FFF00
0003FC00
ENDCHAR
STARTCHAR 010E
ENCODING 270
SWIDTH 450 0
DWIDTH 30 0
BBX 29 58 1 1
BITMAP
0003F000
7C0FF000
FF1FF000
FFBFE000
FFFFC000
7FFF8000
1FFF0000
0FFF0000
03FC0000
01F80000
00600000
00000000
07000000
3FFC0000
FFFF0000
FFFFE000
FFFFF800
FFFFFC00
FFFFFE00
FFFFFE00
FFFFFF00
FFFFFF80
FFFFFFC0
FFFFFFC0
FFFFFFE0
FFF8FFE0
FFF83FF0
FFF00FF0
7FF00FF0
7FF00FF8
7FF00FF8
7FF80FF8
7FF80FF8
7FF81FF8
7FF81FF0
7FF83FF0
3FF83FF0
3FF87FE0
3FF8FFE0
3FFDFFC0
3FFFFFC0
3FFFFF80
1FFFFF80
1FFFFF00
1FFFFF00
1FFFFE00
0FFFFE00
0FFFFC00
0FFFF800
0FFFF000
0FFFF000
07FFE000
07FFC000
07FF0000
07FC0000
03F00000
03C00000
03000000
ENDCHAR
STARTCHAR 010F
ENCODING 271
SWIDTH 450 0
DWIDTH 30 0
BBX 29 58 1 1
BITMAP
0003F000
7C0FF000
FF1FF000
FFBFE000
FFFFC000
7FFF8000
1FFF0000
0FFF0000
03FC0000
01F80000
00600000
00000000
07000000
3FFC0000
FFFF0000
FFFFE000
FFFFF800
FFFFFC00
FFFFFE00
FFFFFE00
FFFFFF00
FFFFFF80
FFFFFFC0
FFFFFFC0
FFFFFFE0
FFF8FFE0
FFF83FF0
FFF00FF0
7FF00FF0
7FF00FF8
7FF00FF8
7FF80FF8
7FF80FF8
7FF81FF8
7FF81FF0
7FF83FF0
3FF83FF0
3FF87FE0
3FF8FFE0
3FFDFFC0
3FFFFFC0
3FFFFF80
1FFFFF80
1FFFFF00
1FFFFF00
1FFFFE00
0FFFFE00
0FFFFC00
0FFFF800
0FFFF000
0FFFF000
07FFE000
07FFC000
07FF0000
07FC0000
03F00000
03C00000
03000000
ENDCHAR
STARTCHAR 0110
ENCODING 272
SWIDTH 480 0
DWIDTH 32 0
BBX 32 46 0 0
BITMAP
00E00000
07FF8000
1FFFF000
1FFFFC00
1FFFFF00
1FFFFF80
1FFFFFC0
1FFFFFC0
1FFFFFE0
1FFFFFF0
1FFFFFF8
1FFFFFF8
1FFFFFFC
1FFF0FFC
1FFF03FE
0FFFF1FE
0FFFF1FE
1FFFF1FF
FFFFF1FF
FFFFF1FF
FFFFF1FF
FFFFF3FF
FFFFFBFF
FFFFF7FE
7FFF07FE
7FFF0FFC
37FF1FFC
07FFBFF8
07FFFFF8
03FFFFF0
03FFFFF0
03FFFFE0
03FFFFE0
03FFFFC0
01FFFFC0
01FFFF80
01FFFF00
01FFFF00
00FFFE00
00FFFC00
00FFF800
00FFE000
007F8000
007E0000
00780000
00600000
ENDCHAR
STARTCHAR 0111
ENCODING 273
SWIDTH 480 0
DWIDTH 32 0
BBX 32 46 0 0
BITMAP
00E00000
07FF8000
1FFFF000
1FFFFC00
1FFFFF00
1FFFFF80
1FFFFFC0
1FFFFFC0
1FFFFFE0
1FFFFFF0
1FFFFFF8
1FFFFFF8
1FFFFFFC
1FFF0FFC
1FFF03FE
0FFFF1FE
0FFFF1FE
1FFFF1FF
FFFFF1FF
FFFFF1FF
FFFFF1FF
FFFFF3FF
FFFFFBFF
FFFFF7FE
7FFF07FE
7FFF0FFC
37FF1FFC
07FFBFF8
07FFFFF8
03FFFFF0
03FFFFF0
03FFFFE0
03FFFFE0
03FFFFC0
01FFFFC0
01FFFF80
01FFFF00
01FFFF00
00FFFE00
00FFFC00
00FFF800
00FFE000
007F8000
007E0000
00780000
00600000
ENDCHAR
STARTCHAR 0112
ENCODING 274
SWIDTH 495 0
DWIDTH 33 0
BBX 31 55 1 0
BITMAP
00006000
01FFE000
FFFFF000
FFFFF000
FFFFF000
FFFFF000
FFF80000
FC000000
00700000
07FFFC00
3FFFFF00
7FFFFF00
FFFFFF00
FFFFFF00
7FFFFE00
7FFFFE00
7FFFFE00
3FFFFE00
3FFFFE00
3FFFFE00
3FFFFE00
3FFFFC00
1FFFF800
1FFC0000
1FFC0000
1FFC0000
1FFC0000
1FFE1C00
0FFFFE00
0FFFFC00
0FFFFC00
0FFFFC00
0FFFFE00
07FFFE00
07FFE000
07FF0000
07FF0000
07FF0030
07FFFFF0
07FFFFF8
07FFFFF8
03FFFFF8
03FFFFFC
03FFFFFC
03FFFFFC
03FFFFFC
03FFFFFC
03FFFFFE
03FFFFFE
03FFFFFE
01FFFFF8
01FFFFC0
01FFF800
01FF8000
00D00000
ENDCHAR
STARTCHAR 0113
ENCODING 275
SWIDTH 495 0
DWIDTH 33 0
BBX 31 55 1 0
BITMAP
00006000
01FFE000
FFFFF000
FFFFF000
FFFFF000
FFFFF000
FFF80000
FC000000
00700000
07FFFC00
3FFFFF00
7FFFFF00
FFFFFF00
FFFFFF00
7FFFFE00
7FFFFE00
7FFFFE00
3FFFFE00
3FFFFE00
3FFFFE00
3FFFFE00
3FFFFC00
1FFFF800
1FFC0000
1FFC0000
1FFC0000
1FFC0000
1FFE1C00
0FFFFE00
0FFFFC00
0FFFFC00
0FFFFC00
0FFFFE00
07FFFE00
07FFE000
07FF0000
07FF0000
07FF0030
07FFFFF0
07FFFFF8
07FFFFF8
03FFFFF8
03FFFFFC
03FFFFFC
03FFFFFC
03FFFFFC
03FFFFFC
03FFFFFE
03FFFFFE
03FFFFFE
01FFFFF8
01FFFFC0
01FFF800
01FF8000
00D00000
ENDCHAR
STARTCHAR 0114
ENCODING 276
SWIDTH 495 0
DWIDTH 33 0
BBX 31 59 1 0
BITMAP
0000F000
0003F000
F803F000
FC07F000
7F1FE000
7FFFE000
7FFFC000
3FFF8000
1FFF0000
0FFF0000
03FC0000
00000000
00700000
07FFFC00
3FFFFF00
7FFFFF00
FFFFFF00
FFFFFF00
7FFFFE00
7FFFFE00
7FFFFE00
3FFFFE00
3FFFFE00
3FFFFE00
3FFFFE00
3FFFFC00
1FFFF800
1FFC0000
1FFC0000
1FFC0000
1FFC0000
1FFE1C00
0FFFFE00
0FFFFC00
0FFFFC00
0FFFFC00
0FFFFE00
07FFFE00
07FFE000
07FF0000
07FF0000
07FF0030
07FFFFF0
07FFFFF8
07FFFFF8
03FFFFF8
03FFFFFC
03FFFFFC
03FFFFFC
03FFFFFC
03FFFFFC
03FFFFFE
03FFFFFE
03FFFFFE
01FFFFF8
01FFFFC0
01FFF800
01FF8000
00D00000
ENDCHAR
STARTCHAR 0115
ENCODING 277
SWIDTH 495 0
DWIDTH 33 0
BBX 31 59 1 0
BITMAP
0000F000
0003F000
F803F000
FC07F000
7F1FE000
7FFFE000
7FFFC000
3FFF8000
1FFF0000
0FFF0000
03FC0000
00000000
00700000
07FFFC00
3FFFFF00
7FFFFF00
FFFFFF00
FFFFFF00
7FFFFE00
7FFFFE00
7FFFFE00
3FFFFE00
3FFFFE00
3FFFFE00
3FFFFE00
3FFFFC00
1FFFF800
1FFC0000
1FFC0000
1FFC0000
1FFC0000
1FFE1C00
0FFFFE00
0FFFFC00
0FFFFC00
0FFFFC00
0FFFFE00
07FFFE00
07FFE000
07FF0000
07FF0000
07FF0030
07FFFFF0
07FFFFF8
07FFFFF8
03FFFFF8
03FFFFFC
03FFFFFC
03FFFFFC
03FFFFFC
03FFFFFC
03FFFFFE
03FFFFFE
03FFFFFE
01FFFFF8
01FFFFC0
01FFF800
01FF8000
00D00000
ENDCHAR
STARTCHAR 0116
ENCODING 278
SWIDTH 495 0
DWIDTH 33 0
BBX 31 55 1 0
BITMAP
00F00000
01F80000
03F80000
03F80000
03F80000
03F80000
00F00000
00000000
00700000
07FFFC00
3FFFFF00
7FFFFF00
FFFFFF00
FFFFFF00
7FFFFE00
7FFFFE00
7FFFFE00
3FFFFE00
3FFFFE00
3FFFFE00
3FFFFE00
3FFFFC00
1FFFF800
1FFC0000
1FFC0000
1FFC0000
1FFC0000
1FFE1C00
0FFFFE00
0FFFFC00
0FFFFC00
0FFFFC00
0FFFFE00
07FFFE00
07FFE000
07FF0000
07FF0000
07FF0030
07FFFFF0
07FFFFF8
07FFFFF8
03FFFFF8
03FFFFFC
03FFFFFC
03FFFFFC
03FFFFFC
03FFFFFC
03FFFFFE
03FFFFFE
03FFFFFE
01FFFFF8
01FFFFC0
01FFF800
01FF8000
00D00000
ENDCHAR
STARTCHAR 0117
ENCODING 279
SWIDTH 495 0
DWIDTH 33 0
BBX 31 55 1 0
BITMAP
00F00000
01F80000
03F80000
03F80000
03F80000
03F80000
00F00000
00000000
00700000
07FFFC00
3FFFFF00
7FFFFF00
FFFFFF00
FFFFFF00
7FFFFE00
7FFFFE00
7FFFFE00
3FFFFE00
3FFFFE00
3FFFFE00
3FFFFE00
3FFFFC00
1FFFF800
1FFC0000
1FFC0000
1FFC0000
1FFC0000
1FFE1C00
0FFFFE00
0FFFFC00
0FFFFC00
0FFFFC00
0FFFFE00
07FFFE00
07FFE000
07FF0000
07FF0000
07FF0030
07FFFFF0
07FFFFF8
07FFFFF8
03FFFFF8
03FFFFFC
03FFFFFC
03FFFFFC
03FFFFFC
03FFFFFC
03FFFFFE
03FFFFFE
03FFFFFE
01FFFFF8
01FFFFC0
01FFF800
01FF8000
00D00000
ENDCHAR
STARTCHAR 0118
ENCODING 280
SWIDTH 495 0
DWIDTH 33 0
BBX 31 57 1 -10
BITMAP
00700000
07FFFC00
3FFFFF00
7FFFFF00
FFFFFF00
FFFFFF00
7FFFFE00
7FFFFE00
7FFFFE00
3FFFFE00
3FFFFE00
3FFFFE00
3FFFFE00
3FFFFC00
1FFFF800
1FFC0000
1FFC0000
1FFC0000
1FFC0000
1FFE1C00
0FFFFE00
0FFFFC00
0FFFFC00
0FFFFC00
0FFFFE00
07FFFE00
07FFE000
07FF0000
07FF0000
07FF0030
07FFFFF0
07FFFFF8
07FFFFF8
03FFFFF8
03FFFFFC
03FFFFFC
03FFFFFC
03FFFFFC
03FFFFFC
03FFFFFE
03FFFFFE
03FFFFFE
01FFFFF8
01FFFF80
01FFF800
01FFF800
00D1F000
0001F000
0003F000
0003F000
0007F01E
0007F0FE
0007FFFE
0007FFFE
0003FFFE
0003FFFC
0000FF80
ENDCHAR
STARTCHAR 0119
ENCODING 281
SWIDTH 495 0
DWIDTH 33 0
BBX 31 57 1 -10
BITMAP
00700000
07FFFC00
3FFFFF00
7FFFFF00
FFFFFF00
FFFFFF00
7FFFFE00
7FFFFE00
7FFFFE00
3FFFFE00
3FFFFE00
3FFFFE00
3FFFFE00
3FFFFC00
1FFFF800
1FFC0000
1FFC0000
1FFC0000
1FFC0000
1FFE1C00
0FFFFE00
0FFFFC00
0FFFFC00
0FFFFC00
0FFFFE00
07FFFE00
07FFE000
07FF0000
07FF0000
07FF0030
07FFFFF0
07FFFFF8
07FFFFF8
03FFFFF8
03FFFFFC
03FFFFFC
03FFFFFC
03FFFFFC
03FFFFFC
03FFFFFE
03FFFFFE
03FFFFFE
01FFFFF8
01FFFF80
01FFF800
01FFF800
00D1F000
0001F000
0003F000
0003F000
0007F01E
0007F0FE
0007FFFE
0007FFFE
0003FFFE
0003FFFC
0000FF80
ENDCHAR
STARTCHAR 011A
ENCODING 282
SWIDTH 495 0
DWIDTH 33 0
BBX 31 58 1 1
BITMAP
0003F000
7C0FF000
FF1FF000
FFBFE000
FFFFC000
7FFF8000
1FFF0000
0FFF0000
03FC0000
01F80000
00600000
00700000
07FFFC00
3FFFFF00
7FFFFF00
FFFFFF00
FFFFFF00
7FFFFE00
7FFFFE00
7FFFFE00
3FFFFE00
3FFFFE00
3FFFFE00
3FFFFE00
3FFFFC00
1FFFF800
1FFC0000
1FFC0000
1FFC0000
1FFC0000
1FFE1C00
0FFFFE00
0FFFFC00
0FFFFC00
0FFFFC00
0FFFFE00
07FFFE00
07FFE000
07FF0000
07FF0000
07FF0030
07FFFFF0
07FFFFF8
07FFFFF8
03FFFFF8
03FFFFFC
03FFFFFC
03FFFFFC
03FFFFFC
03FFFFFC
03FFFFFE
03FFFFFE
03FFFFFE
01FFFFF8
01FFFFC0
01FFF800
01FF8000
00D00000
ENDCHAR
STARTCHAR 011B
ENCODING 283
SWIDTH 495 0
DWIDTH 33 0
BBX 31 58 1 1
BITMAP
0003F000
7C0FF000
FF1FF000
FFBFE000
FFFFC000
7FFF8000
1FFF0000
0FFF0000
03FC0000
01F80000
00600000
00700000
07FFFC00
3FFFFF00
7FFFFF00
FFFFFF00
FFFFFF00
7FFFFE00
7FFFFE00
7FFFFE00
3FFFFE00
3FFFFE00
3FFFFE00
3FFFFE00
3FFFFC00
1FFFF800
1FFC0000
1FFC0000
1FFC0000
1FFC0000
1FFE1C00
0FFFFE00
0FFFFC00
0FFFFC00
0FFFFC00
0FFFFE00
07FFFE00
07FFE000
07FF0000
07FF0000
07FF0030
07FFFFF0
07FFFFF8
07FFFFF8
03FFFFF8
03FFFFFC
03FFFFFC
03FFFFFC
03FFFFFC
03FFFFFC
03FFFFFE
03FFFFFE
03FFFFFE
01FFFFF8
01FFFFC0
01FFF800
01FF8000
00D00000
ENDCHAR
STARTCHAR 011C
ENCODING 284
SWIDTH 495 0
DWIDTH 33 0
BBX 32 57 1 1
BITMAP
00006000
0001F000
0007FC00
000FFE00
003FFF00
007FFF80
00FFFFC0
00FFBFE0
01FF0FE0
00FE07E0
00700380
00000000
00077800
000FFF80
001FFFC0
003FFFF0
007FFFF8
00FFFFFC
01FFFFFC
01FFFFFC
03FFFFFC
03FFFFFC
07FFEFF8
07FF0140
0FFC0000
0FF80000
0FF00000
1FF00000
1FF00000
1FE00000
3FE00000
3FE0007E
3FE00FFF
3FC07FFE
3FC0FFFE
7FC07FFE
7FC07FFE
7FC07FFE
7FE03FFE
7FE03FFE
FFE03FFE
FFE03FFE
FFF03FFE
FFFCFFFE
FFFFFFFE
FFFFFFFE
FFFFFFFE
FFFFFFFE
FFFFFFFE
7FFFFFF8
7FFFFFF0
3FFFFFC0
1FFFFF80
0FFFFE00
07FFF800
03FFE000
01FE0000
ENDCHAR
STARTCHAR 011D
ENCODING 285
SWIDTH 495 0
DWIDTH 33 0
BBX 32 57 1 1
BITMAP
00006000
0001F000
0007FC00
000FFE00
003FFF00
007FFF80
00FFFFC0
00FFBFE0
01FF0FE0
00FE07E0
00700380
00000000
00077800
000FFF80
001FFFC0
003FFFF0
007FFFF8
00FFFFFC
01FFFFFC
01FFFFFC
03FFFFFC
03FFFFFC
07FFEFF8
07FF0140
0FFC0000
0FF80000
0FF00000
1FF00000
1FF00000
1FE00000
3FE00000
3FE0007E
3FE00FFF
3FC07FFE
3FC0FFFE
7FC07FFE
7FC07FFE
7FC07FFE
7FE03FFE
7FE03FFE
FFE03FFE
FFE03FFE
FFF03FFE
FFFCFFFE
FFFFFFFE
FFFFFFFE
FFFFFFFE
FFFFFFFE
FFFFFFFE
7FFFFFF8
7FFFFFF0
3FFFFFC0
1FFFFF80
0FFFFE00
07FFF800
03FFE000
01FE0000
ENDCHAR
STARTCHAR 011E
ENCODING 286
SWIDTH 495 0
DWIDTH 33 0
BBX 32 56 1 1
BITMAP
01F807E0
01F807E0
00FC0FE0
00FFFFC0
00FFFFC0
007FFF80
003FFF00
001FFE00
000FFC00
0003F000
00000000
00077800
000FFF80
001FFFC0
003FFFF0
007FFFF8
00FFFFFC
01FFFFFC
01FFFFFC
03FFFFFC
03FFFFFC
07FFEFF8
07FF0140
0FFC0000
0FF80000
0FF00000
1FF00000
1FF00000
1FE00000
3FE00000
3FE0007E
3FE00FFF
3FC07FFE
3FC0FFFE
7FC07FFE
7FC07FFE
7FC07FFE
7FE03FFE
7FE03FFE
FFE03FFE
FFE03FFE
FFF03FFE
FFFCFFFE
FFFFFFFE
FFFFFFFE
FFFFFFFE
FFFFFFFE
FFFFFFFE
7FFFFFF8
7FFFFFF0
3FFFFFC0
1FFFFF80
0FFFFE00
07FFF800
03FFE000
01FE0000
ENDCHAR
STARTCHAR 011F
ENCODING 287
SWIDTH 495 0
DWIDTH 33 0
BBX 32 56 1 1
BITMAP
01F807E0
01F807E0
00FC0FE0
00FFFFC0
00FFFFC0
007FFF80
003FFF00
001FFE00
000FFC00
0003F000
00000000
00077800
000FFF80
001FFFC0
003FFFF0
007FFFF8
00FFFFFC
01FFFFFC
01FFFFFC
03FFFFFC
03FFFFFC
07FFEFF8
07FF0140
0FFC0000
0FF80000
0FF00000
1FF00000
1FF00000
1FE00000
3FE00000
3FE0007E
3FE00FFF
3FC07FFE
3FC0FFFE
7FC07FFE
7FC07FFE
7FC07FFE
7FE03FFE
7FE03FFE
FFE03FFE
FFE03FFE
FFF03FFE
FFFCFFFE
FFFFFFFE
FFFFFFFE
FFFFFFFE
FFFFFFFE
FFFFFFFE
7FFFFFF8
7FFFFFF0
3FFFFFC0
1FFFFF80
0FFFFE00
07FFF800
03FFE000
01FE0000
ENDCHAR
STARTCHAR 0120
ENCODING 288
SWIDTH 495 0
DWIDTH 33 0
BBX 32 53 1 1
BITMAP
0001C000
0003F000
0007F000
0007F000
0007F000
0007F000
0003E000
00000000
00077800
000FFF80
001FFFC0
003FFFF0
007FFFF8
00FFFFFC
01FFFFFC
01FFFFFC
03FFFFFC
03FFFFFC
07FFEFF8
07FF0140
0FFC0000
0FF80000
0FF00000
1FF00000
1FF00000
1FE00000
3FE00000
3FE0007E
3FE00FFF
3FC07FFE
3FC0FFFE
7FC07FFE
7FC07FFE
7FC07FFE
7FE03FFE
7FE03FFE
FFE03FFE
FFE03FFE
FFF03FFE
FFFCFFFE
FFFFFFFE
FFFFFFFE
FFFFFFFE
FFFFFFFE
FFFFFFFE
7FFFFFF8
7FFFFFF0
3FFFFFC0
1FFFFF80
0FFFFE00
07FFF800
03FFE000
01FE0000
ENDCHAR
STARTCHAR 0121
ENCODING 289
SWIDTH 495 0
DWIDTH 33 0
BBX 32 53 1 1
BITMAP
0001C000
0003F000
0007F000
0007F000
0007F000
0007F000
0003E000
00000000
00077800
000FFF80
001FFFC0
003FFFF0
007FFFF8
00FFFFFC
01FFFFFC
01FFFFFC
03FFFFFC
03FFFFFC
07FFEFF8
07FF0140
0FFC0000
0FF80000
0FF00000
1FF00000
1FF00000
1FE00000
3FE00000
3FE0007E
3FE00FFF
3FC07FFE
3FC0FFFE
7FC07FFE
7FC07FFE
7FC07FFE
7FE03FFE
7FE03FFE
FFE03FFE
FFE03FFE
FFF03FFE
FFFCFFFE
FFFFFFFE
FFFFFFFE
FFFFFFFE
FFFFFFFE
FFFFFFFE
7FFFFFF8
7FFFFFF0
3FFFFFC0
1FFFFF80
0FFFFE00
07FFF800
03FFE000
01FE0000
ENDCHAR
STARTCHAR 0122
ENCODING 290
SWIDTH 495 0
DWIDTH 33 0
BBX 32 57 1 -11
BITMAP
00077800
000FFF80
001FFFC0
003FFFF0
007FFFF8
00FFFFFC
01FFFFFC
01FFFFFC
03FFFFFC
03FFFFFC
07FFEFF8
07FF0140
0FFC0000
0FF80000
0FF00000
1FF00000
1FF00000
1FE00000
3FE00000
3FE0007E
3FE00FFF
3FC07FFE
3FC0FFFE
7FC07FFE
7FC07FFE
7FC07FFE
7FE03FFE
7FE03FFE
FFE03FFE
FFE03FFE
FFF03FFE
FFFCFFFE
FFFFFFFE
FFFFFFFE
FFFFFFFE
FFFFFFFE
FFFFFFFE
7FFFFFF8
7FFFFFF0
3FFFFFC0
1FFFFF80
0FFFFE00
07FFF800
03FFE000
01FE0000
00000000
00000000
00FF0000
00FF8000
00FF8000
01FF8000
01FF0000
01FF0000
01FE0000
03FE0000
01FC0000
00F80000
ENDCHAR
STARTCHAR 0123
ENCODING 291
SWIDTH 495 0
DWIDTH 33 0
BBX 32 57 1 -11
BITMAP
00077800
000FFF80
001FFFC0
003FFFF0
007FFFF8
00FFFFFC
01FFFFFC
01FFFFFC
03FFFFFC
03FFFFFC
07FFEFF8
07FF0140
0FFC0000
0FF80000
0FF00000
1FF00000
1FF00000
1FE00000
3FE00000
3FE0007E
3FE00FFF
3FC07FFE
3FC0FFFE
7FC07FFE
7FC07FFE
7FC07FFE
7FE03FFE
7FE03FFE
FFE03FFE
FFE03FFE
FFF03FFE
FFFCFFFE
FFFFFFFE
FFFFFFFE
FFFFFFFE
FFFFFFFE
FFFFFFFE
7FFFFFF8
7FFFFFF0
3FFFFFC0
1FFFFF80
0FFFFE00
07FFF800
03FFE000
01FE0000
00000000
00000000
00FF0000
00FF8000
00FF8000
01FF8000
01FF0000
01FF0000
01FE0000
03FE0000
01FC0000
00F80000
ENDCHAR
STARTCHAR 0124
ENCODING 292
SWIDTH 555 0
DWIDTH 37 0
BBX 35 57 1 1
BITMAP
0000030000
00000FC000
00003FE000
00007FF000
0000FFF800
0001FFFC00
0003FFFF00
0007FEFF00
000FF87F80
0007F03F00
0001001C00
0000000000
0000000000
003FC00000
07FFE00060
0FFFC07FE0
0FFFC0FFE0
0FFF80FFE0
0FFFC0FFE0
07FFC0FFE0
07FFC1FFE0
07FFC0FFE0
0FFFC1FFE0
0FFF81FFE0
0FFF81FFE0
0FFFC1FFE0
0FFFC1FFE0
0FFFC1FFE0
0FFFC1FFE0
0FFFC3FFE0
0FFFFFFFC0
1FFFFFFFC0
1FFFFFFFC0
1FFFFFFFC0
1FFFFFFFC0
1FFFFFFFC0
1FFFFFFFC0
1FFFFFFFE0
1FFFFFFFE0
1FFFFFFFE0
1FFFFFFFE0
3FFFFFFFE0
3FFFBFFFE0
3FFF07FFE0
3FFF07FFC0
3FFF07FFC0
3FFF07FFC0
3FFF07FFC0
3FFF07FFC0
3FFF07FFC0
3FFF07FFC0
3FFF07FFC0
7FFF07FFC0
7FFF07FFC0
7FFF07FF80
FFFE07F800
4FFE0F8000
ENDCHAR
STARTCHAR 0125
ENCODING 293
SWIDTH 555 0
DWIDTH 37 0
BBX 35 57 1 1
BITMAP
0000030000
00000FC000
00003FE000
00007FF000
0000FFF800
0001FFFC00
0003FFFF00
0007FEFF00
000FF87F80
0007F03F00
0001001C00
0000000000
0000000000
003FC00000
07FFE00060
0FFFC07FE0
0FFFC0FFE0
0FFF80FFE0
0FFFC0FFE0
07FFC0FFE0
07FFC1FFE0
07FFC0FFE0
0FFFC1FFE0
0FFF81FFE0
0FFF81FFE0
0FFFC1FFE0
0FFFC1FFE0
0FFFC1FFE0
0FFFC1FFE0
0FFFC3FFE0
0FFFFFFFC0
1FFFFFFFC0
1FFFFFFFC0
1FFFFFFFC0
1FFFFFFFC0
1FFFFFFFC0
1FFFFFFFC0
1FFFFFFFE0
1FFFFFFFE0
1FFFFFFFE0
1FFFFFFFE0
3FFFFFFFE0
3FFFBFFFE0
3FFF07FFE0
3FFF07FFC0
3FFF07FFC0
3FFF07FFC0
3FFF07FFC0
3FFF07FFC0
3FFF07FFC0
3FFF07FFC0
3FFF07FFC0
7FFF07FFC0
7FFF07FFC0
7FFF07FF80
FFFE07F800
4FFE0F8000
ENDCHAR
STARTCHAR 0126
ENCODING 294
SWIDTH 585 0
DWIDTH 39 0
BBX 37 44 1 1
BITMAP
007FC00000
07FFE00060
0FFFC07FE0
0FFF80FFE0
0FFF9FFFF8
7FFFFFFFF8
FFFFFFFFF8
FFFFFFFFF8
FFFFFFFFF8
FFFFFFFFF8
FFFFFFFFF8
FFFFFFFFF8
FFFFFFFFF8
7FFFF9FFE0
0FFFC1FFE0
0FFFC1FFE0
0FFFC3FFE0
0FFFFFFFC0
1FFFFFFFC0
1FFFFFFFC0
1FFFFFFFC0
1FFFFFFFC0
1FFFFFFFC0
1FFFFFFFC0
1FFFFFFFE0
1FFFFFFFE0
1FFFFFFFE0
1FFFFFFFE0
3FFFFFFFE0
3FFFBFFFE0
3FFF07FFE0
3FFF07FFC0
3FFF07FFC0
3FFF07FFC0
3FFF07FFC0
3FFF07FFC0
3FFF07FFC0
3FFF07FFC0
3FFF07FFC0
7FFF07FFC0
7FFF07FFC0
7FFF07FF80
FFFE07F800
47FE0F8000
ENDCHAR
STARTCHAR 0127
ENCODING 295
SWIDTH 585 0
DWIDTH 39 0
BBX 37 44 1 1
BITMAP
007FC00000
07FFE00060
0FFFC07FE0
0FFF80FFE0
0FFF9FFFF8
7FFFFFFFF8
FFFFFFFFF8
FFFFFFFFF8
FFFFFFFFF8
FFFFFFFFF8
FFFFFFFFF8
FFFFFFFFF8
FFFFFFFFF8
7FFFF9FFE0
0FFFC1FFE0
0FFFC1FFE0
0FFFC3FFE0
0FFFFFFFC0
1FFFFFFFC0
1FFFFFFFC0
1FFFFFFFC0
1FFFFFFFC0
1FFFFFFFC0
1FFFFFFFC0
1FFFFFFFE0
1FFFFFFFE0
1FFFFFFFE0
1FFFFFFFE0
3FFFFFFFE0
3FFFBFFFE0
3FFF07FFE0
3FFF07FFC0
3FFF07FFC0
3FFF07FFC0
3FFF07FFC0
3FFF07FFC0
3FFF07FFC0
3FFF07FFC0
3FFF07FFC0
7FFF07FFC0
7FFF07FFC0
7FFF07FF80
FFFE07F800
47FE0F8000
ENDCHAR
STARTCHAR 0128
ENCODING 296
SWIDTH 330 0
DWIDTH 22 0
BBX 23 57 1 0
BITMAP
01E0FE
03F0FE
07FCFE
0FFFFE
0FFFFE
0FFFFE
0FFFFC
0FDFF8
0F8FF0
0F81E0
000000
000000
03FF80
07FFF0
07FFF0
07FFF0
03FFE0
07FFE0
07FFE0
07FFE0
07FFE0
07FFE0
0FFFC0
0FFFC0
0FFFC0
0FFFC0
0FFFC0
0FFFC0
0FFFC0
0FFFC0
0FFFC0
0FFFC0
1FFFC0
1FFFC0
1FFFC0
1FFFC0
1FFFC0
1FFFC0
1FFFC0
1FFFC0
1FFFC0
1FFFC0
1FFFC0
1FFFC0
1FFFC0
1FFFC0
1FFFC0
1FFFC0
1FFFC0
1FFF80
3FFF80
3FFF80
3FFF80
3FFF80
7FFF00
7FF000
FE0000
ENDCHAR
STARTCHAR 0129
ENCODING 297
SWIDTH 330 0
DWIDTH 22 0
BBX 23 57 1 0
BITMAP
01E0FE
03F0FE
07FCFE
0FFFFE
0FFFFE
0FFFFE
0FFFFC
0FDFF8
0F8FF0
0F81E0
000000
000000
03FF80
07FFF0
07FFF0
07FFF0
03FFE0
07FFE0
07FFE0
07FFE0
07FFE0
07FFE0
0FFFC0
0FFFC0
0FFFC0
0FFFC0
0FFFC0
0FFFC0
0FFFC0
0FFFC0
0FFFC0
0FFFC0
1FFFC0
1FFFC0
1FFFC0
1FFFC0
1FFFC0
1FFFC0
1FFFC0
1FFFC0
1FFFC0
1FFFC0
1FFFC0
1FFFC0
1FFFC0
1FFFC0
1FFFC0
1FFFC0
1FFFC0
1FFF80
3FFF80
3FFF80
3FFF80
3FFF80
7FFF00
7FF000
FE0000
ENDCHAR
STARTCHAR 012A
ENCODING 298
SWIDTH 330 0
DWIDTH 22 0
BBX 23 54 1 0
BITMAP
03C7A0
0FFFFE
0FFFFE
0FFFFE
0FFFFE
1FFFFE
060000
000000
000000
03FF80
07FFF0
07FFF0
07FFF0
03FFE0
07FFE0
07FFE0
07FFE0
07FFE0
07FFE0
0FFFC0
0FFFC0
0FFFC0
0FFFC0
0FFFC0
0FFFC0
0FFFC0
0FFFC0
0FFFC0
0FFFC0
1FFFC0
1FFFC0
1FFFC0
1FFFC0
1FFFC0
1FFFC0
1FFFC0
1FFFC0
1FFFC0
1FFFC0
1FFFC0
1FFFC0
1FFFC0
1FFFC0
1FFFC0
1FFFC0
1FFFC0
1FFF80
3FFF80
3FFF80
3FFF80
3FFF80
7FFF00
7FF000
FE0000
ENDCHAR
STARTCHAR 012B
ENCODING 299
SWIDTH 330 0
DWIDTH 22 0
BBX 23 54 1 0
BITMAP
03C7A0
0FFFFE
0FFFFE
0FFFFE
0FFFFE
1FFFFE
060000
000000
000000
03FF80
07FFF0
07FFF0
07FFF0
03FFE0
07FFE0
07FFE0
07FFE0
07FFE0
07FFE0
0FFFC0
0FFFC0
0FFFC0
0FFFC0
0FFFC0
0FFFC0
0FFFC0
0FFFC0
0FFFC0
0FFFC0
1FFFC0
1FFFC0
1FFFC0
1FFFC0
1FFFC0
1FFFC0
1FFFC0
1FFFC0
1FFFC0
1FFFC0
1FFFC0
1FFFC0
1FFFC0
1FFFC0
1FFFC0
1FFFC0
1FFFC0
1FFF80
3FFF80
3FFF80
3FFF80
3FFF80
7FFF00
7FF000
FE0000
ENDCHAR
STARTCHAR 012C
ENCODING 300
SWIDTH 330 0
DWIDTH 22 0
BBX 23 57 1 0
BITMAP
1F807E
0F807E
0FC0FE
0FFFFE
07FFFC
07FFF8
03FFF0
01FFE0
00FFC0
003F00
000000
000000
03FF80
07FFF0
07FFF0
07FFF0
03FFE0
07FFE0
07FFE0
07FFE0
07FFE0
07FFE0
0FFFC0
0FFFC0
0FFFC0
0FFFC0
0FFFC0
0FFFC0
0FFFC0
0FFFC0
0FFFC0
0FFFC0
1FFFC0
1FFFC0
1FFFC0
1FFFC0
1FFFC0
1FFFC0
1FFFC0
1FFFC0
1FFFC0
1FFFC0
1FFFC0
1FFFC0
1FFFC0
1FFFC0
1FFFC0
1FFFC0
1FFFC0
1FFF80
3FFF80
3FFF80
3FFF80
3FFF80
7FFF00
7FF000
FE0000
ENDCHAR
STARTCHAR 012D
ENCODING 301
SWIDTH 330 0
DWIDTH 22 0
BBX 23 57 1 0
BITMAP
1F807E
0F807E
0FC0FE
0FFFFE
07FFFC
07FFF8
03FFF0
01FFE0
00FFC0
003F00
000000
000000
03FF80
07FFF0
07FFF0
07FFF0
03FFE0
07FFE0
07FFE0
07FFE0
07FFE0
07FFE0
0FFFC0
0FFFC0
0FFFC0
0FFFC0
0FFFC0
0FFFC0
0FFFC0
0FFFC0
0FFFC0
0FFFC0
1FFFC0
1FFFC0
1FFFC0
1FFFC0
1FFFC0
1FFFC0
1FFFC0
1FFFC0
1FFFC0
1FFFC0
1FFFC0
1FFFC0
1FFFC0
1FFFC0
1FFFC0
1FFFC0
1FFFC0
1FFF80
3FFF80
3FFF80
3FFF80
3FFF80
7FFF00
7FF000
FE0000
ENDCHAR
STARTCHAR 012E
ENCODING 302
SWIDTH 330 0
DWIDTH 22 0
BBX 20 56 1 -11
BITMAP
03FF80
07FFF0
07FFF0
07FFF0
03FFE0
07FFE0
07FFE0
07FFE0
07FFE0
07FFE0
0FFFC0
0FFFC0
0FFFC0
0FFFC0
0FFFC0
0FFFC0
0FFFC0
0FFFC0
0FFFC0
0FFFC0
1FFFC0
1FFFC0
1FFFC0
1FFFC0
1FFFC0
1FFFC0
1FFFC0
1FFFC0
1FFFC0
1FFFC0
1FFFC0
1FFFC0
1FFFC0
1FFFC0
1FFFC0
1FFFC0
1FFFC0
1FFF80
3FFF80
3FFF80
3FFF80
3FFF80
7FFF00
7FF000
FFE000
07E000
0FC000
0FC000
1FC000
1FC000
1FC070
1FFFF0
1FFFF0
1FFFF0
0FFFF0
03FFF0
ENDCHAR
STARTCHAR 012F
ENCODING 303
SWIDTH 330 0
DWIDTH 22 0
BBX 20 56 1 -11
BITMAP
03FF80
07FFF0
07FFF0
07FFF0
03FFE0
07FFE0
07FFE0
07FFE0
07FFE0
07FFE0
0FFFC0
0FFFC0
0FFFC0
0FFFC0
0FFFC0
0FFFC0
0FFFC0
0FFFC0
0FFFC0
0FFFC0
1FFFC0
1FFFC0
1FFFC0
1FFFC0
1FFFC0
1FFFC0
1FFFC0
1FFFC0
1FFFC0
1FFFC0
1FFFC0
1FFFC0
1FFFC0
1FFFC0
1FFFC0
1FFFC0
1FFFC0
1FFF80
3FFF80
3FFF80
3FFF80
3FFF80
7FFF00
7FF000
FFE000
07E000
0FC000
0FC000
1FC000
1FC000
1FC070
1FFFF0
1FFFF0
1FFFF0
0FFFF0
03FFF0
ENDCHAR
STARTCHAR 0130
ENCODING 304
SWIDTH 330 0
DWIDTH 22 0
BBX 20 54 1 0
BITMAP
001E00
003F80
003F80
003F80
003F80
003F00
000E00
000000
000000
03FF80
07FFF0
07FFF0
07FFF0
03FFE0
07FFE0
07FFE0
07FFE0
07FFE0
07FFE0
0FFFC0
0FFFC0
0FFFC0
0FFFC0
0FFFC0
0FFFC0
0FFFC0
0FFFC0
0FFFC0
0FFFC0
1FFFC0
1FFFC0
1FFFC0
1FFFC0
1FFFC0
1FFFC0
1FFFC0
1FFFC0
1FFFC0
1FFFC0
1FFFC0
1FFFC0
1FFFC0
1FFFC0
1FFFC0
1FFFC0
1FFFC0
1FFF80
3FFF80
3FFF80
3FFF80
3FFF80
7FFF00
7FF000
FE0000
ENDCHAR
STARTCHAR 0131
ENCODING 305
SWIDTH 330 0
DWIDTH 22 0
BBX 20 54 1 0
BITMAP
001E00
003F80
003F80
003F80
003F80
003F00
000E00
000000
000000
03FF80
07FFF0
07FFF0
07FFF0
03FFE0
07FFE0
07FFE0
07FFE0
07FFE0
07FFE0
0FFFC0
0FFFC0
0FFFC0
0FFFC0
0FFFC0
0FFFC0
0FFFC0
0FFFC0
0FFFC0
0FFFC0
1FFFC0
1FFFC0
1FFFC0
1FFFC0
1FFFC0
1FFFC0
1FFFC0
1FFFC0
1FFFC0
1FFFC0
1FFFC0
1FFFC0
1FFFC0
1FFFC0
1FFFC0
1FFFC0
1FFFC0
1FFF80
3FFF80
3FFF80
3FFF80
3FFF80
7FFF00
7FF000
FE0000
ENDCHAR
STARTCHAR 0132
ENCODING 306
SWIDTH 600 0
DWIDTH 40 0
BBX 38 45 1 0
BITMAP
07FC003F38
0FFF003FF8
0FFF003FF8
0FFF003FFC
0FFE003FFC
0FFE007FFC
0FFE007FFC
0FFE007FFC
0FFE007FFC
0FFE007FFC
0FFE007FFC
1FFE007FFC
1FFE00FFFC
1FFE00FFFC
1FFC00FFFC
1FFC00FFFC
1FFC00FFFC
1FFC00FFFC
1FFC007FFC
1FFC00FFFC
1FFC007FFC
1FFC007FFC
1FFC007FFC
1FFC007FFC
1FFC003FFC
1FFC003FFC
3FFC003FFC
3FFC003FFC
3FFC001FFC
3FFC001FFC
3FFC3E1FFC
3FFCFF1FFC
3FFCFF1FFC
3FFCFF9FF8
3FFCFFBFF8
3FFCFFDFF0
3FFCFFFFF0
3FF8FFFFF0
3FF87FFFE0
3FF87FFFE0
3FFC3FFFC0
7FF83FFF80
7FF80FFF00
FF8007FE00
F80001FC00
ENDCHAR
STARTCHAR 0133
ENCODING 307
SWIDTH 600 0
DWIDTH 40 0
BBX 38 45 1 0
BITMAP
07FC003F38
0FFF003FF8
0FFF003FF8
0FFF003FFC
0FFE003FFC
0FFE007FFC
0FFE007FFC
0FFE007FFC
0FFE007FFC
0FFE007FFC
0FFE007FFC
1FFE007FFC
1FFE00FFFC
1FFE00FFFC
1FFC00FFFC
1FFC00FFFC
1FFC00FFFC
1FFC00FFFC
1FFC007FFC
1FFC00FFFC
1FFC007FFC
1FFC007FFC
1FFC007FFC
1FFC007FFC
1FFC003FFC
1FFC003FFC
3FFC003FFC
3FFC003FFC
3FFC001FFC
3FFC001FFC
3FFC3E1FFC
3FFCFF1FFC
3FFCFF1FFC
3FFCFF9FF8
3FFCFFBFF8
3FFCFFDFF0
3FFCFFFFF0
3FF8FFFFF0
3FF87FFFE0
3FF87FFFE0
3FFC3FFFC0
7FF83FFF80
7FF80FFF00
FF8007FE00
F80001FC00
ENDCHAR
STARTCHAR 0134
ENCODING 308
SWIDTH 450 0
DWIDTH 30 0
BBX 30 58 1 0
BITMAP
00003800
0000FE00
0001FF80
0007FFC0
000FFFF0
000FFFF8
001FFFFC
003FE7F8
003FC1F8
003F80C0
001C0000
00000000
00000000
0003F9E0
0007FFE0
0007FFE0
0007FFF0
0007FFF0
000FFFF0
000FFFF0
000FFFF0
000FFFF0
000FFFF0
001FFFF0
001FFFF0
001FFFF0
001FFFF0
001FFFF0
001FFFF0
001FFFF0
001FFFF0
001FFFF8
001FFFF8
001FFFF8
000FFFF8
000FFFF8
000FFFF8
0007FFF8
0007FFF8
0007FFF0
0003FFF0
0003FFF0
0003FFF0
1FC3FFF0
FFC3FFF0
FFE1FFF0
FFF3FFE0
FFF3FFE0
FFF9FFC0
FFFFFFC0
7FFFFFC0
7FFFFF80
3FFFFF00
1FFFFE00
0FFFFC00
07FFF800
01FFF000
003FC000
ENDCHAR
STARTCHAR 0135
ENCODING 309
SWIDTH 450 0
DWIDTH 30 0
BBX 30 58 1 0
BITMAP
00003800
0000FE00
0001FF80
0007FFC0
000FFFF0
000FFFF8
001FFFFC
003FE7F8
003FC1F8
003F80C0
001C0000
00000000
00000000
0003F9E0
0007FFE0
0007FFE0
0007FFF0
0007FFF0
000FFFF0
000FFFF0
000FFFF0
000FFFF0
000FFFF0
001FFFF0
001FFFF0
001FFFF0
001FFFF0
001FFFF0
001FFFF0
001FFFF0
001FFFF0
001FFFF8
001FFFF8
001FFFF8
000FFFF8
000FFFF8
000FFFF8
0007FFF8
0007FFF8
0007FFF0
0003FFF0
0003FFF0
0003FFF0
1FC3FFF0
FFC3FFF0
FFE1FFF0
FFF3FFE0
FFF3FFE0
FFF9FFC0
FFFFFFC0
7FFFFFC0
7FFFFF80
3FFFFF00
1FFFFE00
0FFFFC00
07FFF800
01FFF000
003FC000
ENDCHAR
STARTCHAR 0136
ENCODING 310
SWIDTH 555 0
DWIDTH 37 0
BBX 35 57 1 -11
BITMAP
0000003800
FFFFC07800
FFFFC0FC00
7FFFC1FE00
7FFFC1FFE0
7FFFC3FFE0
7FFFC7FFC0
7FFFC7FF80
7FFFCFFF80
7FFFCFFF00
7FFFDFFE00
7FFFDFFC00
7FFFDFFC00
7FFFFFF800
7FFFFFF000
7FFFFFE000
7FFFFFE000
7FFFFFC000
7FFFFFC000
7FFFFF8000
7FFFFF8000
FFFFFF0000
FFFFFF0000
FFFFFE0000
FFFFFC0000
FFFFFE0000
FFFFFF0000
FFFFFF8000
FFFFFFC000
FFFFFFE000
FFFFFFF000
FFFFFFF800
FFFFFFF800
FFFFFFFC00
FFFFDFFE00
FFFF8FFF00
FFFF8FFF00
FFFF87FF80
FFFF83FF80
FFFF83FFC0
FFFF81FFC0
FFFFC0FFE0
FFFFC0FFE0
FFFFC07C20
FFFF807800
001C007000
0000000000
0003FE0000
0003FE0000
0003FE0000
0003FE0000
0003FE0000
0003FC0000
0007FC0000
0007F80000
0003F00000
0001E00000
ENDCHAR
STARTCHAR 0137
ENCODING 311
SWIDTH 555 0
DWIDTH 37 0
BBX 35 57 1 -11
BITMAP
0000003800
FFFFC07800
FFFFC0FC00
7FFFC1FE00
7FFFC1FFE0
7FFFC3FFE0
7FFFC7FFC0
7FFFC7FF80
7FFFCFFF80
7FFFCFFF00
7FFFDFFE00
7FFFDFFC00
7FFFDFFC00
7FFFFFF800
7FFFFFF000
7FFFFFE000
7FFFFFE000
7FFFFFC000
7FFFFFC000
7FFFFF8000
7FFFFF8000
FFFFFF0000
FFFFFF0000
FFFFFE0000
FFFFFC0000
FFFFFE0000
FFFFFF0000
FFFFFF8000
FFFFFFC000
FFFFFFE000
FFFFFFF000
FFFFFFF800
FFFFFFF800
FFFFFFFC00
FFFFDFFE00
FFFF8FFF00
FFFF8FFF00
FFFF87FF80
FFFF83FF80
FFFF83FFC0
FFFF81FFC0
FFFFC0FFE0
FFFFC0FFE0
FFFFC07C20
FFFF807800
001C007000
0000000000
0003FE0000
0003FE0000
0003FE0000
0003FE0000
0003FE0000
0003FC0000
0007FC0000
0007F80000
0003F00000
0001E00000
ENDCHAR
STARTCHAR 0138
ENCODING 312
SWIDTH 525 0
DWIDTH 35 0
BBX 34 37 1 -1
BITMAP
0000807000
FFFF80F000
7FFFC1FC00
7FFF83FE80
7FFF87FF80
7FFF8FFF00
7FFF8FFE00
7FFF9FFE00
7FFF9FFC00
7FFFBFF800
7FFFBFF000
7FFFFFE000
7FFFFFC000
7FFFFF8000
7FFFFF8000
7FFFFF0000
7FFFFF0000
7FFFFE0000
FFFFFC0000
FFFFF80000
FFFFFC0000
FFFFFE0000
FFFFFF8000
FFFFFFC000
FFFFFFE000
FFFFFFF000
FFFFFFF800
FFFFBFFC00
FFFF9FFC00
FFFF0FFE00
FFFF07FF00
FFFF07FF00
FFFF83FF80
FFFF81FF80
FFFF80F8C0
FFFF00F000
000000E000
ENDCHAR
STARTCHAR 0139
ENCODING 313
SWIDTH 510 0
DWIDTH 34 0
BBX 32 59 1 -1
BITMAP
00003FC0
00007FC0
00007FC0
0000FF80
0001FF00
0001FE00
0003FC00
0003F800
0007F800
0007F000
0000E000
00000000
00002000
003FFE00
01FFFE00
03FFFE00
03FFFE00
03FFFE00
07FFFE00
07FFFC00
07FFFC00
07FFFC00
07FFFC00
07FFFC00
07FFFC00
07FFFC00
07FFF800
07FFF800
07FFF800
07FFF800
07FFF800
0FFFF000
0FFFF000
0FFFF000
0FFFF000
0FFFF000
1FFFF000
1FFFE000
1FFFE000
1FFFE000
1FFFE000
1FFFE000
3FFFE000
3FFFE000
3FFFFFFE
3FFFFFFE
3FFFFFFE
3FFFFFFE
3FFFFFFE
3FFFFFFE
3FFFFFFE
3FFFFFFE
3FFFFFFE
3FFFFFFF
3FFFFFFF
3FFFFFFE
3FFFFFE0
7FF80000
F8000000
ENDCHAR
STARTCHAR 013A
ENCODING 314
SWIDTH 510 0
DWIDTH 34 0
BBX 32 59 1 -1
BITMAP
00003FC0
00007FC0
00007FC0
0000FF80
0001FF00
0001FE00
0003FC00
0003F800
0007F800
0007F000
0000E000
00000000
00002000
003FFE00
01FFFE00
03FFFE00
03FFFE00
03FFFE00
07FFFE00
07FFFC00
07FFFC00
07FFFC00
07FFFC00
07FFFC00
07FFFC00
07FFFC00
07FFF800
07FFF800
07FFF800
07FFF800
07FFF800
0FFFF000
0FFFF000
0FFFF000
0FFFF000
0FFFF000
1FFFF000
1FFFE000
1FFFE000
1FFFE000
1FFFE000
1FFFE000
3FFFE000
3FFFE000
3FFFFFFE
3FFFFFFE
3FFFFFFE
3FFFFFFE
3FFFFFFE
3FFFFFFE
3FFFFFFE
3FFFFFFE
3FFFFFFE
3FFFFFFF
3FFFFFFF
3FFFFFFE
3FFFFFE0
7FF80000
F8000000
ENDCHAR
STARTCHAR 013B
ENCODING 315
SWIDTH 510 0
DWIDTH 34 0
BBX 32 57 1 -11
BITMAP
00002000
003FFE00
01FFFE00
03FFFE00
03FFFE00
03FFFE00
07FFFE00
07FFFC00
07FFFC00
07FFFC00
07FFFC00
07FFFC00
07FFFC00
07FFFC00
07FFF800
07FFF800
07FFF800
07FFF800
07FFF800
0FFFF000
0FFFF000
0FFFF000
0FFFF000
0FFFF000
1FFFF000
1FFFE000
1FFFE000
1FFFE000
1FFFE000
1FFFE000
3FFFE000
3FFFE000
3FFFFFFE
3FFFFFFE
3FFFFFFE
3FFFFFFE
3FFFFFFE
3FFFFFFE
3FFFFFFE
3FFFFFFE
3FFFFFFE
3FFFFFFF
3FFFFFFF
3FFFFFFE
3FFFFFE0
7FF80000
F8000000
001FF000
001FF000
001FF000
001FF000
001FF000
003FE000
003FC000
003FC000
003F8000
000F0000
ENDCHAR
STARTCHAR 013C
ENCODING 316
SWIDTH 510 0
DWIDTH 34 0
BBX 32 57 1 -11
BITMAP
00002000
003FFE00
01FFFE00
03FFFE00
03FFFE00
03FFFE00
07FFFE00
07FFFC00
07FFFC00
07FFFC00
07FFFC00
07FFFC00
07FFFC00
07FFFC00
07FFF800
07FFF800
07FFF800
07FFF800
07FFF800
0FFFF000
0FFFF000
0FFFF000
0FFFF000
0FFFF000
1FFFF000
1FFFE000
1FFFE000
1FFFE000
1FFFE000
1FFFE000
3FFFE000
3FFFE000
3FFFFFFE
3FFFFFFE
3FFFFFFE
3FFFFFFE
3FFFFFFE
3FFFFFFE
3FFFFFFE
3FFFFFFE
3FFFFFFE
3FFFFFFF
3FFFFFFF
3FFFFFFE
3FFFFFE0
7FF80000
F8000000
001FF000
001FF000
001FF000
001FF000
001FF000
003FE000
003FC000
003FC000
003F8000
000F0000
ENDCHAR
STARTCHAR 013D
ENCODING 317
SWIDTH 510 0
DWIDTH 34 0
BBX 32 49 1 -1
BITMAP
00000010
0000003F
0000207F
003FFE7F
01FFFE7F
03FFFE7F
03FFFE7F
03FFFE7F
07FFFE7F
07FFFC7E
07FFFC7E
07FFFCFE
07FFFCFC
07FFFC7C
07FFFC7C
07FFFC38
07FFF800
07FFF800
07FFF800
07FFF800
07FFF800
0FFFF000
0FFFF000
0FFFF000
0FFFF000
0FFFF000
1FFFF000
1FFFE000
1FFFE000
1FFFE000
1FFFE000
1FFFE000
3FFFE000
3FFFE000
3FFFFFFE
3FFFFFFE
3FFFFFFE
3FFFFFFE
3FFFFFFE
3FFFFFFE
3FFFFFFE
3FFFFFFE
3FFFFFFE
3FFFFFFF
3FFFFFFF
3FFFFFFE
3FFFFFE0
7FF80000
F8000000
ENDCHAR
STARTCHAR 013E
ENCODING 318
SWIDTH 510 0
DWIDTH 34 0
BBX 32 49 1 -1
BITMAP
00000010
0000003F
0000207F
003FFE7F
01FFFE7F
03FFFE7F
03FFFE7F
03FFFE7F
07FFFE7F
07FFFC7E
07FFFC7E
07FFFCFE
07FFFCFC
07FFFC7C
07FFFC7C
07FFFC38
07FFF800
07FFF800
07FFF800
07FFF800
07FFF800
0FFFF000
0FFFF000
0FFFF000
0FFFF000
0FFFF000
1FFFF000
1FFFE000
1FFFE000
1FFFE000
1FFFE000
1FFFE000
3FFFE000
3FFFE000
3FFFFFFE
3FFFFFFE
3FFFFFFE
3FFFFFFE
3FFFFFFE
3FFFFFFE
3FFFFFFE
3FFFFFFE
3FFFFFFE
3FFFFFFF
3FFFFFFF
3FFFFFFE
3FFFFFE0
7FF80000
F8000000
ENDCHAR
STARTCHAR 013F
ENCODING 319
SWIDTH 510 0
DWIDTH 34 0
BBX 32 47 1 -1
BITMAP
00002000
003FFE00
01FFFE00
03FFFE00
03FFFE00
03FFFE00
07FFFE00
07FFFC00
07FFFC00
07FFFC00
07FFFC00
07FFFC00
07FFFC00
07FFFC00
07FFF800
07FFF800
07FFF800
07FFF800
07FFF800
0FFFF0C0
0FFFF3F0
0FFFF3F8
0FFFF3F8
0FFFF3F8
1FFFF3F0
1FFFE1F0
1FFFE000
1FFFE000
1FFFE000
1FFFE000
3FFFE000
3FFFE000
3FFFFFFE
3FFFFFFE
3FFFFFFE
3FFFFFFE
3FFFFFFE
3FFFFFFE
3FFFFFFE
3FFFFFFE
3FFFFFFE
3FFFFFFF
3FFFFFFF
3FFFFFFE
3FFFFFE0
7FF80000
F8000000
ENDCHAR
STARTCHAR 0140
ENCODING 320
SWIDTH 510 0
DWIDTH 34 0
BBX 32 47 1 -1
BITMAP
00002000
003FFE00
01FFFE00
03FFFE00
03FFFE00
03FFFE00
07FFFE00
07FFFC00
07FFFC00
07FFFC00
07FFFC00
07FFFC00
07FFFC00
07FFFC00
07FFF800
07FFF800
07FFF800
07FFF800
07FFF800
0FFFF0C0
0FFFF3F0
0FFFF3F8
0FFFF3F8
0FFFF3F8
1FFFF3F0
1FFFE1F0
1FFFE000
1FFFE000
1FFFE000
1FFFE000
3FFFE000
3FFFE000
3FFFFFFE
3FFFFFFE
3FFFFFFE
3FFFFFFE
3FFFFFFE
3FFFFFFE
3FFFFFFE
3FFFFFFE
3FFFFFFE
3FFFFFFF
3FFFFFFF
3FFFFFFE
3FFFFFE0
7FF80000
F8000000
ENDCHAR
STARTCHAR 0141
ENCODING 321
SWIDTH 540 0
DWIDTH 36 0
BBX 35 47 0 -1
BITMAP
0000040000
0007FFC000
003FFFC000
007FFFC000
007FFFC000
007FFFC000
007FFFC000
00FFFFC000
00FFFF8F00
00FFFF9F80
00FFFFBFC0
00FFFFFFC0
00FFFFFFC0
00FFFFFFC0
00FFFFFFE0
00FFFFFFC0
00FFFFFF00
00FFFFFE00
00FFFFFC00
01FFFFF800
01FFFFE000
01FFFFC000
01FFFF8000
01FFFE0000
03FFFE0000
07FFFE0000
0FFFFC0000
3FFFFC0000
7FFFFC0000
FFFFFC0000
FFFFFC0000
FFFFFC0000
FFFFFFFFC0
7FFFFFFFC0
7FFFFFFFC0
7FFFFFFFC0
3FFFFFFFC0
37FFFFFFC0
07FFFFFFC0
07FFFFFFC0
07FFFFFFC0
07FFFFFFE0
07FFFFFFE0
07FFFFFFC0
07FFFFFC00
0FFF000000
1F00000000
ENDCHAR
STARTCHAR 0142
ENCODING 322
SWIDTH 540 0
DWIDTH 36 0
BBX 35 47 0 -1
BITMAP
0000040000
0007FFC000
003FFFC000
007FFFC000
007FFFC000
007FFFC000
007FFFC000
00FFFFC000
00FFFF8F00
00FFFF9F80
00FFFFBFC0
00FFFFFFC0
00FFFFFFC0
00FFFFFFC0
00FFFFFFE0
00FFFFFFC0
00FFFFFF00
00FFFFFE00
00FFFFFC00
01FFFFF800
01FFFFE000
01FFFFC000
01FFFF8000
01FFFE0000
03FFFE0000
07FFFE0000
0FFFFC0000
3FFFFC0000
7FFFFC0000
FFFFFC0000
FFFFFC0000
FFFFFC0000
FFFFFFFFC0
7FFFFFFFC0
7FFFFFFFC0
7FFFFFFFC0
3FFFFFFFC0
37FFFFFFC0
07FFFFFFC0
07FFFFFFC0
07FFFFFFC0
07FFFFFFE0
07FFFFFFE0
07FFFFFFC0
07FFFFFC00
0FFF000000
1F00000000
ENDCHAR
STARTCHAR 0143
ENCODING 323
SWIDTH 555 0
DWIDTH 37 0
BBX 36 57 1 1
BITMAP
000001FE00
000001FF00
000003FE00
000007FC00
000007FC00
00000FF800
00001FF000
00001FE000
00001FC000
00003F8000
0000078000
0000000000
0000000000
0000000400
03FE003FC0
0FFFC1FFE0
0FFFC1FFF0
0FFFC1FFF0
0FFFC1FFF0
0FFF81FFE0
0FFFC1FFE0
1FFFC1FFE0
1FFFC1FFE0
1FFFC1FFE0
1FFFC1FFE0
1FFFE3FFE0
1FFFE3FFE0
1FFFE3FFE0
3FFFE3FFC0
3FFFF3FFC0
3FFFF3FFC0
3FFFF3FFC0
3FFFFBFFC0
3FFFFBFFC0
3FFFFBFFC0
3FFFFBFFC0
3FFFFFFFC0
3FFFFFFFC0
3FFFFFFF80
7FFFFFFF80
7FFFFFFF80
7FFCFFFF80
7FFCFFFF80
7FFC7FFF80
7FFC7FFF80
7FFC7FFF80
7FFC3FFF80
7FFC3FFF80
7FFC3FFF80
7FFC1FFF80
7FFC1FFF80
7FFC1FFF80
7FFC1FFF80
FFFC1FFF80
FFFC1FFF80
FFFC1FFF00
FFE007FC00
ENDCHAR
STARTCHAR 0144
ENCODING 324
SWIDTH 555 0
DWIDTH 37 0
BBX 36 57 1 1
BITMAP
000001FE00
000001FF00
000003FE00
000007FC00
000007FC00
00000FF800
00001FF000
00001FE000
00001FC000
00003F8000
0000078000
0000000000
0000000000
0000000400
03FE003FC0
0FFFC1FFE0
0FFFC1FFF0
0FFFC1FFF0
0FFFC1FFF0
0FFF81FFE0
0FFFC1FFE0
1FFFC1FFE0
1FFFC1FFE0
1FFFC1FFE0
1FFFC1FFE0
1FFFE3FFE0
1FFFE3FFE0
1FFFE3FFE0
3FFFE3FFC0
3FFFF3FFC0
3FFFF3FFC0
3FFFF3FFC0
3FFFFBFFC0
3FFFFBFFC0
3FFFFBFFC0
3FFFFBFFC0
3FFFFFFFC0
3FFFFFFFC0
3FFFFFFF80
7FFFFFFF80
7FFFFFFF80
7FFCFFFF80
7FFCFFFF80
7FFC7FFF80
7FFC7FFF80
7FFC7FFF80
7FFC3FFF80
7FFC3FFF80
7FFC3FFF80
7FFC1FFF80
7FFC1FFF80
7FFC1FFF80
7FFC1FFF80
FFFC1FFF80
FFFC1FFF80
FFFC1FFF00
FFE007FC00
ENDCHAR
STARTCHAR 0145
ENCODING 325
SWIDTH 555 0
DWIDTH 37 0
BBX 36 56 1 -11
BITMAP
0000000400
03FE003FC0
0FFFC1FFE0
0FFFC1FFF0
0FFFC1FFF0
0FFFC1FFF0
0FFF81FFE0
0FFFC1FFE0
1FFFC1FFE0
1FFFC1FFE0
1FFFC1FFE0
1FFFC1FFE0
1FFFE3FFE0
1FFFE3FFE0
1FFFE3FFE0
3FFFE3FFC0
3FFFF3FFC0
3FFFF3FFC0
3FFFF3FFC0
3FFFFBFFC0
3FFFFBFFC0
3FFFFBFFC0
3FFFFBFFC0
3FFFFFFFC0
3FFFFFFFC0
3FFFFFFF80
7FFFFFFF80
7FFFFFFF80
7FFCFFFF80
7FFCFFFF80
7FFC7FFF80
7FFC7FFF80
7FFC7FFF80
7FFC3FFF80
7FFC3FFF80
7FFC3FFF80
7FFC1FFF80
7FFC1FFF80
7FFC1FFF80
7FFC1FFF80
FFFC1FFF80
FFFC1FFF80
FFFC1FFF00
FFE007FC00
0000000000
0000000000
001FF00000
001FF00000
001FF00000
001FF00000
001FF00000
003FE00000
003FC00000
003FC00000
003F800000
000F000000
ENDCHAR
STARTCHAR 0146
ENCODING 326
SWIDTH 555 0
DWIDTH 37 0
BBX 36 56 1 -11
BITMAP
0000000400
03FE003FC0
0FFFC1FFE0
0FFFC1FFF0
0FFFC1FFF0
0FFFC1FFF0
0FFF81FFE0
0FFFC1FFE0
1FFFC1FFE0
1FFFC1FFE0
1FFFC1FFE0
1FFFC1FFE0
1FFFE3FFE0
1FFFE3FFE0
1FFFE3FFE0
3FFFE3FFC0
3FFFF3FFC0
3FFFF3FFC0
3FFFF3FFC0
3FFFFBFFC0
3FFFFBFFC0
3FFFFBFFC0
3FFFFBFFC0
3FFFFFFFC0
3FFFFFFFC0
3FFFFFFF80
7FFFFFFF80
7FFFFFFF80
7FFCFFFF80
7FFCFFFF80
7FFC7FFF80
7FFC7FFF80
7FFC7FFF80
7FFC3FFF80
7FFC3FFF80
7FFC3FFF80
7FFC1FFF80
7FFC1FFF80
7FFC1FFF80
7FFC1FFF80
FFFC1FFF80
FFFC1FFF80
FFFC1FFF00
FFE007FC00
0000000000
0000000000
001FF00000
001FF00000
001FF00000
001FF00000
001FF00000
003FE00000
003FC00000
003FC00000
003F800000
000F000000
ENDCHAR
STARTCHAR 0147
ENCODING 327
SWIDTH 555 0
DWIDTH 37 0
BBX 36 56 1 1
BITMAP
000F003800
001FC1FE00
001FE3FE00
001FF7FC00
000FFFFC00
0007FFF800
0003FFF000
0001FFC000
00007F8000
00003E0000
0000000000
0000000000
0000000400
03FE003FC0
0FFFC1FFE0
0FFFC1FFF0
0FFFC1FFF0
0FFFC1FFF0
0FFF81FFE0
0FFFC1FFE0
1FFFC1FFE0
1FFFC1FFE0
1FFFC1FFE0
1FFFC1FFE0
1FFFE3FFE0
1FFFE3FFE0
1FFFE3FFE0
3FFFE3FFC0
3FFFF3FFC0
3FFFF3FFC0
3FFFF3FFC0
3FFFFBFFC0
3FFFFBFFC0
3FFFFBFFC0
3FFFFBFFC0
3FFFFFFFC0
3FFFFFFFC0
3FFFFFFF80
7FFFFFFF80
7FFFFFFF80
7FFCFFFF80
7FFCFFFF80
7FFC7FFF80
7FFC7FFF80
7FFC7FFF80
7FFC3FFF80
7FFC3FFF80
7FFC3FFF80
7FFC1FFF80
7FFC1FFF80
7FFC1FFF80
7FFC1FFF80
FFFC1FFF80
FFFC1FFF80
FFFC1FFF00
FFE007FC00
ENDCHAR
STARTCHAR 0148
ENCODING 328
SWIDTH 555 0
DWIDTH 37 0
BBX 36 56 1 1
BITMAP
000F003800
001FC1FE00
001FE3FE00
001FF7FC00
000FFFFC00
0007FFF800
0003FFF000
0001FFC000
00007F8000
00003E0000
0000000000
0000000000
0000000400
03FE003FC0
0FFFC1FFE0
0FFFC1FFF0
0FFFC1FFF0
0FFFC1FFF0
0FFF81FFE0
0FFFC1FFE0
1FFFC1FFE0
1FFFC1FFE0
1FFFC1FFE0
1FFFC1FFE0
1FFFE3FFE0
1FFFE3FFE0
1FFFE3FFE0
3FFFE3FFC0
3FFFF3FFC0
3FFFF3FFC0
3FFFF3FFC0
3FFFFBFFC0
3FFFFBFFC0
3FFFFBFFC0
3FFFFBFFC0
3FFFFFFFC0
3FFFFFFFC0
3FFFFFFF80
7FFFFFFF80
7FFFFFFF80
7FFCFFFF80
7FFCFFFF80
7FFC7FFF80
7FFC7FFF80
7FFC7FFF80
7FFC3FFF80
7FFC3FFF80
7FFC3FFF80
7FFC1FFF80
7FFC1FFF80
7FFC1FFF80
7FFC1FFF80
FFFC1FFF80
FFFC1FFF80
FFFC1FFF00
FFE007FC00
ENDCHAR
STARTCHAR 0149
ENCODING 329
SWIDTH 630 0
DWIDTH 42 0
BBX 40 48 1 1
BITMAP
1C00000000
3FC0000000
7FE0000000
7FE0000000
7FE0800020
7FE3FC01FE
7FEFFF07FF
7FEFFF07FF
7FEFFF07FF
7FEFFF07FF
7FEFFF07FF
7FDFFF07FF
7FDFFF07FF
7FDFFF07FF
7FDFFF8FFF
7F9FFF8FFF
FF9FFF8FFE
FF9FFF8FFE
FF1FFF8FFE
FF3FFFCFFE
7F3FFFCFFE
7E3FFFCFFE
3E3FFFCFFE
1C3FFFEFFE
003FFFEFFE
003FFFEFFE
003FFFEFFE
003FFFFFFC
003FFFFFFC
003FFFFFFC
003FFBFFFC
007FFBFFFC
007FFBFFFC
007FF9FFFC
007FF9FFFC
007FF9FFFC
007FF8FFFC
007FF8FFFC
007FF8FFFC
007FF87FFC
007FF87FFC
007FF87FFC
007FF87FFC
007FF83FFC
007FF83FFC
00FFF83FFC
00FFF83FF8
00FFC01FE0
ENDCHAR
STARTCHAR 014A
ENCODING 330
SWIDTH 540 0
DWIDTH 36 0
BBX 35 55 1 -8
BITMAP
0F00000000
7F80F80000
FFC7FF8000
FFDFFFE000
FFFFFFF000
FFFFFFF000
FFFFFFF800
FFFFFFFC00
FFFFFFFE00
FFFFFFFE00
FFFFFFFF00
FFFFFFFF00
FFFFFFFF00
FFFFFFFF80
FFFFFFFF80
FFFFFFFF80
FFF80FFFC0
FFF807FFC0
FFF007FFC0
FFF003FFC0
FFF003FFC0
FFF003FFE0
FFE001FFE0
7FE001FFE0
7FE001FFC0
7FE001FFC0
7FE001FFC0
7FE001FFC0
7FE001FFC0
7FE001FFC0
7FE001FFC0
7FE001FFC0
7FE001FFC0
7FE001FFC0
7FE001FFC0
7FE001FFC0
7FE001FF80
7FE001FF80
7FE001FF80
7FE001FF80
7FE001FF80
7FE001FF80
7FE003FF80
7FE003FF80
3FE007FF80
3FC00FFF00
00007FFF00
0001FFFF00
0001FFFF00
0003FFFE00
0003FFFC00
0003FFF800
0001FFF000
0001FFC000
0001FC0000
ENDCHAR
STARTCHAR 014B
ENCODING 331
SWIDTH 540 0
DWIDTH 36 0
BBX 35 55 1 -8
BITMAP
0F00000000
7F80F80000
FFC7FF8000
FFDFFFE000
FFFFFFF000
FFFFFFF000
FFFFFFF800
FFFFFFFC00
FFFFFFFE00
FFFFFFFE00
FFFFFFFF00
FFFFFFFF00
FFFFFFFF00
FFFFFFFF80
FFFFFFFF80
FFFFFFFF80
FFF80FFFC0
FFF807FFC0
FFF007FFC0
FFF003FFC0
FFF003FFC0
FFF003FFE0
FFE001FFE0
7FE001FFE0
7FE001FFC0
7FE001FFC0
7FE001FFC0
7FE001FFC0
7FE001FFC0
7FE001FFC0
7FE001FFC0
7FE001FFC0
7FE001FFC0
7FE001FFC0
7FE001FFC0
7FE001FFC0
7FE001FF80
7FE001FF80
7FE001FF80
7FE001FF80
7FE001FF80
7FE001FF80
7FE003FF80
7FE003FF80
3FE007FF80
3FC00FFF00
00007FFF00
0001FFFF00
0001FFFF00
0003FFFE00
0003FFFC00
0003FFF800
0001FFF000
0001FFC000
0001FC0000
ENDCHAR
STARTCHAR 014C
ENCODING 332
SWIDTH 525 0
DWIDTH 35 0
BBX 34 54 1 0
BITMAP
070E400000
3FFFFC0000
3FFFFC0000
3FFFFC0000
3FFFFC0000
3FFFFC0000
0C00000000
0018000000
003F000000
007FC00000
00FFF00000
01FFF80000
01FFFE0000
03FFFF8000
03FFFFC000
07FFFFE000
07FFFFE000
0FFFFFF000
0FFFFFF800
1FFFFFF800
1FFFFFFC00
1FFFFFFC00
3FFFFFFE00
3FFFFFFE00
7FFFFFFF00
7FFC1FFF00
7FFC0FFF80
7FF807FF80
FFF807FF80
FFF807FF80
FFF007FF80
FFF007FFC0
FFF007FFC0
FFF807FFC0
FFFC0FFFC0
FFFC0FFFC0
7FFF1FFFC0
7FFFFFFF80
7FFFFFFF80
7FFFFFFF80
3FFFFFFF80
3FFFFFFF80
3FFFFFFF00
1FFFFFFF00
1FFFFFFF00
1FFFFFFF00
0FFFFFFE00
0FFFFFFE00
07FFFFFC00
03FFFFFC00
01FFFFF800
007FFFE000
001FFFC000
0007FF0000
ENDCHAR
STARTCHAR 014D
ENCODING 333
SWIDTH 525 0
DWIDTH 35 0
BBX 34 54 1 0
BITMAP
070E400000
3FFFFC0000
3FFFFC0000
3FFFFC0000
3FFFFC0000
3FFFFC0000
0C00000000
0018000000
003F000000
007FC00000
00FFF00000
01FFF80000
01FFFE0000
03FFFF8000
03FFFFC000
07FFFFE000
07FFFFE000
0FFFFFF000
0FFFFFF800
1FFFFFF800
1FFFFFFC00
1FFFFFFC00
3FFFFFFE00
3FFFFFFE00
7FFFFFFF00
7FFC1FFF00
7FFC0FFF80
7FF807FF80
FFF807FF80
FFF807FF80
FFF007FF80
FFF007FFC0
FFF007FFC0
FFF807FFC0
FFFC0FFFC0
FFFC0FFFC0
7FFF1FFFC0
7FFFFFFF80
7FFFFFFF80
7FFFFFFF80
3FFFFFFF80
3FFFFFFF80
3FFFFFFF00
1FFFFFFF00
1FFFFFFF00
1FFFFFFF00
0FFFFFFE00
0FFFFFFE00
07FFFFFC00
03FFFFFC00
01FFFFF800
007FFFE000
001FFFC000
0007FF0000
ENDCHAR
STARTCHAR 014E
ENCODING 334
SWIDTH 525 0
DWIDTH 35 0
BBX 34 58 1 0
BITMAP
3E00FC0000
3E00FC0000
3F01FC0000
1F83FC0000
1FFFF80000
1FFFF80000
0FFFF00000
07FFE00000
03FFC00000
01FF800000
0030000000
0018000000
003F000000
007FC00000
00FFF00000
01FFF80000
01FFFE0000
03FFFF8000
03FFFFC000
07FFFFE000
07FFFFE000
0FFFFFF000
0FFFFFF800
1FFFFFF800
1FFFFFFC00
1FFFFFFC00
3FFFFFFE00
3FFFFFFE00
7FFFFFFF00
7FFC1FFF00
7FFC0FFF80
7FF807FF80
FFF807FF80
FFF807FF80
FFF007FF80
FFF007FFC0
FFF007FFC0
FFF807FFC0
FFFC0FFFC0
FFFC0FFFC0
7FFF1FFFC0
7FFFFFFF80
7FFFFFFF80
7FFFFFFF80
3FFFFFFF80
3FFFFFFF80
3FFFFFFF00
1FFFFFFF00
1FFFFFFF00
1FFFFFFF00
0FFFFFFE00
0FFFFFFE00
07FFFFFC00
03FFFFFC00
01FFFFF800
007FFFE000
001FFFC000
0007FF0000
ENDCHAR
STARTCHAR 014F
ENCODING 335
SWIDTH 525 0
DWIDTH 35 0
BBX 34 58 1 0
BITMAP
3E00FC0000
3E00FC0000
3F01FC0000
1F83FC0000
1FFFF80000
1FFFF80000
0FFFF00000
07FFE00000
03FFC00000
01FF800000
0030000000
0018000000
003F000000
007FC00000
00FFF00000
01FFF80000
01FFFE0000
03FFFF8000
03FFFFC000
07FFFFE000
07FFFFE000
0FFFFFF000
0FFFFFF800
1FFFFFF800
1FFFFFFC00
1FFFFFFC00
3FFFFFFE00
3FFFFFFE00
7FFFFFFF00
7FFC1FFF00
7FFC0FFF80
7FF807FF80
FFF807FF80
FFF807FF80
FFF007FF80
FFF007FFC0
FFF007FFC0
FFF807FFC0
FFFC0FFFC0
FFFC0FFFC0
7FFF1FFFC0
7FFFFFFF80
7FFFFFFF80
7FFFFFFF80
3FFFFFFF80
3FFFFFFF80
3FFFFFFF00
1FFFFFFF00
1FFFFFFF00
1FFFFFFF00
0FFFFFFE00
0FFFFFFE00
07FFFFFC00
03FFFFFC00
01FFFFF800
007FFFE000
001FFFC000
0007FF0000
ENDCHAR
STARTCHAR 0150
ENCODING 336
SWIDTH 525 0
DWIDTH 35 0
BBX 34 58 1 0
BITMAP
00FF0FF000
01FF1FF000
01FF3FF000
03FE3FE000
03FC7FC000
07F87F8000
0FF8FF0000
0FF0FE0000
0FE1FE0000
1FC1FC0000
0380380000
0018000000
003F000000
007FC00000
00FFF00000
01FFF80000
01FFFE0000
03FFFF8000
03FFFFC000
07FFFFE000
07FFFFE000
0FFFFFF000
0FFFFFF800
1FFFFFF800
1FFFFFFC00
1FFFFFFC00
3FFFFFFE00
3FFFFFFE00
7FFFFFFF00
7FFC1FFF00
7FFC0FFF80
7FF807FF80
FFF807FF80
FFF807FF80
FFF007FF80
FFF007FFC0
FFF007FFC0
FFF807FFC0
FFFC0FFFC0
FFFC0FFFC0
7FFF1FFFC0
7FFFFFFF80
7FFFFFFF80
7FFFFFFF80
3FFFFFFF80
3FFFFFFF80
3FFFFFFF00
1FFFFFFF00
1FFFFFFF00
1FFFFFFF00
0FFFFFFE00
0FFFFFFE00
07FFFFFC00
03FFFFFC00
01FFFFF800
007FFFE000
001FFFC000
0007FF0000
ENDCHAR
STARTCHAR 0151
ENCODING 337
SWIDTH 525 0
DWIDTH 35 0
BBX 34 58 1 0
BITMAP
00FF0FF000
01FF1FF000
01FF3FF000
03FE3FE000
03FC7FC000
07F87F8000
0FF8FF0000
0FF0FE0000
0FE1FE0000
1FC1FC0000
0380380000
0018000000
003F000000
007FC00000
00FFF00000
01FFF80000
01FFFE0000
03FFFF8000
03FFFFC000
07FFFFE000
07FFFFE000
0FFFFFF000
0FFFFFF800
1FFFFFF800
1FFFFFFC00
1FFFFFFC00
3FFFFFFE00
3FFFFFFE00
7FFFFFFF00
7FFC1FFF00
7FFC0FFF80
7FF807FF80
FFF807FF80
FFF807FF80
FFF007FF80
FFF007FFC0
FFF007FFC0
FFF807FFC0
FFFC0FFFC0
FFFC0FFFC0
7FFF1FFFC0
7FFFFFFF80
7FFFFFFF80
7FFFFFFF80
3FFFFFFF80
3FFFFFFF80
3FFFFFFF00
1FFFFFFF00
1FFFFFFF00
1FFFFFFF00
0FFFFFFE00
0FFFFFFE00
07FFFFFC00
03FFFFFC00
01FFFFF800
007FFFE000
001FFFC000
0007FF0000
ENDCHAR
STARTCHAR 0152
ENCODING 338
SWIDTH 735 0
DWIDTH 49 0
BBX 47 47 1 -1
BITMAP
00001FFFF800
00007FFFFF00
0001FFFFFF80
0003FFFFFF00
000FFFFFFF00
003FFFFFFF00
007FFFFFFF00
00FFFFFFFE00
01FFFFFFFE00
03FFFFFFFE00
03FFFFFFFE00
07FFFFFFFE00
0FFFFFFFFE00
0FFFFFFFFC00
1FFFFFFE0000
1FFFFFFC0000
3FFFFFFC0000
3FFF1FFE0000
3FFC0FFE0400
7FF80FFEFE00
7FF807FFFE00
7FF807FFFC00
FFF807FFFC00
FFF803FFFE00
FFF803FFFE00
FFF807FFFE00
FFF807FF0000
FFFC0FFF0000
FFFE1FFF8010
FFFF7FFFFFF8
7FFFFFFFFFF8
7FFFFFFFFFF8
7FFFFFFFFFFC
7FFFFFFFFFFC
7FFFFFFFFFFC
3FFFFFFFFFFC
3FFFFFFFFFFC
3FFFFFFFFFFE
3FFFFFFFFFFE
1FFFFFFFFFFE
1FFFFFFFFFFE
0FFFFFFFFFFC
0FFFFFFFFFE0
03FFFFFFFE00
01FFFFFFE000
007FFEFC0000
001FF0400000
ENDCHAR
STARTCHAR 0153
ENCODING 339
SWIDTH 735 0
DWIDTH 49 0
BBX 47 47 1 -1
BITMAP
00001FFFF800
00007FFFFF00
0001FFFFFF80
0003FFFFFF00
000FFFFFFF00
003FFFFFFF00
007FFFFFFF00
00FFFFFFFE00
01FFFFFFFE00
03FFFFFFFE00
03FFFFFFFE00
07FFFFFFFE00
0FFFFFFFFE00
0FFFFFFFFC00
1FFFFFFE0000
1FFFFFFC0000
3FFFFFFC0000
3FFF1FFE0000
3FFC0FFE0400
7FF80FFEFE00
7FF807FFFE00
7FF807FFFC00
FFF807FFFC00
FFF803FFFE00
FFF803FFFE00
FFF807FFFE00
FFF807FF0000
FFFC0FFF0000
FFFE1FFF8010
FFFF7FFFFFF8
7FFFFFFFFFF8
7FFFFFFFFFF8
7FFFFFFFFFFC
7FFFFFFFFFFC
7FFFFFFFFFFC
3FFFFFFFFFFC
3FFFFFFFFFFC
3FFFFFFFFFFE
3FFFFFFFFFFE
1FFFFFFFFFFE
1FFFFFFFFFFE
0FFFFFFFFFFC
0FFFFFFFFFE0
03FFFFFFFE00
01FFFFFFE000
007FFEFC0000
001FF0400000
ENDCHAR
STARTCHAR 0154
ENCODING 340
SWIDTH 585 0
DWIDTH 39 0
BBX 37 59 1 -1
BITMAP
000FF00000
001FF00000
003FF00000
003FE00000
007FC00000
00FF800000
00FF000000
01FE000000
01FC000000
01FC000000
0038000000
0000000000
0007C00000
007FF80000
1FFFFE0000
7FFFFF8000
FFFFFFE000
FFFFFFF000
FFFFFFF800
FFFFFFFC00
FFFE07FC00
FFFE01FE00
FFFF00FE00
FFFF00FE00
7FFF00FE00
7FFF00FF00
7FFF00FF00
7FFF00FF00
7FFF01FE00
7FFF83FE00
7FFFC7FE00
7FFFDFFE00
7FFFFFFC00
7FFFFFFC00
7FFFFFF800
7FFFFFE000
7FFFFF8000
3FFFFFC000
3FFFFFE000
3FFFFFE000
3FFFFFF000
3FFFFFF000
3FFFDFF800
3FFFDFFC00
3FFFCFFC00
3FFFCFFE00
3FFFC7FF00
3FFFC3FF00
3FFFC3FF80
3FFFC1FF80
3FFFE1FFC0
1FFFE0FFE0
1FFFE0FFE0
1FFFE0FFF0
1FFFE07FF0
1FFFE07FF8
0FFFE03FF0
0FFFE03F80
07FF800000
ENDCHAR
STARTCHAR 0155
ENCODING 341
SWIDTH 585 0
DWIDTH 39 0
BBX 37 59 1 -1
BITMAP
000FF00000
001FF00000
003FF00000
003FE00000
007FC00000
00FF800000
00FF000000
01FE000000
01FC000000
01FC000000
0038000000
0000000000
0007C00000
007FF80000
1FFFFE0000
7FFFFF8000
FFFFFFE000
FFFFFFF000
FFFFFFF800
FFFFFFFC00
FFFE07FC00
FFFE01FE00
FFFF00FE00
FFFF00FE00
7FFF00FE00
7FFF00FF00
7FFF00FF00
7FFF00FF00
7FFF01FE00
7FFF83FE00
7FFFC7FE00
7FFFDFFE00
7FFFFFFC00
7FFFFFFC00
7FFFFFF800
7FFFFFE000
7FFFFF8000
3FFFFFC000
3FFFFFE000
3FFFFFE000
3FFFFFF000
3FFFFFF000
3FFFDFF800
3FFFDFFC00
3FFFCFFC00
3FFFCFFE00
3FFFC7FF00
3FFFC3FF00
3FFFC3FF80
3FFFC1FF80
3FFFE1FFC0
1FFFE0FFE0
1FFFE0FFE0
1FFFE0FFF0
1FFFE07FF0
1FFFE07FF8
0FFFE03FF0
0FFFE03F80
07FF800000
ENDCHAR
STARTCHAR 0156
ENCODING 342
SWIDTH 585 0
DWIDTH 39 0
BBX 37 57 1 -11
BITMAP
0007C00000
007FF80000
1FFFFE0000
7FFFFF8000
FFFFFFE000
FFFFFFF000
FFFFFFF800
FFFFFFFC00
FFFE07FC00
FFFE01FE00
FFFF00FE00
FFFF00FE00
7FFF00FE00
7FFF00FF00
7FFF00FF00
7FFF00FF00
7FFF01FE00
7FFF83FE00
7FFFC7FE00
7FFFDFFE00
7FFFFFFC00
7FFFFFFC00
7FFFFFF800
7FFFFFE000
7FFFFF8000
3FFFFFC000
3FFFFFE000
3FFFFFE000
3FFFFFF000
3FFFFFF000
3FFFDFF800
3FFFDFFC00
3FFFCFFC00
3FFFCFFE00
3FFFC7FF00
3FFFC3FF00
3FFFC3FF80
3FFFC1FF80
3FFFE1FFC0
1FFFE0FFE0
1FFFE0FFE0
1FFFE0FFF0
1FFFE07FF0
1FFFE07FF8
0FFFE03FF0
0FFFE03F80
07FF800000
00007F8000
00007FC000
00007FC000
00007FC000
0000FF8000
0000FF8000
0000FF0000
0000FF0000
0000FE0000
00007C0000
ENDCHAR
STARTCHAR 0157
ENCODING 343
SWIDTH 585 0
DWIDTH 39 0
BBX 37 57 1 -11
BITMAP
0007C00000
007FF80000
1FFFFE0000
7FFFFF8000
FFFFFFE000
FFFFFFF000
FFFFFFF800
FFFFFFFC00
FFFE07FC00
FFFE01FE00
FFFF00FE00
FFFF00FE00
7FFF00FE00
7FFF00FF00
7FFF00FF00
7FFF00FF00
7FFF01FE00
7FFF83FE00
7FFFC7FE00
7FFFDFFE00
7FFFFFFC00
7FFFFFFC00
7FFFFFF800
7FFFFFE000
7FFFFF8000
3FFFFFC000
3FFFFFE000
3FFFFFE000
3FFFFFF000
3FFFFFF000
3FFFDFF800
3FFFDFFC00
3FFFCFFC00
3FFFCFFE00
3FFFC7FF00
3FFFC3FF00
3FFFC3FF80
3FFFC1FF80
3FFFE1FFC0
1FFFE0FFE0
1FFFE0FFE0
1FFFE0FFF0
1FFFE07FF0
1FFFE07FF8
0FFFE03FF0
0FFFE03F80
07FF800000
00007F8000
00007FC000
00007FC000
00007FC000
0000FF8000
0000FF8000
0000FF0000
0000FF0000
0000FE0000
00007C0000
ENDCHAR
STARTCHAR 0158
ENCODING 344
SWIDTH 585 0
DWIDTH 39 0
BBX 37 59 1 -1
BITMAP
0003E00000
3C07F00000
FE0FF00000
FF1FE00000
FFFFC00000
7FFFC00000
3FFF800000
0FFF000000
07FE000000
01F8000000
00F0000000
0000000000
0007C00000
007FF80000
1FFFFE0000
7FFFFF8000
FFFFFFE000
FFFFFFF000
FFFFFFF800
FFFFFFFC00
FFFE07FC00
FFFE01FE00
FFFF00FE00
FFFF00FE00
7FFF00FE00
7FFF00FF00
7FFF00FF00
7FFF00FF00
7FFF01FE00
7FFF83FE00
7FFFC7FE00
7FFFDFFE00
7FFFFFFC00
7FFFFFFC00
7FFFFFF800
7FFFFFE000
7FFFFF8000
3FFFFFC000
3FFFFFE000
3FFFFFE000
3FFFFFF000
3FFFFFF000
3FFFDFF800
3FFFDFFC00
3FFFCFFC00
3FFFCFFE00
3FFFC7FF00
3FFFC3FF00
3FFFC3FF80
3FFFC1FF80
3FFFE1FFC0
1FFFE0FFE0
1FFFE0FFE0
1FFFE0FFF0
1FFFE07FF0
1FFFE07FF8
0FFFE03FF0
0FFFE03F80
07FF800000
ENDCHAR
STARTCHAR 0159
ENCODING 345
SWIDTH 585 0
DWIDTH 39 0
BBX 37 59 1 -1
BITMAP
0003E00000
3C07F00000
FE0FF00000
FF1FE00000
FFFFC00000
7FFFC00000
3FFF800000
0FFF000000
07FE000000
01F8000000
00F0000000
0000000000
0007C00000
007FF80000
1FFFFE0000
7FFFFF8000
FFFFFFE000
FFFFFFF000
FFFFFFF800
FFFFFFFC00
FFFE07FC00
FFFE01FE00
FFFF00FE00
FFFF00FE00
7FFF00FE00
7FFF00FF00
7FFF00FF00
7FFF00FF00
7FFF01FE00
7FFF83FE00
7FFFC7FE00
7FFFDFFE00
7FFFFFFC00
7FFFFFFC00
7FFFFFF800
7FFFFFE000
7FFFFF8000
3FFFFFC000
3FFFFFE000
3FFFFFE000
3FFFFFF000
3FFFFFF000
3FFFDFF800
3FFFDFFC00
3FFFCFFC00
3FFFCFFE00
3FFFC7FF00
3FFFC3FF00
3FFFC3FF80
3FFFC1FF80
3FFFE1FFC0
1FFFE0FFE0
1FFFE0FFE0
1FFFE0FFF0
1FFFE07FF0
1FFFE07FF8
0FFFE03FF0
0FFFE03F80
07FF800000
ENDCHAR
STARTCHAR 015A
ENCODING 346
SWIDTH 495 0
DWIDTH 33 0
BBX 31 59 1 -1
BITMAP
00000FF0
00001FF0
00003FF0
00003FE0
00007FC0
0000FF80
0000FF00
0001FE00
0001FC00
0001FC00
00003800
00000000
0007FF80
003FFFFE
00FFFFFE
03FFFFFE
03FFFFFE
07FFFFFC
07FFFFFC
07FFFFF8
0FFFFFF8
0FFFFFF0
1FFFFFF0
1FFFFFE0
1FFFFFE0
3FFFFFC0
3FFFFFC0
3FFFFFC0
3FFFFF80
3FFC0780
1FFC0180
1FFF0000
1FFF8000
0FFFF000
0FFFFC00
07FFFF00
03FFFFE0
03FFFFF0
007FFFF0
0007FFF8
0001FFF8
00007FF8
00001FF8
00003FFC
38003FFC
7C007FFC
7F3FFFFC
FFFFFFFC
FFFFFFFC
FFFFFFFC
FFFFFFF8
FFFFFFF8
7FFFFFF8
3FFFFFF0
1FFFFF80
0FFFFF00
07FFFE00
00FFF000
000F0000
ENDCHAR
STARTCHAR 015B
ENCODING 347
SWIDTH 495 0
DWIDTH 33 0
BBX 31 59 1 -1
BITMAP
00000FF0
00001FF0
00003FF0
00003FE0
00007FC0
0000FF80
0000FF00
0001FE00
0001FC00
0001FC00
00003800
00000000
0007FF80
003FFFFE
00FFFFFE
03FFFFFE
03FFFFFE
07FFFFFC
07FFFFFC
07FFFFF8
0FFFFFF8
0FFFFFF0
1FFFFFF0
1FFFFFE0
1FFFFFE0
3FFFFFC0
3FFFFFC0
3FFFFFC0
3FFFFF80
3FFC0780
1FFC0180
1FFF0000
1FFF8000
0FFFF000
0FFFFC00
07FFFF00
03FFFFE0
03FFFFF0
007FFFF0
0007FFF8
0001FFF8
00007FF8
00001FF8
00003FFC
38003FFC
7C007FFC
7F3FFFFC
FFFFFFFC
FFFFFFFC
FFFFFFFC
FFFFFFF8
FFFFFFF8
7FFFFFF8
3FFFFFF0
1FFFFF80
0FFFFF00
07FFFE00
00FFF000
000F0000
ENDCHAR
STARTCHAR 015C
ENCODING 348
SWIDTH 495 0
DWIDTH 33 0
BBX 31 59 1 -1
BITMAP
00003000
0001F800
0003FC00
000FFF00
001FFF80
003FFFC0
007FFFE0
00FFDFF0
00FF0FF0
00FE07F0
003001C0
00000000
0007FF80
003FFFFE
00FFFFFE
03FFFFFE
03FFFFFE
07FFFFFC
07FFFFFC
07FFFFF8
0FFFFFF8
0FFFFFF0
1FFFFFF0
1FFFFFE0
1FFFFFE0
3FFFFFC0
3FFFFFC0
3FFFFFC0
3FFFFF80
3FFC0780
1FFC0180
1FFF0000
1FFF8000
0FFFF000
0FFFFC00
07FFFF00
03FFFFE0
03FFFFF0
007FFFF0
0007FFF8
0001FFF8
00007FF8
00001FF8
00003FFC
38003FFC
7C007FFC
7F3FFFFC
FFFFFFFC
FFFFFFFC
FFFFFFFC
FFFFFFF8
FFFFFFF8
7FFFFFF8
3FFFFFF0
1FFFFF80
0FFFFF00
07FFFE00
00FFF000
000F0000
ENDCHAR
STARTCHAR 015D
ENCODING 349
SWIDTH 495 0
DWIDTH 33 0
BBX 31 59 1 -1
BITMAP
00003000
0001F800
0003FC00
000FFF00
001FFF80
003FFFC0
007FFFE0
00FFDFF0
00FF0FF0
00FE07F0
003001C0
00000000
0007FF80
003FFFFE
00FFFFFE
03FFFFFE
03FFFFFE
07FFFFFC
07FFFFFC
07FFFFF8
0FFFFFF8
0FFFFFF0
1FFFFFF0
1FFFFFE0
1FFFFFE0
3FFFFFC0
3FFFFFC0
3FFFFFC0
3FFFFF80
3FFC0780
1FFC0180
1FFF0000
1FFF8000
0FFFF000
0FFFFC00
07FFFF00
03FFFFE0
03FFFFF0
007FFFF0
0007FFF8
0001FFF8
00007FF8
00001FF8
00003FFC
38003FFC
7C007FFC
7F3FFFFC
FFFFFFFC
FFFFFFFC
FFFFFFFC
FFFFFFF8
FFFFFFF8
7FFFFFF8
3FFFFFF0
1FFFFF80
0FFFFF00
07FFFE00
00FFF000
000F0000
ENDCHAR
STARTCHAR 015E
ENCODING 350
SWIDTH 495 0
DWIDTH 33 0
BBX 31 57 1 -11
BITMAP
0007FF80
003FFFFE
00FFFFFE
03FFFFFE
03FFFFFE
07FFFFFC
07FFFFFC
07FFFFF8
0FFFFFF8
0FFFFFF0
1FFFFFF0
1FFFFFE0
1FFFFFE0
3FFFFFC0
3FFFFFC0
3FFFFFC0
3FFFFF80
3FFC0780
1FFC0180
1FFF0000
1FFF8000
0FFFF000
0FFFFC00
07FFFF00
03FFFFE0
03FFFFF0
007FFFF0
0007FFF8
0001FFF8
00007FF8
00001FF8
00003FFC
38003FFC
7C007FFC
7F3FFFFC
FFFFFFFC
FFFFFFFC
FFFFFFFC
FFFFFFF8
FFFFFFF8
7FFFFFF8
3FFFFFF0
1FFFFF80
0FFFFF00
07FFFE00
01FFF800
003FC000
001FE000
000FF800
0007FC00
0001FE00
0100FF00
07F9FF00
07FFFE00
07FFFE00
01FFFC00
007FF000
ENDCHAR
STARTCHAR 015F
ENCODING 351
SWIDTH 495 0
DWIDTH 33 0
BBX 31 57 1 -11
BITMAP
0007FF80
003FFFFE
00FFFFFE
03FFFFFE
03FFFFFE
07FFFFFC
07FFFFFC
07FFFFF8
0FFFFFF8
0FFFFFF0
1FFFFFF0
1FFFFFE0
1FFFFFE0
3FFFFFC0
3FFFFFC0
3FFFFFC0
3FFFFF80
3FFC0780
1FFC0180
1FFF0000
1FFF8000
0FFFF000
0FFFFC00
07FFFF00
03FFFFE0
03FFFFF0
007FFFF0
0007FFF8
0001FFF8
00007FF8
00001FF8
00003FFC
38003FFC
7C007FFC
7F3FFFFC
FFFFFFFC
FFFFFFFC
FFFFFFFC
FFFFFFF8
FFFFFFF8
7FFFFFF8
3FFFFFF0
1FFFFF80
0FFFFF00
07FFFE00
01FFF800
003FC000
001FE000
000FF800
0007FC00
0001FE00
0100FF00
07F9FF00
07FFFE00
07FFFE00
01FFFC00
007FF000
ENDCHAR
STARTCHAR 0160
ENCODING 352
SWIDTH 495 0
DWIDTH 33 0
BBX 31 59 1 -1
BITMAP
00080000
00FC07E0
00FE0FF0
00FFBFF0
007FFFE0
003FFFC0
001FFF80
000FFF00
0007FE00
0001F800
0000E000
00000000
0007FF80
003FFFFE
00FFFFFE
03FFFFFE
03FFFFFE
07FFFFFC
07FFFFFC
07FFFFF8
0FFFFFF8
0FFFFFF0
1FFFFFF0
1FFFFFE0
1FFFFFE0
3FFFFFC0
3FFFFFC0
3FFFFFC0
3FFFFF80
3FFC0780
1FFC0180
1FFF0000
1FFF8000
0FFFF000
0FFFFC00
07FFFF00
03FFFFE0
03FFFFF0
007FFFF0
0007FFF8
0001FFF8
00007FF8
00001FF8
00003FFC
38003FFC
7C007FFC
7F3FFFFC
FFFFFFFC
FFFFFFFC
FFFFFFFC
FFFFFFF8
FFFFFFF8
7FFFFFF8
3FFFFFF0
1FFFFF80
0FFFFF00
07FFFE00
00FFF000
000F0000
ENDCHAR
STARTCHAR 0161
ENCODING 353
SWIDTH 495 0
DWIDTH 33 0
BBX 31 59 1 -1
BITMAP
00080000
00FC07E0
00FE0FF0
00FFBFF0
007FFFE0
003FFFC0
001FFF80
000FFF00
0007FE00
0001F800
0000E000
00000000
0007FF80
003FFFFE
00FFFFFE
03FFFFFE
03FFFFFE
07FFFFFC
07FFFFFC
07FFFFF8
0FFFFFF8
0FFFFFF0
1FFFFFF0
1FFFFFE0
1FFFFFE0
3FFFFFC0
3FFFFFC0
3FFFFFC0
3FFFFF80
3FFC0780
1FFC0180
1FFF0000
1FFF8000
0FFFF000
0FFFFC00
07FFFF00
03FFFFE0
03FFFFF0
007FFFF0
0007FFF8
0001FFF8
00007FF8
00001FF8
00003FFC
38003FFC
7C007FFC
7F3FFFFC
FFFFFFFC
FFFFFFFC
FFFFFFFC
FFFFFFF8
FFFFFFF8
7FFFFFF8
3FFFFFF0
1FFFFF80
0FFFFF00
07FFFE00
00FFF000
000F0000
ENDCHAR
STARTCHAR 0162
ENCODING 354
SWIDTH 570 0
DWIDTH 38 0
BBX 36 56 1 -11
BITMAP
01FFFFFF00
7FFFFFFFC0
FFFFFFFFE0
7FFFFFFFE0
7FFFFFFFE0
7FFFFFFFF0
7FFFFFFFF0
7FFFFFFFF0
7FFFFFFFF0
FFFFFFFFF0
FFFFFFFFF0
FFFFFFFFF0
FFFFFFFE60
FFFBFFE000
FF83FFC000
7803FF8000
0003FF0000
0003FF0000
0003FF0000
0003FF0000
0003FF0000
0003FF0000
0003FF0000
0003FF0000
0003FE0000
0003FF0000
0003FF0000
0003FF0000
0003FF0000
0003FF0000
0003FF0000
0003FF0000
0003FF0000
0003FE0000
0003FE0000
0003FE0000
0003FF0000
0003FF0000
0003FF0000
0003FF0000
0007FE0000
0007FE0000
0003FE0000
0003FE0000
0003FE0000
0001FE0000
0000FF0000
00007FC000
00003FE000
00000FF000
001807F000
003FCFF000
003FFFF000
003FFFF000
001FFFE000
0003FF8000
ENDCHAR
STARTCHAR 0163
ENCODING 355
SWIDTH 570 0
DWIDTH 38 0
BBX 36 56 1 -11
BITMAP
01FFFFFF00
7FFFFFFFC0
FFFFFFFFE0
7FFFFFFFE0
7FFFFFFFE0
7FFFFFFFF0
7FFFFFFFF0
7FFFFFFFF0
7FFFFFFFF0
FFFFFFFFF0
FFFFFFFFF0
FFFFFFFFF0
FFFFFFFE60
FFFBFFE000
FF83FFC000
7803FF8000
0003FF0000
0003FF0000
0003FF0000
0003FF0000
0003FF0000
0003FF0000
0003FF0000
0003FF0000
0003FE0000
0003FF0000
0003FF0000
0003FF0000
0003FF0000
0003FF0000
0003FF0000
0003FF0000
0003FF0000
0003FE0000
0003FE0000
0003FE0000
0003FF0000
0003FF0000
0003FF0000
0003FF0000
0007FE0000
0007FE0000
0003FE0000
0003FE0000
0003FE0000
0001FE0000
0000FF0000
00007FC000
00003FE000
00000FF000
001807F000
003FCFF000
003FFFF000
003FFFF000
001FFFE000
0003FF8000
ENDCHAR
STARTCHAR 0164
ENCODING 356
SWIDTH 570 0
DWIDTH 38 0
BBX 36 58 1 0
BITMAP
0000008000
007E03F000
007F87F800
007FCFF800
003FFFF000
003FFFE000
001FFFC000
0007FF0000
0003FE0000
0001FC0000
0000380000
0000000000
0000000000
01FFFFFF00
7FFFFFFFC0
FFFFFFFFE0
7FFFFFFFE0
7FFFFFFFE0
7FFFFFFFF0
7FFFFFFFF0
7FFFFFFFF0
7FFFFFFFF0
FFFFFFFFF0
FFFFFFFFF0
FFFFFFFFF0
FFFFFFFE60
FFFBFFE000
FF83FFC000
7803FF8000
0003FF0000
0003FF0000
0003FF0000
0003FF0000
0003FF0000
0003FF0000
0003FF0000
0003FF0000
0003FE0000
0003FF0000
0003FF0000
0003FF0000
0003FF0000
0003FF0000
0003FF0000
0003FF0000
0003FF0000
0003FE0000
0003FE0000
0003FE0000
0003FF0000
0003FF0000
0003FF0000
0003FF0000
0007FE0000
0007FE0000
0003FE0000
0003FE0000
0003FE0000
ENDCHAR
STARTCHAR 0165
ENCODING 357
SWIDTH 570 0
DWIDTH 38 0
BBX 36 58 1 0
BITMAP
0000008000
007E03F000
007F87F800
007FCFF800
003FFFF000
003FFFE000
001FFFC000
0007FF0000
0003FE0000
0001FC0000
0000380000
0000000000
0000000000
01FFFFFF00
7FFFFFFFC0
FFFFFFFFE0
7FFFFFFFE0
7FFFFFFFE0
7FFFFFFFF0
7FFFFFFFF0
7FFFFFFFF0
7FFFFFFFF0
FFFFFFFFF0
FFFFFFFFF0
FFFFFFFFF0
FFFFFFFE60
FFFBFFE000
FF83FFC000
7803FF8000
0003FF0000
0003FF0000
0003FF0000
0003FF0000
0003FF0000
0003FF0000
0003FF0000
0003FF0000
0003FE0000
0003FF0000
0003FF0000
0003FF0000
0003FF0000
0003FF0000
0003FF0000
0003FF0000
0003FF0000
0003FE0000
0003FE0000
0003FE0000
0003FF0000
0003FF0000
0003FF0000
0003FF0000
0007FE0000
0007FE0000
0003FE0000
0003FE0000
0003FE0000
ENDCHAR
STARTCHAR 0166
ENCODING 358
SWIDTH 570 0
DWIDTH 38 0
BBX 36 45 1 0
BITMAP
01FFFFFF00
7FFFFFFFC0
FFFFFFFFE0
7FFFFFFFE0
7FFFFFFFE0
7FFFFFFFF0
7FFFFFFFF0
7FFFFFFFF0
7FFFFFFFF0
FFFFFFFFF0
FFFFFFFFF0
FFFFFFFFF0
FFFFFFFE60
FFFBFFE000
FF83FFC000
7803FF8000
0003FF0000
0003FF0000
0003FF0000
0003FF0000
0003FFFF00
07FFFFFF80
07FFFFFF80
07FFFFFF80
07FFFFFF80
07FFFFFF80
07FFFFFF80
07FFFFFF80
07FFFFFF80
0003FF0000
0003FF0000
0003FF0000
0003FF0000
0003FE0000
0003FE0000
0003FE0000
0003FF0000
0003FF0000
0003FF0000
0003FF0000
0007FE0000
0007FE0000
0003FE0000
0003FE0000
0003FE0000
ENDCHAR
STARTCHAR 0167
ENCODING 359
SWIDTH 570 0
DWIDTH 38 0
BBX 36 45 1 0
BITMAP
01FFFFFF00
7FFFFFFFC0
FFFFFFFFE0
7FFFFFFFE0
7FFFFFFFE0
7FFFFFFFF0
7FFFFFFFF0
7FFFFFFFF0
7FFFFFFFF0
FFFFFFFFF0
FFFFFFFFF0
FFFFFFFFF0
FFFFFFFE60
FFFBFFE000
FF83FFC000
7803FF8000
0003FF0000
0003FF0000
0003FF0000
0003FF0000
0003FFFF00
07FFFFFF80
07FFFFFF80
07FFFFFF80
07FFFFFF80
07FFFFFF80
07FFFFFF80
07FFFFFF80
07FFFFFF80
0003FF0000
0003FF0000
0003FF0000
0003FF0000
0003FE0000
0003FE0000
0003FE0000
0003FF0000
0003FF0000
0003FF0000
0003FF0000
0007FE0000
0007FE0000
0003FE0000
0003FE0000
0003FE0000
ENDCHAR
STARTCHAR 0168
ENCODING 360
SWIDTH 540 0
DWIDTH 36 0
BBX 35 56 1 1
BITMAP
0003C0FC00
0007F0FC00
000FF9FC00
001FFFFC00
001FFFFC00
001FFFFC00
001FFFF800
001FBFF000
001F1FE000
001F03C000
0000000000
0600000000
0FF800FF80
0FFC00FFC0
0FFC01FFC0
0FFC01FFC0
1FF800FFC0
1FF800FFC0
1FF800FFC0
1FF800FFC0
3FF800FFC0
3FF800FFC0
3FF800FFC0
3FF800FFC0
3FF000FFC0
7FF001FFC0
7FF001FFC0
7FF001FFC0
7FF001FFC0
7FF001FFC0
FFF001FFC0
FFF801FFC0
FFF803FFE0
FFF803FFE0
FFFC03FFE0
FFFE03FFC0
FFFF07FFC0
FFFFC7FFC0
7FFFFFFF80
7FFFFFFF80
7FFFFFFF80
7FFFFFFF00
7FFFFFFF00
7FFFFFFF00
3FFFFFFE00
3FFFFFFE00
1FFFFFFE00
1FFFFFFC00
0FFFFFF800
0FFFFFF000
07FFFFE000
07FFFFE000
03FFFFC000
00FFFF8000
003FFF0000
0007F00000
ENDCHAR
STARTCHAR 0169
ENCODING 361
SWIDTH 540 0
DWIDTH 36 0
BBX 35 56 1 1
BITMAP
0003C0FC00
0007F0FC00
000FF9FC00
001FFFFC00
001FFFFC00
001FFFFC00
001FFFF800
001FBFF000
001F1FE000
001F03C000
0000000000
0600000000
0FF800FF80
0FFC00FFC0
0FFC01FFC0
0FFC01FFC0
1FF800FFC0
1FF800FFC0
1FF800FFC0
1FF800FFC0
3FF800FFC0
3FF800FFC0
3FF800FFC0
3FF800FFC0
3FF000FFC0
7FF001FFC0
7FF001FFC0
7FF001FFC0
7FF001FFC0
7FF001FFC0
FFF001FFC0
FFF801FFC0
FFF803FFE0
FFF803FFE0
FFFC03FFE0
FFFE03FFC0
FFFF07FFC0
FFFFC7FFC0
7FFFFFFF80
7FFFFFFF80
7FFFFFFF80
7FFFFFFF00
7FFFFFFF00
7FFFFFFF00
3FFFFFFE00
3FFFFFFE00
1FFFFFFE00
1FFFFFFC00
0FFFFFF800
0FFFFFF000
07FFFFE000
07FFFFE000
03FFFFC000
00FFFF8000
003FFF0000
0007F00000
ENDCHAR
STARTCHAR 016A
ENCODING 362
SWIDTH 540 0
DWIDTH 36 0
BBX 35 53 1 1
BITMAP
0002F1E000
003FFFF800
003FFFF800
003FFFF800
003FFFF800
003FFFFC00
0000003000
0000000000
0600000000
0FF800FF80
0FFC00FFC0
0FFC01FFC0
0FFC01FFC0
1FF800FFC0
1FF800FFC0
1FF800FFC0
1FF800FFC0
3FF800FFC0
3FF800FFC0
3FF800FFC0
3FF800FFC0
3FF000FFC0
7FF001FFC0
7FF001FFC0
7FF001FFC0
7FF001FFC0
7FF001FFC0
FFF001FFC0
FFF801FFC0
FFF803FFE0
FFF803FFE0
FFFC03FFE0
FFFE03FFC0
FFFF07FFC0
FFFFC7FFC0
7FFFFFFF80
7FFFFFFF80
7FFFFFFF80
7FFFFFFF00
7FFFFFFF00
7FFFFFFF00
3FFFFFFE00
3FFFFFFE00
1FFFFFFE00
1FFFFFFC00
0FFFFFF800
0FFFFFF000
07FFFFE000
07FFFFE000
03FFFFC000
00FFFF8000
003FFF0000
0007F00000
ENDCHAR
STARTCHAR 016B
ENCODING 363
SWIDTH 540 0
DWIDTH 36 0
BBX 35 53 1 1
BITMAP
0002F1E000
003FFFF800
003FFFF800
003FFFF800
003FFFF800
003FFFFC00
0000003000
0000000000
0600000000
0FF800FF80
0FFC00FFC0
0FFC01FFC0
0FFC01FFC0
1FF800FFC0
1FF800FFC0
1FF800FFC0
1FF800FFC0
3FF800FFC0
3FF800FFC0
3FF800FFC0
3FF800FFC0
3FF000FFC0
7FF001FFC0
7FF001FFC0
7FF001FFC0
7FF001FFC0
7FF001FFC0
FFF001FFC0
FFF801FFC0
FFF803FFE0
FFF803FFE0
FFFC03FFE0
FFFE03FFC0
FFFF07FFC0
FFFFC7FFC0
7FFFFFFF80
7FFFFFFF80
7FFFFFFF80
7FFFFFFF00
7FFFFFFF00
7FFFFFFF00
3FFFFFFE00
3FFFFFFE00
1FFFFFFE00
1FFFFFFC00
0FFFFFF800
0FFFFFF000
07FFFFE000
07FFFFE000
03FFFFC000
00FFFF8000
003FFF0000
0007F00000
ENDCHAR
STARTCHAR 016C
ENCODING 364
SWIDTH 540 0
DWIDTH 36 0
BBX 35 56 1 1
BITMAP
001F007C00
001F807C00
001FC0FC00
001FFFFC00
000FFFF800
0007FFF800
0007FFF000
0001FFE000
0000FFC000
00003F0000
0000000000
0600000000
0FF800FF80
0FFC00FFC0
0FFC01FFC0
0FFC01FFC0
1FF800FFC0
1FF800FFC0
1FF800FFC0
1FF800FFC0
3FF800FFC0
3FF800FFC0
3FF800FFC0
3FF800FFC0
3FF000FFC0
7FF001FFC0
7FF001FFC0
7FF001FFC0
7FF001FFC0
7FF001FFC0
FFF001FFC0
FFF801FFC0
FFF803FFE0
FFF803FFE0
FFFC03FFE0
FFFE03FFC0
FFFF07FFC0
FFFFC7FFC0
7FFFFFFF80
7FFFFFFF80
7FFFFFFF80
7FFFFFFF00
7FFFFFFF00
7FFFFFFF00
3FFFFFFE00
3FFFFFFE00
1FFFFFFE00
1FFFFFFC00
0FFFFFF800
0FFFFFF000
07FFFFE000
07FFFFE000
03FFFFC000
00FFFF8000
003FFF0000
0007F00000
ENDCHAR
STARTCHAR 016D
ENCODING 365
SWIDTH 540 0
DWIDTH 36 0
BBX 35 56 1 1
BITMAP
001F007C00
001F807C00
001FC0FC00
001FFFFC00
000FFFF800
0007FFF800
0007FFF000
0001FFE000
0000FFC000
00003F0000
0000000000
0600000000
0FF800FF80
0FFC00FFC0
0FFC01FFC0
0FFC01FFC0
1FF800FFC0
1FF800FFC0
1FF800FFC0
1FF800FFC0
3FF800FFC0
3FF800FFC0
3FF800FFC0
3FF800FFC0
3FF000FFC0
7FF001FFC0
7FF001FFC0
7FF001FFC0
7FF001FFC0
7FF001FFC0
FFF001FFC0
FFF801FFC0
FFF803FFE0
FFF803FFE0
FFFC03FFE0
FFFE03FFC0
FFFF07FFC0
FFFFC7FFC0
7FFFFFFF80
7FFFFFFF80
7FFFFFFF80
7FFFFFFF00
7FFFFFFF00
7FFFFFFF00
3FFFFFFE00
3FFFFFFE00
1FFFFFFE00
1FFFFFFC00
0FFFFFF800
0FFFFFF000
07FFFFE000
07FFFFE000
03FFFFC000
00FFFF8000
003FFF0000
0007F00000
ENDCHAR
STARTCHAR 016E
ENCODING 366
SWIDTH 540 0
DWIDTH 36 0
BBX 35 60 1 1
BITMAP
00007C0000
0001FF8000
0007FFC000
000FFFE000
001FFFF000
003F83F800
003F03F800
007F01F800
003F01F800
003F01F800
003F83F800
003FC7F000
001FFFF000
000FFFE000
0003FFC000
0600FE0000
0FF800FF80
0FFC00FFC0
0FFC01FFC0
0FFC01FFC0
1FF800FFC0
1FF800FFC0
1FF800FFC0
1FF800FFC0
3FF800FFC0
3FF800FFC0
3FF800FFC0
3FF800FFC0
3FF000FFC0
7FF001FFC0
7FF001FFC0
7FF001FFC0
7FF001FFC0
7FF001FFC0
FFF001FFC0
FFF801FFC0
FFF803FFE0
FFF803FFE0
FFFC03FFE0
FFFE03FFC0
FFFF07FFC0
FFFFC7FFC0
7FFFFFFF80
7FFFFFFF80
7FFFFFFF80
7FFFFFFF00
7FFFFFFF00
7FFFFFFF00
3FFFFFFE00
3FFFFFFE00
1FFFFFFE00
1FFFFFFC00
0FFFFFF800
0FFFFFF000
07FFFFE000
07FFFFE000
03FFFFC000
00FFFF8000
003FFF0000
0007F00000
ENDCHAR
STARTCHAR 016F
ENCODING 367
SWIDTH 540 0
DWIDTH 36 0
BBX 35 60 1 1
BITMAP
00007C0000
0001FF8000
0007FFC000
000FFFE000
001FFFF000
003F83F800
003F03F800
007F01F800
003F01F800
003F01F800
003F83F800
003FC7F000
001FFFF000
000FFFE000
0003FFC000
0600FE0000
0FF800FF80
0FFC00FFC0
0FFC01FFC0
0FFC01FFC0
1FF800FFC0
1FF800FFC0
1FF800FFC0
1FF800FFC0
3FF800FFC0
3FF800FFC0
3FF800FFC0
3FF800FFC0
3FF000FFC0
7FF001FFC0
7FF001FFC0
7FF001FFC0
7FF001FFC0
7FF001FFC0
FFF001FFC0
FFF801FFC0
FFF803FFE0
FFF803FFE0
FFFC03FFE0
FFFE03FFC0
FFFF07FFC0
FFFFC7FFC0
7FFFFFFF80
7FFFFFFF80
7FFFFFFF80
7FFFFFFF00
7FFFFFFF00
7FFFFFFF00
3FFFFFFE00
3FFFFFFE00
1FFFFFFE00
1FFFFFFC00
0FFFFFF800
0FFFFFF000
07FFFFE000
07FFFFE000
03FFFFC000
00FFFF8000
003FFF0000
0007F00000
ENDCHAR
STARTCHAR 0170
ENCODING 368
SWIDTH 540 0
DWIDTH 36 0
BBX 36 57 1 1
BITMAP
0000FF1FE0
0001FF1FF0
0003FF3FE0
0003FE7FC0
0007FC7FC0
000FF8FF80
000FF1FF00
001FE1FE00
001FC1FC00
001FC3F800
0003807800
0000000000
0600000000
0FF800FF80
0FFC00FFC0
0FFC01FFC0
0FFC01FFC0
1FF800FFC0
1FF800FFC0
1FF800FFC0
1FF800FFC0
3FF800FFC0
3FF800FFC0
3FF800FFC0
3FF800FFC0
3FF000FFC0
7FF001FFC0
7FF001FFC0
7FF001FFC0
7FF001FFC0
7FF001FFC0
FFF001FFC0
FFF801FFC0
FFF803FFE0
FFF803FFE0
FFFC03FFE0
FFFE03FFC0
FFFF07FFC0
FFFFC7FFC0
7FFFFFFF80
7FFFFFFF80
7FFFFFFF80
7FFFFFFF00
7FFFFFFF00
7FFFFFFF00
3FFFFFFE00
3FFFFFFE00
1FFFFFFE00
1FFFFFFC00
0FFFFFF800
0FFFFFF000
07FFFFE000
07FFFFE000
03FFFFC000
00FFFF8000
003FFF0000
0007F00000
ENDCHAR
STARTCHAR 0171
ENCODING 369
SWIDTH 540 0
DWIDTH 36 0
BBX 36 57 1 1
BITMAP
0000FF1FE0
0001FF1FF0
0003FF3FE0
0003FE7FC0
0007FC7FC0
000FF8FF80
000FF1FF00
001FE1FE00
001FC1FC00
001FC3F800
0003807800
0000000000
0600000000
0FF800FF80
0FFC00FFC0
0FFC01FFC0
0FFC01FFC0
1FF800FFC0
1FF800FFC0
1FF800FFC0
1FF800FFC0
3FF800FFC0
3FF800FFC0
3FF800FFC0
3FF800FFC0
3FF000FFC0
7FF001FFC0
7FF001FFC0
7FF001FFC0
7FF001FFC0
7FF001FFC0
FFF001FFC0
FFF801FFC0
FFF803FFE0
FFF803FFE0
FFFC03FFE0
FFFE03FFC0
FFFF07FFC0
FFFFC7FFC0
7FFFFFFF80
7FFFFFFF80
7FFFFFFF80
7FFFFFFF00
7FFFFFFF00
7FFFFFFF00
3FFFFFFE00
3FFFFFFE00
1FFFFFFE00
1FFFFFFC00
0FFFFFF800
0FFFFFF000
07FFFFE000
07FFFFE000
03FFFFC000
00FFFF8000
003FFF0000
0007F00000
ENDCHAR
STARTCHAR 0172
ENCODING 370
SWIDTH 540 0
DWIDTH 36 0
BBX 35 57 1 -11
BITMAP
0600000000
0FF800FF80
0FFC00FFC0
0FFC01FFC0
0FFC01FFC0
1FF800FFC0
1FF800FFC0
1FF800FFC0
1FF800FFC0
3FF800FFC0
3FF800FFC0
3FF800FFC0
3FF800FFC0
3FF000FFC0
7FF001FFC0
7FF001FFC0
7FF001FFC0
7FF001FFC0
7FF001FFC0
FFF001FFC0
FFF801FFC0
FFF803FFE0
FFF803FFE0
FFFC03FFE0
FFFE03FFC0
FFFF07FFC0
FFFFC7FFC0
7FFFFFFF80
7FFFFFFF80
7FFFFFFF80
7FFFFFFF00
7FFFFFFF00
7FFFFFFF00
3FFFFFFE00
3FFFFFFE00
1FFFFFFE00
1FFFFFFC00
0FFFFFF800
0FFFFFF000
07FFFFE000
07FFFFE000
03FFFFC000
00FFFF8000
003FFF0000
0007F00000
000FC00000
000F800000
001F800000
003F000000
003F000000
003F000000
007F83E000
007FFFE000
003FFFE000
003FFFE000
001FFFE000
0003FF0000
ENDCHAR
STARTCHAR 0173
ENCODING 371
SWIDTH 540 0
DWIDTH 36 0
BBX 35 57 1 -11
BITMAP
0600000000
0FF800FF80
0FFC00FFC0
0FFC01FFC0
0FFC01FFC0
1FF800FFC0
1FF800FFC0
1FF800FFC0
1FF800FFC0
3FF800FFC0
3FF800FFC0
3FF800FFC0
3FF800FFC0
3FF000FFC0
7FF001FFC0
7FF001FFC0
7FF001FFC0
7FF001FFC0
7FF001FFC0
FFF001FFC0
FFF801FFC0
FFF803FFE0
FFF803FFE0
FFFC03FFE0
FFFE03FFC0
FFFF07FFC0
FFFFC7FFC0
7FFFFFFF80
7FFFFFFF80
7FFFFFFF80
7FFFFFFF00
7FFFFFFF00
7FFFFFFF00
3FFFFFFE00
3FFFFFFE00
1FFFFFFE00
1FFFFFFC00
0FFFFFF800
0FFFFFF000
07FFFFE000
07FFFFE000
03FFFFC000
00FFFF8000
003FFF0000
0007F00000
000FC00000
000F800000
001F800000
003F000000
003F000000
003F000000
007F83E000
007FFFE000
003FFFE000
003FFFE000
001FFFE000
0003FF0000
ENDCHAR
STARTCHAR 0174
ENCODING 372
SWIDTH 720 0
DWIDTH 48 0
BBX 46 58 1 0
BITMAP
000007800000
00001FC00000
00003FF00000
00007FF80000
0000FFFE0000
0001FFFF0000
0003FFFF8000
0007FC7F8000
0007F83F0000
0007F0080000
0003C0000000
000000000000
000000000C00
3F8000000F1C
7FF000001FFC
FFF803C01FFC
FFF803C03FFC
FFF807E03FF8
FFFC07E03FF8
FFFC07E07FF8
FFFC07F07FF0
7FFE07F07FF0
7FFE07F0FFF0
7FFF07F0FFF0
7FFF07F0FFE0
3FFF07F9FFE0
3FFF87F9FFE0
3FFF8FFDFFE0
1FFFCFFFFFE0
1FFFCFFFFFE0
0FFFEFFFFFE0
0FFFFFFFFFE0
07FFFFFFFFC0
07FFFFFFFFC0
07FFFFFFFFC0
03FFFFFFFFC0
03FFFFFFFFC0
01FFFFFFFF80
01FFFFFFFF80
00FFFFBFFF80
00FFFFBFFF80
007FFFBFFF80
007FFF1FFF00
003FFF1FFF00
003FFF1FFF00
001FFE0FFF00
001FFE0FFF00
000FFC0FFF00
000FFC0FFF00
0007FC07FF00
0007FC07FE00
0003F807FE00
0003F803FE00
0001F803FE00
0000F003FC00
0000F0018000
000070000000
000020000000
ENDCHAR
STARTCHAR 0175
ENCODING 373
SWIDTH 720 0
DWIDTH 48 0
BBX 46 58 1 0
BITMAP
000007800000
00001FC00000
00003FF00000
00007FF80000
0000FFFE0000
0001FFFF0000
0003FFFF8000
0007FC7F8000
0007F83F0000
0007F0080000
0003C0000000
000000000000
000000000C00
3F8000000F1C
7FF000001FFC
FFF803C01FFC
FFF803C03FFC
FFF807E03FF8
FFFC07E03FF8
FFFC07E07FF8
FFFC07F07FF0
7FFE07F07FF0
7FFE07F0FFF0
7FFF07F0FFF0
7FFF07F0FFE0
3FFF07F9FFE0
3FFF87F9FFE0
3FFF8FFDFFE0
1FFFCFFFFFE0
1FFFCFFFFFE0
0FFFEFFFFFE0
0FFFFFFFFFE0
07FFFFFFFFC0
07FFFFFFFFC0
07FFFFFFFFC0
03FFFFFFFFC0
03FFFFFFFFC0
01FFFFFFFF80
01FFFFFFFF80
00FFFFBFFF80
00FFFFBFFF80
007FFFBFFF80
007FFF1FFF00
003FFF1FFF00
003FFF1FFF00
001FFE0FFF00
001FFE0FFF00
000FFC0FFF00
000FFC0FFF00
0007FC07FF00
0007FC07FE00
0003F807FE00
0003F803FE00
0001F803FE00
0000F003FC00
0000F0018000
000070000000
000020000000
ENDCHAR
STARTCHAR 0176
ENCODING 374
SWIDTH 600 0
DWIDTH 40 0
BBX 39 58 1 0
BITMAP
0000780000
0001FC0000
0003FF0000
0007FF8000
000FFFE000
001FFFF000
003FFFF800
007FC7F800
007F83F000
007F008000
003C000000
0000000000
000000011E
0000000FFE
00C0001FFC
0BE0001FFC
7FF0001FF8
FFF8003FF8
FFF8003FF8
7FFC007FF0
7FFC007FF0
3FFE00FFE0
3FFE00FFE0
3FFF01FFC0
1FFF01FFC0
0FFF03FF80
0FFF83FF80
07FF87FF00
07FFC7FF00
03FFCFFE00
03FFCFFE00
01FFFFFC00
01FFFFFC00
00FFFFF800
00FFFFF800
007FFFF000
007FFFF000
003FFFE000
003FFFE000
001FFFE000
001FFFC000
000FFFC000
000FFF8000
0007FF0000
0003FF0000
0003FF8000
0003FF8000
0003FF8000
0003FF8000
0003FF8000
0003FF8000
0003FF8000
0003FF8000
0003FFC000
0003FFC000
0001FFC000
0001FF8000
0001FE0000
ENDCHAR
STARTCHAR 0177
ENCODING 375
SWIDTH 600 0
DWIDTH 40 0
BBX 39 58 1 0
BITMAP
0000780000
0001FC0000
0003FF0000
0007FF8000
000FFFE000
001FFFF000
003FFFF800
007FC7F800
007F83F000
007F008000
003C000000
0000000000
000000011E
0000000FFE
00C0001FFC
0BE0001FFC
7FF0001FF8
FFF8003FF8
FFF8003FF8
7FFC007FF0
7FFC007FF0
3FFE00FFE0
3FFE00FFE0
3FFF01FFC0
1FFF01FFC0
0FFF03FF80
0FFF83FF80
07FF87FF00
07FFC7FF00
03FFCFFE00
03FFCFFE00
01FFFFFC00
01FFFFFC00
00FFFFF800
00FFFFF800
007FFFF000
007FFFF000
003FFFE000
003FFFE000
001FFFE000
001FFFC000
000FFFC000
000FFF8000
0007FF0000
0003FF0000
0003FF8000
0003FF8000
0003FF8000
0003FF8000
0003FF8000
0003FF8000
0003FF8000
0003FF8000
0003FFC000
0003FFC000
0001FFC000
0001FF8000
0001FE0000
ENDCHAR
STARTCHAR 0178
ENCODING 376
SWIDTH 600 0
DWIDTH 40 0
BBX 39 54 1 0
BITMAP
000701E000
000F83F800
001FC3F800
001FC3F800
001FC3F800
001F83F000
000F80E000
0000000000
000000011E
0000000FFE
00C0001FFC
0BE0001FFC
7FF0001FF8
FFF8003FF8
FFF8003FF8
7FFC007FF0
7FFC007FF0
3FFE00FFE0
3FFE00FFE0
3FFF01FFC0
1FFF01FFC0
0FFF03FF80
0FFF83FF80
07FF87FF00
07FFC7FF00
03FFCFFE00
03FFCFFE00
01FFFFFC00
01FFFFFC00
00FFFFF800
00FFFFF800
007FFFF000
007FFFF000
003FFFE000
003FFFE000
001FFFE000
001FFFC000
000FFFC000
000FFF8000
0007FF0000
0003FF0000
0003FF8000
0003FF8000
0003FF8000
0003FF8000
0003FF8000
0003FF8000
0003FF8000
0003FF8000
0003FFC000
0003FFC000
0001FFC000
0001FF8000
0001FE0000
ENDCHAR
STARTCHAR 0179
ENCODING 377
SWIDTH 600 0
DWIDTH 40 0
BBX 38 58 1 0
BITMAP
00001FE000
00003FE000
00007FE000
00007FC000
0000FF8000
0001FF0000
0001FE0000
0003FC0000
0003F80000
0003F80000
0000700000
0000000000
0003FF8000
003FFFFF00
03FFFFFF00
0FFFFFFE00
1FFFFFFE00
3FFFFFFC00
7FFFFFF800
7FFFFFF800
7FFFFFF000
FFFFFFE000
FFFFFFE000
FFFFFFC000
FF00FFC000
0001FF8000
0001FF8000
0001FF8000
0003FF0000
0003FF0000
0003FF0000
0007FE0000
0007FE0000
0007FE0000
000FFC0000
000FFC0000
001FFC0000
001FFC0000
001FF80000
003FF80000
003FF80000
003FF80000
007FF80000
007FF00000
007FE00000
00FFC03F78
00FFDFFFFC
00FFFFFFFC
01FFFFFFFC
01FFFFFFFC
01FFFFFFFC
03FFFFFFF8
03FFFFFFF0
03FFFFFFE0
0007FFFFC0
0001FFFF80
00003FFE00
000000C000
ENDCHAR
STARTCHAR 017A
ENCODING 378
SWIDTH 600 0
DWIDTH 40 0
BBX 38 58 1 0
BITMAP
00001FE000
00003FE000
00007FE000
00007FC000
0000FF8000
0001FF0000
0001FE0000
0003FC0000
0003F80000
0003F80000
0000700000
0000000000
0003FF8000
003FFFFF00
03FFFFFF00
0FFFFFFE00
1FFFFFFE00
3FFFFFFC00
7FFFFFF800
7FFFFFF800
7FFFFFF000
FFFFFFE000
FFFFFFE000
FFFFFFC000
FF00FFC000
0001FF8000
0001FF8000
0001FF8000
0003FF0000
0003FF0000
0003FF0000
0007FE0000
0007FE0000
0007FE0000
000FFC0000
000FFC0000
001FFC0000
001FFC0000
001FF80000
003FF80000
003FF80000
003FF80000
007FF80000
007FF00000
007FE00000
00FFC03F78
00FFDFFFFC
00FFFFFFFC
01FFFFFFFC
01FFFFFFFC
01FFFFFFFC
03FFFFFFF8
03FFFFFFF0
03FFFFFFE0
0007FFFFC0
0001FFFF80
00003FFE00
000000C000
ENDCHAR
STARTCHAR 017B
ENCODING 379
SWIDTH 600 0
DWIDTH 40 0
BBX 38 54 1 0
BITMAP
0003C00000
0007E00000
0007F00000
0007F00000
0007F00000
0007E00000
0003C00000
0000000000
0003FF8000
003FFFFF00
03FFFFFF00
0FFFFFFE00
1FFFFFFE00
3FFFFFFC00
7FFFFFF800
7FFFFFF800
7FFFFFF000
FFFFFFE000
FFFFFFE000
FFFFFFC000
FF00FFC000
0001FF8000
0001FF8000
0001FF8000
0003FF0000
0003FF0000
0003FF0000
0007FE0000
0007FE0000
0007FE0000
000FFC0000
000FFC0000
001FFC0000
001FFC0000
001FF80000
003FF80000
003FF80000
003FF80000
007FF80000
007FF00000
007FE00000
00FFC03F78
00FFDFFFFC
00FFFFFFFC
01FFFFFFFC
01FFFFFFFC
01FFFFFFFC
03FFFFFFF8
03FFFFFFF0
03FFFFFFE0
0007FFFFC0
0001FFFF80
00003FFE00
000000C000
ENDCHAR
STARTCHAR 017C
ENCODING 380
SWIDTH 600 0
DWIDTH 40 0
BBX 38 54 1 0
BITMAP
0003C00000
0007E00000
0007F00000
0007F00000
0007F00000
0007E00000
0003C00000
0000000000
0003FF8000
003FFFFF00
03FFFFFF00
0FFFFFFE00
1FFFFFFE00
3FFFFFFC00
7FFFFFF800
7FFFFFF800
7FFFFFF000
FFFFFFE000
FFFFFFE000
FFFFFFC000
FF00FFC000
0001FF8000
0001FF8000
0001FF8000
0003FF0000
0003FF0000
0003FF0000
0007FE0000
0007FE0000
0007FE0000
000FFC0000
000FFC0000
001FFC0000
001FFC0000
001FF80000
003FF80000
003FF80000
003FF80000
007FF80000
007FF00000
007FE00000
00FFC03F78
00FFDFFFFC
00FFFFFFFC
01FFFFFFFC
01FFFFFFFC
01FFFFFFFC
03FFFFFFF8
03FFFFFFF0
03FFFFFFE0
0007FFFFC0
0001FFFF80
00003FFE00
000000C000
ENDCHAR
STARTCHAR 017D
ENCODING 381
SWIDTH 600 0
DWIDTH 40 0
BBX 38 58 1 0
BITMAP
0010000000
01F80FC000
01FC1FE000
01FF7FE000
00FFFFC000
007FFF8000
003FFF0000
001FFE0000
000FFC0000
0003F00000
0001C00000
0000000000
0003FF8000
003FFFFF00
03FFFFFF00
0FFFFFFE00
1FFFFFFE00
3FFFFFFC00
7FFFFFF800
7FFFFFF800
7FFFFFF000
FFFFFFE000
FFFFFFE000
FFFFFFC000
FF00FFC000
0001FF8000
0001FF8000
0001FF8000
0003FF0000
0003FF0000
0003FF0000
0007FE0000
0007FE0000
0007FE0000
000FFC0000
000FFC0000
001FFC0000
001FFC0000
001FF80000
003FF80000
003FF80000
003FF80000
007FF80000
007FF00000
007FE00000
00FFC03F78
00FFDFFFFC
00FFFFFFFC
01FFFFFFFC
01FFFFFFFC
01FFFFFFFC
03FFFFFFF8
03FFFFFFF0
03FFFFFFE0
0007FFFFC0
0001FFFF80
00003FFE00
000000C000
ENDCHAR
STARTCHAR 017E
ENCODING 382
SWIDTH 600 0
DWIDTH 40 0
BBX 38 58 1 0
BITMAP
0010000000
01F80FC000
01FC1FE000
01FF7FE000
00FFFFC000
007FFF8000
003FFF0000
001FFE0000
000FFC0000
0003F00000
0001C00000
0000000000
0003FF8000
003FFFFF00
03FFFFFF00
0FFFFFFE00
1FFFFFFE00
3FFFFFFC00
7FFFFFF800
7FFFFFF800
7FFFFFF000
FFFFFFE000
FFFFFFE000
FFFFFFC000
FF00FFC000
0001FF8000
0001FF8000
0001FF8000
0003FF0000
0003FF0000
0003FF0000
0007FE0000
0007FE0000
0007FE0000
000FFC0000
000FFC0000
001FFC0000
001FFC0000
001FF80000
003FF80000
003FF80000
003FF80000
007FF80000
007FF00000
007FE00000
00FFC03F78
00FFDFFFFC
00FFFFFFFC
01FFFFFFFC
01FFFFFFFC
01FFFFFFFC
03FFFFFFF8
03FFFFFFF0
03FFFFFFE0
0007FFFFC0
0001FFFF80
00003FFE00
000000C000
ENDCHAR
STARTCHAR 017F
ENCODING 383
SWIDTH 435 0
DWIDTH 29 0
BBX 27 56 1 -10
BITMAP
007FF800
01FFFF00
03FFFF80
07FFFFC0
0FFFFFE0
1FFFFFE0
3FFFFFE0
7FFFFFE0
7FFFFFE0
7FF83FE0
FFF01FC0
FFF00000
FFF00000
FFF00000
FFF00000
FFE00000
FFE00000
FFE00000
7FE00000
7FE00000
7FE00000
7FF00000
7FF00000
7FF00000
7FF00000
7FF00000
7FF00000
7FF00000
3FF00000
3FF00000
3FF00000
3FF00000
3FF00000
3FF00000
3FF00000
3FF00000
3FF00000
3FF00000
3FF00000
3FF00000
3FF00000
3FF00000
3FF00000
3FF00000
3FF00000
3FF80000
3FF80000
3FF80000
3FF80000
1FF80000
1FF80000
1FF80000
1FF80000
1FF80000
0FF80000
04000000
ENDCHAR
STARTCHAR 0180
ENCODING 384
SWIDTH 510 0
DWIDTH 34 0
BBX 33 46 1 0
BITMAP
03F4000000
1FFFE00000
7FFFFC0000
FFFFFE0000
FFFFFF0000
FFFFFF8000
FFFFFF8000
FFFFFFC000
FFFFFFC000
7FFFFFE000
7FFBFFE000
7FF07FE000
7FF03FE000
3FF01FE000
3FF01FE000
3FF81FE000
3FF83FC000
3FF83FC000
3FFC7FC000
3FFFFF8000
1FFFFF0000
1FFFFE0000
1FFFFF8000
1FFFFFF000
1FFFFFF800
1FFFFFF800
1FFFFFFC00
1FFFBFFE00
1FFF07FF00
1FFFE3FF00
7FFFE3FF00
FFFFE3FF80
FFFFF3FF80
FFFFF3FF80
FFFFF7FF00
FFFF8FFF00
FFFFFFFF00
4FFFFFFF00
0FFFFFFE00
07FFFFFC00
07FFFFF800
07FFFFF000
07FFFFE000
07FFFF0000
03FFE00000
0020000000
ENDCHAR
STARTCHAR 0181
ENCODING 385
SWIDTH 675 0
DWIDTH 45 0
BBX 43 46 1 0
BITMAP
0000FE000000
007FFFFC0000
03FFFFFF0000
07FFFFFFC000
0FFFFFFFE000
1FFFFFFFE000
3FFFFFFFE000
3FFFFFFFF000
3FFFFFFFF800
7FFFFFFFF800
7FFFFFFFF800
FFFFFE1FFC00
FFEFFE07FC00
FF8FFE07F800
FF0FFE07F800
FF0FFE07F800
FF07FE07F800
FF07FF0FF000
7F07FF0FF000
7F07FFFFF000
7F87FFFFC000
3FE7FFFF8000
3FE7FFFFE000
3FE7FFFFFC00
3FE7FFFFFE00
1FF7FFFFFF00
0FF3FFFFFF80
0FF3FFEFFF80
07E3FFC0FFC0
0003FFC0FFC0
0003FFC0FFE0
0003FFC0FFE0
0003FFC1FFE0
0003FFE1FFE0
0003FFE3FFE0
0001FFE7FFE0
0001FFEFFFC0
0001FFFFFFC0
0001FFFFFF80
0001FFFFFF00
0001FFFFFE00
0001FFFFFC00
0001FFFFF800
0000FFFFE000
0000FFF80000
000008000000
ENDCHAR
STARTCHAR 0186
ENCODING 390
SWIDTH 480 0
DWIDTH 32 0
BBX 31 44 1 1
BITMAP
01FF8000
07FFE000
1FFFFC00
3FFFFF00
7FFFFF80
FFFFFFC0
FFFFFFE0
FFFFFFF0
FFFFFFF0
FFFFFFF8
7FFFFFF8
7FFFFFFC
087FFFFC
0007FFFC
0001FFFC
0000FFFE
00007FFE
00007FFE
00007FFE
00007FFE
00003FFE
00003FFE
00007FFE
00007FFE
2001FFFE
7F83FFFE
7FFFFFFE
7FFFFFFC
7FFFFFFC
7FFFFFFC
7FFFFFFC
7FFFFFF8
7FFFFFF8
7FFFFFF8
7FFFFFF0
7FFFFFF0
7FFFFFE0
7FFFFFE0
3FFFFFC0
0FFFFFC0
0FFFFF80
07FFFF80
01FFF800
007F8000
ENDCHAR
STARTCHAR 0187
ENCODING 391
SWIDTH 480 0
DWIDTH 32 0
BBX 31 56 1 1
BITMAP
000007FC
00001FFE
00003FFE
00007FFE
0000FFFE
0001FFFE
0001FFFE
0003FFFE
0003FFF0
0003FFC0
0003FFC0
0003FFC0
0007FFC0
000FFFC0
007FFFF0
01FFFFF8
03FFFFFC
07FFFFFE
0FFFFFFE
1FFFFFFE
3FFFFFFE
3FFFFFFC
3FFFFFFC
7FFFFFFC
7FFFFC68
7FFFC000
FFFF0000
FFFE0000
FFFC0000
FFFC0000
FFFC0000
FFF80000
FFF80000
FFF80000
FFFC0000
FFFC0000
FFFE0008
FFFF83FC
FFFFFFFC
FFFFFFFC
7FFFFFFC
7FFFFFFC
7FFFFFFC
7FFFFFFC
3FFFFFFC
3FFFFFFC
1FFFFFFC
1FFFFFFC
1FFFFFFC
0FFFFFFC
0FFFFFF0
07FFFFE0
03FFFFE0
03FFFFC0
003FFF00
0003FC00
ENDCHAR
STARTCHAR 0188
ENCODING 392
SWIDTH 480 0
DWIDTH 32 0
BBX 31 56 1 1
BITMAP
000007FC
00001FFE
00003FFE
00007FFE
0000FFFE
0001FFFE
0001FFFE
0003FFFE
0003FFF0
0003FFC0
0003FFC0
0003FFC0
0007FFC0
000FFFC0
007FFFF0
01FFFFF8
03FFFFFC
07FFFFFE
0FFFFFFE
1FFFFFFE
3FFFFFFE
3FFFFFFC
3FFFFFFC
7FFFFFFC
7FFFFC68
7FFFC000
FFFF0000
FFFE0000
FFFC0000
FFFC0000
FFFC0000
FFF80000
FFF80000
FFF80000
FFFC0000
FFFC0000
FFFE0008
FFFF83FC
FFFFFFFC
FFFFFFFC
7FFFFFFC
7FFFFFFC
7FFFFFFC
7FFFFFFC
3FFFFFFC
3FFFFFFC
1FFFFFFC
1FFFFFFC
1FFFFFFC
0FFFFFFC
0FFFFFF0
07FFFFE0
03FFFFE0
03FFFFC0
003FFF00
0003FC00
ENDCHAR
STARTCHAR 0189
ENCODING 393
SWIDTH 480 0
DWIDTH 32 0
BBX 32 46 0 0
BITMAP
00E00000
07FF8000
1FFFF000
1FFFFC00
1FFFFF00
1FFFFF80
1FFFFFC0
1FFFFFC0
1FFFFFE0
1FFFFFF0
1FFFFFF8
1FFFFFF8
1FFFFFFC
1FFF0FFC
1FFF03FE
0FFFF1FE
0FFFF1FE
1FFFF1FF
FFFFF1FF
FFFFF1FF
FFFFF1FF
FFFFF3FF
FFFFFBFF
FFFFF7FE
7FFF07FE
7FFF0FFC
37FF1FFC
07FFBFF8
07FFFFF8
03FFFFF0
03FFFFF0
03FFFFE0
03FFFFE0
03FFFFC0
01FFFFC0
01FFFF80
01FFFF00
01FFFF00
00FFFE00
00FFFC00
00FFF800
00FFE000
007F8000
007E0000
00780000
00600000
ENDCHAR
STARTCHAR 018A
ENCODING 394
SWIDTH 630 0
DWIDTH 42 0
BBX 40 46 1 0
BITMAP
0000E00000
003FFF8000
03FFFFF000
07FFFFFE00
0FFFFFFF00
1FFFFFFF80
3FFFFFFFC0
3FFFFFFFE0
3FFFFFFFF0
7FFFFFFFF8
7FFFFFFFF8
FFFFFFFFFC
FFEFFFFFFC
FF8FFF8FFE
FF0FFF03FE
FF0FFF01FF
FF0FFF00FF
FF0FFF00FF
7F0FFF00FF
7F07FF01FF
7F87FF01FF
3FE7FF01FF
3FE7FF81FF
3FE7FF83FF
3FE7FF87FE
1FF7FF87FE
0FF3FF8FFC
0FF3FF9FFC
07E3FFFFF8
0003FFFFF8
0003FFFFF8
0003FFFFF0
0001FFFFE0
0001FFFFE0
0001FFFFC0
0001FFFFC0
0000FFFF80
0000FFFF00
0000FFFE00
0000FFFC00
00007FF800
00007FE000
00007FC000
00007F0000
0000380000
0000200000
ENDCHAR
STARTCHAR 018F
ENCODING 399
SWIDTH 480 0
DWIDTH 32 0
BBX 31 45 1 1
BITMAP
0038E000
03FFF000
0FFFF800
1FFFFE00
3FFFFE00
7FFFFF00
7FFFFF80
FFFFFFC0
FFFFFFC0
7FFFFFE0
3FCFFFE0
0900FFE0
00003FF0
00001FF0
00000FF0
00000FF0
00000FF8
00000FF8
7FFFFFF8
7FFFFFF8
FFFFFFF8
FFFFFFFC
7FFFFFFC
7FFFFFFC
7FFFFFFC
7FFFFFFC
7FF01FFC
7FF01FFC
7FF01FFC
7FF01FFC
7FF03FFC
7FFCFFFE
7FFFFFFE
7FFFFFFC
7FFFFFFC
7FFFFFFC
7FFFFFFC
3FFFFFFC
1FFFFFF8
0FFFFFF8
07FFFFF0
03FFFFE0
01FFFFC0
007FFF80
000FFE00
ENDCHAR
STARTCHAR 0190
ENCODING 400
SWIDTH 480 0
DWIDTH 32 0
BBX 31 47 1 0
BITMAP
00070000
007FF000
01FFFE00
07FFFF80
0FFFFFC0
1FFFFFE0
1FFFFFE0
3FFFFFF0
7FFFFFF0
7FFFC7F0
7FFE0000
FFFC0000
FFF80000
FFF80000
FFF00000
FFF00000
7FF00000
7FF80000
7FF80000
3FFC0000
3FFFFF00
1FFFFF00
0FFFFF00
0FFFFF00
03FFFF00
07FFFF80
0FFFFE00
0FFFF000
0FFE0000
1FFE0000
1FFC0000
1FFC0000
1FFC0000
3FFC0000
3FFC0004
3FFE007E
3FFF01FE
1FFFFFFE
1FFFFFFE
1FFFFFFE
0FFFFFFC
07FFFFFC
03FFFFF8
01FFFFF8
00FFFFF0
007FFFC0
0003FE00
ENDCHAR
STARTCHAR 0191
ENCODING 401
SWIDTH 495 0
DWIDTH 33 0
BBX 37 56 -4 -9
BITMAP
000001FF00
0003FFFFE0
00FFFFFFE0
03FFFFFFF0
07FFFFFFF0
07FFFFFFF0
07FFFFFFF0
07FFFFFFF0
07FFFFFFF0
07FFFFFFF8
07FFFFF0B0
07FFF00000
07FFC00000
07FFC00000
07FFC00000
07FF800000
07FF800000
07FF820000
07FFDF8000
07FFFF8000
07FFFF8000
07FFFF8000
07FFFF0000
07FFFF8000
07FFFF8000
07FFFF8000
07FFFF8000
07FFC10000
07FF800000
07FF800000
07FF800000
07FF800000
07FF800000
07FF800000
07FF800000
07FF800000
07FF800000
07FF800000
07FF800000
07FF800000
07FF800000
07FF800000
07FF800000
07FF800000
07FF800000
07FF800000
1FFF800000
FFFF000000
FFFF000000
FFFF000000
FFFE000000
FFFE000000
FFF8000000
FFF0000000
FFC0000000
7C00000000
ENDCHAR
STARTCHAR 0192
ENCODING 402
SWIDTH 495 0
DWIDTH 33 0
BBX 37 56 -4 -9
BITMAP
000001FF00
0003FFFFE0
00FFFFFFE0
03FFFFFFF0
07FFFFFFF0
07FFFFFFF0
07FFFFFFF0
07FFFFFFF0
07FFFFFFF0
07FFFFFFF8
07FFFFF0B0
07FFF00000
07FFC00000
07FFC00000
07FFC00000
07FF800000
07FF800000
07FF820000
07FFDF8000
07FFFF8000
07FFFF8000
07FFFF8000
07FFFF0000
07FFFF8000
07FFFF8000
07FFFF8000
07FFFF8000
07FFC10000
07FF800000
07FF800000
07FF800000
07FF800000
07FF800000
07FF800000
07FF800000
07FF800000
07FF800000
07FF800000
07FF800000
07FF800000
07FF800000
07FF800000
07FF800000
07FF800000
07FF800000
07FF800000
1FFF800000
FFFF000000
FFFF000000
FFFF000000
FFFE000000
FFFE000000
FFF8000000
FFF0000000
FFC0000000
7C00000000
ENDCHAR
STARTCHAR 0193
ENCODING 403
SWIDTH 495 0
DWIDTH 33 0
BBX 32 56 1 1
BITMAP
000003FE
00000FFF
00001FFF
00003FFF
00007FFF
0000FFFF
0000FFFF
0001FFFF
0001FFF8
0001FFF0
0001FFE0
0007FFE0
000FFFE0
001FFFE0
003FFFF0
007FFFF8
00FFFFFC
01FFFFFC
01FFFFFC
03FFFFFC
03FFFFFC
07FFEFF8
07FF0140
0FFC0000
0FF80000
0FF00000
1FF00000
1FF00000
1FE00000
3FE00000
3FE0007E
3FE00FFF
3FC07FFE
3FC0FFFE
7FC07FFE
7FC07FFE
7FC07FFE
7FE03FFE
7FE03FFE
FFE03FFE
FFE03FFE
FFF03FFE
FFFCFFFE
FFFFFFFE
FFFFFFFE
FFFFFFFE
FFFFFFFE
FFFFFFFE
7FFFFFF8
7FFFFFF0
3FFFFFC0
1FFFFF80
0FFFFE00
07FFF800
03FFE000
01FE0000
ENDCHAR
STARTCHAR 0194
ENCODING 404
SWIDTH 600 0
DWIDTH 40 0
BBX 39 53 1 -8
BITMAP
FFE0000000
FFE0000E00
FFE0000FA0
7FE0001FFC
7FF0003FFE
3FF0003FFE
3FF0003FFC
3FF0007FFC
3FF0007FF8
1FF800FFF8
1FF800FFF0
1FFC00FFF0
0FFC01FFE0
0FFC01FFE0
0FFE01FFC0
07FE03FFC0
07FF03FF80
03FF07FF80
03FF07FF80
01FF87FF00
01FF8FFF00
00FFCFFE00
00FFCFFE00
007FFFFE00
007FFFFC00
003FFFFC00
001FFFF800
001FFFF800
000FFFF000
000FFFE000
0007FFE000
0007FFC000
000FFFC000
001FFFE000
001FFFE000
003FFFF000
003FFFF000
007FDFF000
007F8FF000
007F07F000
00FF07F000
00FE07F000
007E07F000
007F07F000
007F07F000
007F8FF000
007FFFE000
007FFFE000
003FFFC000
001FFF8000
000FFF0000
0007FE0000
0001F80000
ENDCHAR
STARTCHAR 0197
ENCODING 407
SWIDTH 360 0
DWIDTH 24 0
BBX 22 45 1 0
BITMAP
00FFC0
03FFF8
03FFF8
03FFF8
01FFF0
03FFF0
03FFF0
03FFF0
03FFF0
03FFF0
03FFE0
07FFE0
07FFE0
07FFE0
07FFE0
07FFE0
07FFE0
07FFE0
07FFFC
FFFFFC
FFFFFC
FFFFFC
FFFFFC
FFFFFC
FFFFFC
FFFFFC
FFFFFC
0FFFE0
0FFFE0
0FFFE0
0FFFE0
0FFFE0
0FFFE0
0FFFE0
0FFFE0
0FFFE0
0FFFE0
0FFFC0
1FFFC0
1FFFC0
1FFFC0
1FFFC0
3FFF80
3FF800
7F0000
ENDCHAR
STARTCHAR 0198
ENCODING 408
SWIDTH 600 0
DWIDTH 40 0
BBX 39 46 1 0
BITMAP
0000003F00
FFFFC07F80
FFFFC0FFE0
7FFFC1FFE0
7FFFC1FFF0
7FFFC3FFF8
7FFFC7FFF8
7FFFC7FFF8
7FFFCFFFFC
7FFFCFFFFC
7FFFDFF7FE
7FFFDFF3FE
7FFFDFE1FE
7FFFFFE1FC
7FFFFFC1FC
7FFFFFC1FC
7FFFFF83FC
7FFFFF87F8
7FFFFF0FF8
7FFFFF1FF8
7FFFFE1FF0
FFFFFE1FF0
FFFFFC1FE0
FFFFFC1FE0
FFFFFC1F80
FFFFFE0000
FFFFFF0000
FFFFFF8000
FFFFFFC000
FFFFFFE000
FFFFFFF000
FFFFFFF800
FFFFFFF800
FFFFFFFC00
FFFFDFFE00
FFFF8FFF00
FFFF8FFF00
FFFF87FF80
FFFF83FF80
FFFF83FFC0
FFFF81FFC0
FFFFC0FFE0
FFFFC0FFE0
FFFFC07C20
FFFF807800
001C007000
ENDCHAR
STARTCHAR 0199
ENCODING 409
SWIDTH 600 0
DWIDTH 40 0
BBX 39 46 1 0
BITMAP
0000003F00
FFFFC07F80
FFFFC0FFE0
7FFFC1FFE0
7FFFC1FFF0
7FFFC3FFF8
7FFFC7FFF8
7FFFC7FFF8
7FFFCFFFFC
7FFFCFFFFC
7FFFDFF7FE
7FFFDFF3FE
7FFFDFE1FE
7FFFFFE1FC
7FFFFFC1FC
7FFFFFC1FC
7FFFFF83FC
7FFFFF87F8
7FFFFF0FF8
7FFFFF1FF8
7FFFFE1FF0
FFFFFE1FF0
FFFFFC1FE0
FFFFFC1FE0
FFFFFC1F80
FFFFFE0000
FFFFFF0000
FFFFFF8000
FFFFFFC000
FFFFFFE000
FFFFFFF000
FFFFFFF800
FFFFFFF800
FFFFFFFC00
FFFFDFFE00
FFFF8FFF00
FFFF8FFF00
FFFF87FF80
FFFF83FF80
FFFF83FFC0
FFFF81FFC0
FFFFC0FFE0
FFFFC0FFE0
FFFFC07C20
FFFF807800
001C007000
ENDCHAR
STARTCHAR 019D
ENCODING 413
SWIDTH 555 0
DWIDTH 37 0
BBX 41 54 -4 -9
BITMAP
000000002000
001FF001FE00
007FFE0FFF00
007FFE0FFF80
007FFE0FFF80
007FFE0FFF80
007FFC0FFF00
007FFE0FFF00
00FFFE0FFF00
00FFFE0FFF00
00FFFE0FFF00
00FFFE0FFF00
00FFFF1FFF00
00FFFF1FFF00
00FFFF1FFF00
01FFFF1FFE00
01FFFF9FFE00
01FFFF9FFE00
01FFFF9FFE00
01FFFFDFFE00
01FFFFDFFE00
01FFFFDFFE00
01FFFFDFFE00
01FFFFFFFE00
01FFFFFFFE00
01FFFFFFFC00
03FFFFFFFC00
03FFEFFFFC00
03FFE7FFFC00
03FFE7FFFC00
03FFE3FFFC00
03FFE3FFFC00
03FFE3FFFC00
03FFE1FFFC00
03FFE1FFFC00
03FFE1FFFC00
03FFE0FFFC00
03FFC0FFFC00
03FFC0FFFC00
07FFC0FFFC00
07FFC0FFFC00
07FF80FFFC00
07FF80FFF800
07FF803FE000
1FFF80000000
FFFF80000000
FFFF00000000
FFFF00000000
FFFE00000000
FFFE00000000
FFF800000000
FFF000000000
FFC000000000
7C0000000000
ENDCHAR
STARTCHAR 01A0
ENCODING 416
SWIDTH 540 0
DWIDTH 36 0
BBX 35 48 1 0
BITMAP
0000000180
0018001FC0
003F001FE0
007FC00FE0
00FFF00FE0
01FFF807E0
01FFFE07E0
03FFFF87E0
03FFFFC7E0
07FFFFE3E0
07FFFFE3E0
0FFFFFF3E0
0FFFFFFFE0
1FFFFFFFE0
1FFFFFFFC0
1FFFFFFFC0
3FFFFFFFC0
3FFFFFFF80
7FFFFFFF00
7FFC1FFF00
7FFC0FFF80
7FF807FF80
FFF807FF80
FFF807FF80
FFF007FF80
FFF007FFC0
FFF007FFC0
FFF807FFC0
FFFC0FFFC0
FFFC0FFFC0
7FFF1FFFC0
7FFFFFFF80
7FFFFFFF80
7FFFFFFF80
3FFFFFFF80
3FFFFFFF80
3FFFFFFF00
1FFFFFFF00
1FFFFFFF00
1FFFFFFF00
0FFFFFFE00
0FFFFFFE00
07FFFFFC00
03FFFFFC00
01FFFFF800
007FFFE000
001FFFC000
0007FF0000
ENDCHAR
STARTCHAR 01A1
ENCODING 417
SWIDTH 540 0
DWIDTH 36 0
BBX 35 48 1 0
BITMAP
0000000180
0018001FC0
003F001FE0
007FC00FE0
00FFF00FE0
01FFF807E0
01FFFE07E0
03FFFF87E0
03FFFFC7E0
07FFFFE3E0
07FFFFE3E0
0FFFFFF3E0
0FFFFFFFE0
1FFFFFFFE0
1FFFFFFFC0
1FFFFFFFC0
3FFFFFFFC0
3FFFFFFF80
7FFFFFFF00
7FFC1FFF00
7FFC0FFF80
7FF807FF80
FFF807FF80
FFF807FF80
FFF007FF80
FFF007FFC0
FFF007FFC0
FFF807FFC0
FFFC0FFFC0
FFFC0FFFC0
7FFF1FFFC0
7FFFFFFF80
7FFFFFFF80
7FFFFFFF80
3FFFFFFF80
3FFFFFFF80
3FFFFFFF00
1FFFFFFF00
1FFFFFFF00
1FFFFFFF00
0FFFFFFE00
0FFFFFFE00
07FFFFFC00
03FFFFFC00
01FFFFF800
007FFFE000
001FFFC000
0007FF0000
ENDCHAR
STARTCHAR 01AF
ENCODING 431
SWIDTH 600 0
DWIDTH 40 0
BBX 38 47 1 1
BITMAP
0000000078
00000001FC
00000001FC
000001F1FC
7FC01FF0FC
FFC01FF0FC
FFE01FF07C
FFC01FF87C
FFC00FF87C
FFC00FF87C
7FC00FF87C
7FC00FFC7C
7FC00FFFFC
7FC00FFFFC
7FC00FFFFC
FFC00FFFFC
7FC00FFFFC
7FC007FFF8
7FE007FFE0
7FE007FFC0
7FE007FF00
7FE007FE00
FFE00FFF00
FFE00FFF00
FFE00FFF00
FFF00FFF00
FFF01FFF00
FFF03FFF00
7FF07FFF00
7FFFFFFE00
7FFFFFFE00
3FFFFFFE00
3FFFFFFE00
3FFFFFFE00
1FFFFFFE00
1FFFFFFE00
1FFFFFFC00
0FFFFFFC00
0FFFFFF800
07FFFFF800
03FFFFF000
03FFFFF000
01FFFFF000
00FFFFE000
007FFFC000
007FFF0000
003FFC0000
ENDCHAR
STARTCHAR 01B0
ENCODING 432
SWIDTH 600 0
DWIDTH 40 0
BBX 38 47 1 1
BITMAP
0000000078
00000001FC
00000001FC
000001F1FC
7FC01FF0FC
FFC01FF0FC
FFE01FF07C
FFC01FF87C
FFC00FF87C
FFC00FF87C
7FC00FF87C
7FC00FFC7C
7FC00FFFFC
7FC00FFFFC
7FC00FFFFC
FFC00FFFFC
7FC00FFFFC
7FC007FFF8
7FE007FFE0
7FE007FFC0
7FE007FF00
7FE007FE00
FFE00FFF00
FFE00FFF00
FFE00FFF00
FFF00FFF00
FFF01FFF00
FFF03FFF00
7FF07FFF00
7FFFFFFE00
7FFFFFFE00
3FFFFFFE00
3FFFFFFE00
3FFFFFFE00
1FFFFFFE00
1FFFFFFE00
1FFFFFFC00
0FFFFFFC00
0FFFFFF800
07FFFFF800
03FFFFF000
03FFFFF000
01FFFFF000
00FFFFE000
007FFFC000
007FFF0000
003FFC0000
ENDCHAR
STARTCHAR 01B1
ENCODING 433
SWIDTH 615 0
DWIDTH 41 0
BBX 39 47 1 0
BITMAP
0000000860
FFFF81FFFE
FFFF81FFFE
FFFF81FFFE
FFFF81FFFE
FFFF81FFFE
FFFF81FFFE
FFFF81FFFE
FFFF81FFFE
FFFF81FFFE
7FFF01FFFC
03FF00FFC0
07FE007FE0
0FFE003FE0
0FFC003FF0
0FF8001FF0
1FF8001FF8
1FF8000FF8
3FF0000FF8
3FF00007FC
3FE00007FC
7FE00007FC
7FE0000FFC
7FE0000FFE
7FE0000FFC
7FE0000FFC
7FE0000FFC
7FF0001FFC
7FF0001FFC
7FF0001FFC
7FF8003FFC
7FFC007FFC
7FFE00FFF8
7FFF83FFF8
3FFFFFFFF8
3FFFFFFFF0
3FFFFFFFF0
3FFFFFFFE0
1FFFFFFFE0
1FFFFFFFC0
0FFFFFFF80
0FFFFFFF00
07FFFFFF00
03FFFFFC00
01FFFFF800
00FFFFE000
001FFF0000
ENDCHAR
STARTCHAR 01B2
ENCODING 434
SWIDTH 555 0
DWIDTH 37 0
BBX 36 46 1 1
BITMAP
0000040000
00003F0000
7F01FFC000
FF83FFE000
FF81FFE000
FF81FFF800
FFC0FFF800
FFC07FFC00
FFC03FFE00
FFC01FFF00
FFC00FFF00
FFE007FF80
FFE007FF80
FFE003FFC0
FFE003FFC0
FFE001FFC0
FFF001FFE0
FFF001FFE0
FFF001FFE0
FFF001FFE0
7FF801FFE0
7FF801FFE0
7FF801FFE0
7FF801FFF0
7FFC01FFF0
7FFC03FFE0
3FFE03FFE0
3FFE07FFE0
3FFF0FFFE0
1FFFFFFFE0
1FFFFFFFE0
1FFFFFFFE0
0FFFFFFFE0
0FFFFFFFC0
0FFFFFFFC0
07FFFFFFC0
07FFFFFF80
03FFFFFF80
01FFFFFF00
01FFFFFE00
00FFFFFE00
007FFFFC00
003FFFF800
001FFFF000
000FFFC000
0000FC0000
ENDCHAR
STARTCHAR 01B3
ENCODING 435
SWIDTH 675 0
DWIDTH 45 0
BBX 43 46 1 0
BITMAP
000000010000
00000007F800
00C0001FFC00
0BE0003FFE00
7FF0003FFF00
FFF8007FFF80
FFF8007FFF80
7FFC007FFF80
7FFC00FFFFC0
3FFE00FFFFC0
3FFE01FFFFE0
3FFF01FFFFE0
1FFF03FFFFE0
0FFF03FF9FE0
0FFF87FF9FE0
07FF87FF0FE0
07FFCFFF1FE0
03FFCFFE1FE0
03FFCFFE1FC0
01FFFFFC3FC0
01FFFFFC7FC0
00FFFFF8FFC0
00FFFFF8FF80
007FFFF0FF80
007FFFF0FF00
003FFFE0FF00
003FFFE0FE00
001FFFE0FE00
001FFFC01800
000FFFC00000
000FFF800000
0007FF000000
0003FF000000
0003FF800000
0003FF800000
0003FF800000
0003FF800000
0003FF800000
0003FF800000
0003FF800000
0003FF800000
0003FFC00000
0003FFC00000
0001FFC00000
0001FF800000
0001FE000000
ENDCHAR
STARTCHAR 01B4
ENCODING 436
SWIDTH 675 0
DWIDTH 45 0
BBX 43 46 1 0
BITMAP
000000010000
00000007F800
00C0001FFC00
0BE0003FFE00
7FF0003FFF00
FFF8007FFF80
FFF8007FFF80
7FFC007FFF80
7FFC00FFFFC0
3FFE00FFFFC0
3FFE01FFFFE0
3FFF01FFFFE0
1FFF03FFFFE0
0FFF03FF9FE0
0FFF87FF9FE0
07FF87FF0FE0
07FFCFFF1FE0
03FFCFFE1FE0
03FFCFFE1FC0
01FFFFFC3FC0
01FFFFFC7FC0
00FFFFF8FFC0
00FFFFF8FF80
007FFFF0FF80
007FFFF0FF00
003FFFE0FF00
003FFFE0FE00
001FFFE0FE00
001FFFC01800
000FFFC00000
000FFF800000
0007FF000000
0003FF000000
0003FF800000
0003FF800000
0003FF800000
0003FF800000
0003FF800000
0003FF800000
0003FF800000
0003FF800000
0003FFC00000
0003FFC00000
0001FFC00000
0001FF800000
0001FE000000
ENDCHAR
STARTCHAR 01B5
ENCODING 437
SWIDTH 600 0
DWIDTH 40 0
BBX 38 46 1 0
BITMAP
0003FF8000
003FFFFF00
03FFFFFF00
0FFFFFFE00
1FFFFFFE00
3FFFFFFC00
7FFFFFF800
7FFFFFF800
7FFFFFF000
FFFFFFF000
FFFFFFE000
FFFFFFE000
FF00FFC000
0001FFC000
0001FF8000
0001FF8000
0003FF0000
0003FF0000
0003FFFF00
1FFFFFFF00
1FFFFFFF00
1FFFFFFF80
1FFFFFFF80
1FFFFFFF80
1FFFFFFF80
1FFFFFFF80
1FFFFFFF00
07FFF80000
003FF80000
003FF80000
007FF80000
007FF00000
007FE00000
00FFC03F78
00FFDFFFFC
00FFFFFFFC
01FFFFFFFC
01FFFFFFFC
01FFFFFFFC
01FFFFFFF8
03FFFFFFF0
03FFFFFFE0
0007FFFFC0
0001FFFF80
00003FFE00
000000C000
ENDCHAR
STARTCHAR 01B6
ENCODING 438
SWIDTH 600 0
DWIDTH 40 0
BBX 38 46 1 0
BITMAP
0003FF8000
003FFFFF00
03FFFFFF00
0FFFFFFE00
1FFFFFFE00
3FFFFFFC00
7FFFFFF800
7FFFFFF800
7FFFFFF000
FFFFFFF000
FFFFFFE000
FFFFFFE000
FF00FFC000
0001FFC000
0001FF8000
0001FF8000
0003FF0000
0003FF0000
0003FFFF00
1FFFFFFF00
1FFFFFFF00
1FFFFFFF80
1FFFFFFF80
1FFFFFFF80
1FFFFFFF80
1FFFFFFF80
1FFFFFFF00
07FFF80000
003FF80000
003FF80000
007FF80000
007FF00000
007FE00000
00FFC03F78
00FFDFFFFC
00FFFFFFFC
01FFFFFFFC
01FFFFFFFC
01FFFFFFFC
01FFFFFFF8
03FFFFFFF0
03FFFFFFE0
0007FFFFC0
0001FFFF80
00003FFE00
000000C000
ENDCHAR
STARTCHAR 01B7
ENCODING 439
SWIDTH 495 0
DWIDTH 33 0
BBX 31 47 1 -1
BITMAP
00160000
1FFFFFC0
3FFFFFE0
3FFFFFF0
3FFFFFF0
3FFFFFF0
1FFFFFE0
0FFFFFE0
00001FC0
00003F80
00007F00
0001FF00
0003FE00
0007FC00
001FF800
003FF800
007FFE00
00FFFF80
03FFFFC0
07FFFFE0
0FFFFFF0
0FFFFFF0
0FFFFFF8
03FFFFF8
00403FFC
00000FFC
000007FC
000003FC
000003FE
000003FE
000001FE
000001FE
600003FE
FE0003FE
FFC007FE
FFFC1FFE
FFFFFFFC
FFFFFFFC
FFFFFFFC
FFFFFFF8
7FFFFFF0
3FFFFFF0
1FFFFFE0
07FFFFC0
01FFFF00
007FFC00
000FF000
ENDCHAR
STARTCHAR 01BB
ENCODING 443
SWIDTH 510 0
DWIDTH 34 0
BBX 32 45 1 1
BITMAP
007E0000
01FFC000
03FFF000
07FFFC00
0FFFFF00
1FFFFF00
3FFFFF80
7FFFFF80
FFFFFF80
FFFFFF80
7FFFFF80
3FE7FF80
3FC0FF80
1F00FF80
0E00FF80
0400FF80
0000FF80
0001FFFE
0FFFFFFE
1FFFFFFE
0FFFFFFE
0FFFFFFF
0FFFFFFF
0FFFFFFF
0FFFFF00
1FFFF800
000FF007
001FFFFF
003FFFFF
003FFFFF
007FFFFF
007FFFFE
00FFFFFE
00FFFFFE
01FFFFFE
03FFFFFE
03FFFFFC
07FFFFFC
0FFFFFFC
3FFFFFFC
3FFFFFF8
3FFFFFF0
1FFFFF80
07FFFC00
003FC000
ENDCHAR
STARTCHAR 01C0
ENCODING 448
SWIDTH 180 0
DWIDTH 12 0
BBX 11 46 1 0
BITMAP
7000
7FC0
7FC0
7FC0
7FC0
7FC0
7FC0
7FC0
7FC0
7FC0
7FC0
7FC0
FFC0
FFC0
FFC0
FFC0
FFC0
FFC0
FFC0
FFE0
FFC0
FFC0
FFC0
FFC0
FFC0
FFC0
FFC0
FFC0
FFC0
FFE0
FFE0
FFC0
FFC0
FFC0
FFC0
FFC0
FFC0
FFC0
FFC0
FFC0
FFC0
7FC0
7FC0
7FC0
7FC0
7C00
ENDCHAR
STARTCHAR 01C1
ENCODING 449
SWIDTH 300 0
DWIDTH 20 0
BBX 19 46 1 0
BITMAP
001FC0
7F1FC0
7F1FC0
7F1FC0
7F1FE0
FF1FE0
FF1FE0
FF1FE0
7F1FE0
7F1FE0
7F1FE0
FF1FE0
FF1FE0
FF1FE0
FF1FE0
FF3FE0
FF1FE0
FF1FE0
FF1FE0
FF1FE0
FF1FE0
FF1FE0
FF1FE0
FF1FE0
FF1FE0
FF1FE0
FF3FE0
FF1FE0
FF1FE0
FF1FE0
FF1FE0
FF1FE0
FF1FE0
FF1FE0
FF1FE0
FF1FC0
FF1FC0
FF1FC0
FF1FC0
FF1FC0
FF1FC0
FF1FC0
7F1FC0
7F1FC0
7F1FC0
7F0000
ENDCHAR
STARTCHAR 01C2
ENCODING 450
SWIDTH 330 0
DWIDTH 22 0
BBX 20 45 1 1
BITMAP
03FE00
07FE00
07FE00
07FE00
07FE00
07FE00
07FE00
07FE00
07FE00
07FE00
07FFF0
FFFFF0
FFFFF0
FFFFF0
FFFFF0
FFFFF0
FFFFF0
FFFFF0
FFFF60
3FFE00
07FE00
07FE00
07FE00
07FE00
07FE00
07FE00
07FE00
3FFF80
FFFFF0
FFFFF0
FFFFF0
FFFFF0
FFFFF0
FFFFF0
FFFFF0
FFFF00
37FE00
07FE00
07FE00
07FE00
07FE00
07FE00
07FE00
07FE00
03FE00
ENDCHAR
STARTCHAR 01C3
ENCODING 451
SWIDTH 210 0
DWIDTH 14 0
BBX 12 47 1 0
BITMAP
07E0
7FF0
7FF0
7FF0
7FF0
7FF0
7FF0
7FF0
7FF0
7FF0
7FF0
7FF0
7FF0
7FF0
7FF0
7FF0
7FF0
7FF0
7FF0
7FF0
7FF0
7FF0
7FE0
7FE0
7FE0
7FE0
7FE0
7FE0
7FE0
7FC0
3F80
0000
0000
0000
0000
0780
3FC0
7FE0
FFE0
FFE0
FFE0
FFE0
FFE0
7FE0
7FE0
3FC0
0400
ENDCHAR
ENDFONT
